<mxfile host="app.diagrams.net" agent="Mozilla/5.0 (Windows NT 10.0; Win64; x64) AppleWebKit/537.36 (KHTML, like Gecko) Chrome/141.0.0.0 Safari/537.36 Edg/141.0.0.0" version="28.2.8">
  <diagram name="Seite-1" id="3nDPAGsEfANpgGxs2zuc">
    <mxGraphModel dx="1695" dy="541" grid="1" gridSize="10" guides="1" tooltips="1" connect="1" arrows="1" fold="1" page="1" pageScale="1" pageWidth="827" pageHeight="1169" math="0" shadow="0">
      <root>
        <mxCell id="0" />
        <mxCell id="1" parent="0" />
        <mxCell id="k6odBhkB7ekg_1NBam7G-1" value="&lt;b style=&quot;font-weight:normal;&quot; id=&quot;docs-internal-guid-c18482d8-7fff-9bbe-527c-21283bf0c211&quot;&gt;&lt;img width=&quot;928px;&quot; height=&quot;419px;&quot; src=&quot;data:image/png;base64,iVBORw0KGgoAAAANSUhEUgAABbcAAAKVCAYAAAD8wtbJAAAQAElEQVR4Aey9CYAU1bW4f2pYZEcQFSUKLnHjrxAX1KBxjWLii0l8UVzji/kpURP3JXGJkZgYd/LUp2RzB02ML8YXd40LahQFYxRcMIiCgoACsi/zn6+wxp5hlp5hlu6eT7lTVfeee+45362u7j51+lZZuf9JQAISkIAEJCABCUhAAhKQgAQkUOoE9E8CEmhiAv/93/9dvt9++5X36tWrPCLSLcfUN/FQqpOABGohUFbx4vOfBCQgAQlIQAISkEAVAh5IQAISkIAEJCABCUigZgL3339/bLHFFvHMM8/EqaeeGm+99VZUxN3SLcfU045czRqslYAEmopAWVMpUk8bJqDrEpCABCQgAQlIQAISkIAEJCABCZQ+AT2M22+/PY499ti49tprY+zYsfEf//Efsd5666Vk2HJMPe3IIZ82+kcCEmgWAga3mwWrSiUgAQlIQAISkIAE2joB/ZeABCQgAQlIoLQIvPrqq3HMMccEGdkEsevyjnbkkKdfXbK2SUACjSdgcLvx7OwpAQk0HQE1SUACEpCABCQgAQlIQAISkIAECprAz372s7jqqqviy1/+cl52Ioc8/fLq0DaE9FICTUrA4HaT4lSZBCQgAQlIQAISkIAEJCCBpiKgHglIQAISKBQC06ZNi8cffzzOOOOMBpmEPP3o36COCktAAnkRMLidFyaFJCABCUig4AlooAQkIAEJSEACEpCABCQggWYi8NRTT8UBBxzQKO30o3+jOttJAhJYk0BOjcHtHBjuSkACEpCABCQgAQlIQAISkIAESomAvkhAAk1DYOrUqbHllls2Shn96N+oznaSgATqJGBwu048NkpAAhKQgAQk0IYI6KoEJCABCUhAAhKQgAQkIAEJFBEBg9tFNFmFZarWSEACEpCABCQgAQlIQAISkIAEJFD6BPQQAgMGDIi3336b3QYX+tG/wR3tIAEJ1EvA4Ha9iBSQgAQkIAEJSEACEpBAngQUk4AEJCABCUigJAl85StfiYcffrhRvtGP/o3qbCcJSKBOAga368RjowQk0JwE1C0BCUhAAhKQgAQkIAEJSEACEigGAptuumnsu+++cfXVVzfIXOTpR/8GdSwxYd2RQHMRMLjdXGTVKwEJSEACEpCABCQgAQlIoOEE7CEBCUhAAgVK4Kc//WmceeaZ8eyzz+ZlIXLI0y+vDgpJQAINJmBwu8HI7CABCUhAAoVDQEskIAEJSEACEpCABCQgAQm0DIHtt98+brvttjj44IPjr3/9a52D0o4c8vSrU9hGCUggDwI1ixjcrpmLtRKQgAQkIAEJSEACEpCABCQggeIkoNUSkECzETj66KPj1ltvjdNOOy2GDx+eBrnnzJmTjseWoDb1tCOHfNroHwlIoFkIGNxuFqwqlYAEJCABCUigWAhopwQkIAEJSEACEpCABBpCgIzsKVOmxB577BGjRo2KL37xi5EkSbrlmHrakWuIXmUlIIGGEzC43XBmbbmHvktAAhKQgAQkIAEJSEACEpCABCRQ+gT0MA8Cp5xySjz66KMxd+7cVJotx9SnFf6RgASanYDB7WZH7AASkIAEJCABCUhAAqVNQO8kIAEJSEACEpCABCQggdYgYHC7Nag7pgTaMgF9l4AEJCABCUhAAhKQgAQkIAEJSKD0CeihBFqAgMHtFoDsEBKQgAQkIAEJSEACEpCABOoiYJsEJCABCUhAAhKQQMMJGNxuODN7SEACEpBA6xJwdAlIQAISkIAEJCABCUhAAk1O4OKLL04fDJkkSYO3GJMkDe+XJEkwLv0tEpDAGgTqrTC4XS8iBSQgAQlIQAISkIAEJCABCUhAAoVOQPskIIG1JUCQuby8PBpTGLsx/ejDuPS3SEACDSdgcLvhzOwhAQlIQAISkECxE9B+CUhAAhKQgAQkIAEJSEACEih6Aga3i34Km98BR5CABCQgAQlIQAISkIAEJCABCUig9AnooQQkIIFiI2Bwu9hmTHslIAEJSEACEpCABAqBgDZIQAISkIAEJCABCUhAAq1MwOB2K0+Aw0ugbRDQSwlIQAISkIAEJCABCUhAAhKQgARKn4AeSqBlCRjcblnejiYBCUhAAhKQgAQkIAEJSGA1Af9KQAISkIAEJCABCawVAYPba4XPzhKQgAQk0FIEHEcCEpCABCQgAQlIQAISkIAEJCCB0ifQEA8NbjeElrISkIAEJCABCUhAAhKQgAQkIIHCIaAlEpCABCQggTZNwOB2m55+nZeABCQgAQm0JQL6KgEJSEACEpCABCQgAQlIQAKlRMDgdinNZlP6oi4JSEACEpCABCQgAQlIQAISkIAESp+AHkpAAhIoYgIGt4t48jRdAhKQgAQkIAEJSKBlCTiaBCQgAQlIQAISkIAEJFA4BAxuF85caIkESo2A/khAAhKQgAQkIAEJSEACEpCABCRQ+gT0UAKtRsDgdquhd2AJSEACEpCABCQgAQlIoO0R0GMJSEACEpCABCQggaYiYHC7qUiqRwISkIAEmp6AGiUgAQlIQAISkIAEJCABCUhAAhIofQKN9NDgdiPB2U0CEpCABCQgAQlIQAISkIAEJNAaBBxTAhKQgAQkIIHVBAxur+bgXwlIQAISkIAESpOAXklAAhKQgAQkIAEJSEACEpBAiRIwuF2iE9s4t+wlAQlIQAISkIAEJCABCUhAAhKQQOkT0EMJSEACpUHA4HZpzKNeSEACEpCABCQgAQk0FwH1SkACEpCABCQgAQlIQAIFScDgdkFOi0ZJoHgJaLkEJCABCUhAAhKQgAQkIAEJSEACpU9ADyVQCAQMbhfCLGiDBCQgAQlIQAISkIAEJFDKBPRNAhKQgARKmMBLL70U/fv3D7Yl7KauSaAgCRjcLshp0SgJSEACbZmAvktAAhKQgAQkIAEJSEACEigeAieeeGLsueeewbZ4rNZSCRQCgbW3weD22jNUgwQkIAEJSEACEpCABCQgAQlIoHkJqF0CEihIAgS0d9ppp7jtttuCLccFaahGSaBECRjcLtGJ1S0JSEACEpBAWyag7xKQgAQkIAEJSEACEmhuAqNHj06XIrnpppvSodiyNAn1aYV/JCCBZidgcLvZERf8ABooAQlIQAISkIAEJCABCUhAAhKQQOkT0MMmJEAQmyxtAtq5ajmmnvbcevclIIHmIWBwu3m4qlUCEpCABCQgAQlIoKgJaLwEJCABCUhAAhKonQABbALZLEWSK8Ux9bTn1rsvAQk0DwGD283DVa0SaFsE9FYCEpCABCQgAQlIQAISkIAEJNBGCBC4Joh9wgkn1Ogx9bQjV6NAMVdquwQKjIDB7QKbEM2RgAQkIAEJSEACEpCABEqDgF5IQAISkEDpEWA9bZYcITu7Lu9oRw75uuRsk4AE1o6Awe2142dvCUhAAhJoGgJqkYAEJCABCUhAAhKQgAQkUNAECFaTjU3gOh9DkUOefvnIKyOBNkKgSd00uN2kOFUmAQlIQAISkIAEJCABCUhAAhJoKgLqkYAECokAgWoC1iw5ko9dyCFPv3zklZGABBpOwOB2w5nZQwISkIAEJCCBQiSgTRKQgAQkIAEJSEACEmgmAgSoCVaznnZDhkCefvRvSD9lJSCB/AgY3M6PU8lJ6ZAEJCABCUhAAhKQgAQkIAEJSEACpU9AD9eeAOtms7QIWdiN0UY/+qOnMf3tIwEJ1E7A4HbtbGyRgAQkIAEJSEACEmhbBPRWAhKQgAQkIAEJVCFAUJqsawLUVRoaeEB/9KCvgV0Vl4AE6iBgcLsOODZJQAJ1EbBNAhKQgAQkIAEJSEACEpCABCRQ2gQISBOYZmmRtfGU/uhB39roaZ2+jiqBwiVgcLtw50bLJCABCUhAAhKQgAQkIIFiI6C9EpCABCRQMgQIRBOUZt3spnAKPehDb1PoU4cEJBBhcNuzQAISkIAEWo2AA0tAAhKQgAQkIAEJSEACEihEAqyPzRIiZFs3pX3oQy/6m1KvuiRQ6ASayz6D281FVr0SkIAEJCABCUhAAhKQgAQkIIGGE7CHBCTQygQIPpNdTSC6OUxBL/oZpzn0q1MCbYmAwe22NNv6KgEJSEACEig5AjokAQlIQAISkIAEJCCBpiVA4JkANEuINK3m1drQi37GWV3jXwlIoLEEDG43llwx9tNmCUhAAhKQgAQkIAEJSEACEpCABEqfgB42mgABZ4LPrI/daCV5dEQ/4zBeHuKKSEACtRAwuF0LGKslIAEJSEACEpCABNoGAb2UgAQkIAEJSEACEGAdbJYKIaua4+YujMN4jNvcY6lfAqVKwOB2qc6sfkmgeQioVQISkIAEJCABCUhAAhKQgAQkUJIEZsyYEQScW9I5xmPclhwzz7EUk0BREDC4XRTTpJESkIAEJCABCUhAAhKQQOES0DIJSEACEigFAhdffHGwVEhL+sJ4jNuSYzqWBEqJgMHtUppNfZGABCRQDAS0UQISkIAEJCABCUhAAhKQgAQkIIHSJ9ACHhrcbgHIDiEBCUhAAhKQgAQkIAEJSEACEqiLgG0SkIAEJCABCTScgMHthjOzhwQkIAEJSEACrUvA0SUgAQlIQAISkIAEJCABCUhAAmFwu+RPAh2UgAQkIAEJSEACEpCABCQgAQlIoPQJ6KEEJCCBtkfA4Hbbm3M9loAEJCABCUhAAhKQgAQkIAEJSEACEpCABCRQ9AQMbhf9FOqABJqfgCNIQAISkIAEJCABCUhAAhKQgAQkUPoE9FACxUbA4HaxzZj2SkACEpCABCQgAQlIQAKFQEAbJCABCUhAAhKQgARamYDB7VaeAIeXgAQk0DYI6KUEJCABCUhAAhKQgAQkIIHCITBy5MigVLeIOkr1+tqO33jjjTjiiCNizpw5a4gsXrw4RowYEePGjVujLbeC8e64447cKvclUMQEWtZ0g9sty9vRJCABCUhAAhKQgAQkIAEJSEACqwn4VwISaDUC++67bxp0zg1Ks08gmramMKxz585x4403xtChQ5tCnTokIIEaCBjcrgGKVRKQgAQkIAEJFB4BLZKABCQgAQlIQAISkEBTEdhmm21SVZMnT063/Mn2acuyrpMkiSRJ0kA4MgS/DzzwwBg8eHAcd9xxccopp8TYsWPjqKOOiunTp6eZ2sOHD0/7PP744+kxfaLiP7ZJslofGd2MUVGd/ps1a1YMGzYs7Ucmd1rpHwlIoF4CBrfrRVSUAhotAQlIQAISkIAEJCABCUhAAhKQQOkT0MNGElhvvfXSjGoC0JkK9o855pig7corr4x+/fpFeXl5PPPMM3HyyScHS5AgO3PmzLjrrrvi5ptvjuuuuy4IZrOsSO/evWmOgQMHpv1233339Jg/9L3kkkuCAPqiRYuoCsZIdyr+3HLLLTFq1KiYPXt2GkgnEF5R7T8JSKAeAga36wFkswQkIAEJSEACEpBAqRDQDwlIQAISkIAEJPA5AZYfIduaDGqWJHn99ddj5513TtfPJrhMs+XxrQAAEABJREFUO9I77rhj7LbbbmngmeO+fftGnz592K2xbL755mvUjx8/PjbbbLPYdNNNg+VKCKJnYyN86KGHxtZbb50G1mkj0E69RQISqJuAwe26+dgqgbZLQM8lIAEJSEACEpCABCQgAQlIQAIlTIDlR+bNmxfTpk2LBx98MHr27JkGn+Oz//bYY490mZAuXbrETTfdFFOnTk1bBgwYENSlBzX8ob2G6lQH/ZIkCXSjL8virikgXpOOZqlTqQSKmIDB7SKePE2XgAQkIAEJSEACEpCABFqWgKNJQAISkEDpECDQTED7ySefjKeffjrImCarGg979eqVLiHCsiRZYV1t2hpbWJYk08WWgDpLoKDvnXfeYZOW3P20wj8SkECtBAxu14rGBglIQAISWEsCdpeABCQgAQlIQAISkIAEJFCwBAhk77nnnnHiiSemWdlkcmMsAeftttsu7r77bg7TtbZ5gCRLlaQVjfjDcies3c3a23TnoZEjRowIlkThGN0sjUJhP1sShTaLBIqAQKuZaHC71dA7sAQkIAEJSEACEpCABCQgAQm0PQJ6LAEJFBIBgs6DBg1KHy5JUDuz7ayzzgrWxE6SJAh6n3322alM1p5tWXv7448/DrK6586dm1WvsWU97YsuuijVlSRJ+tDISy+9NF1/G+EDDzww1YE+MsiHDh1KtUUCEqiHgMHtegDZLAEJSEACEpBAKxJwaAlIQAISkIAEJCABCTQjAYLOEydOjAsvvLDKKGR133jjjcHyIRSC1wgQdKaedo4JiLO8CKVfv35BGzK0IZN7TD26KMjTFznGPv3004M62rKxaLNIQAJ1EzC4XTefomrVWAlIQAISkIAEJCABCUhAAhKQgARKn4AeSkACEpDAagIGt1dz8K8EJCABCUhAAhKQQGkS0CsJSEACEpCABCTQ7AQuvvjiZh/DASQggTUJGNxek4k1EmjDBHRdAhKQgAQkIAEJSEACEpCABCQggYYS+NnPftbQLq0s7/ASKA0CBrdLYx71QgISkIAEJCABCUhAAhJoLgLqlYAEJCABCUhAAhIoSAIGtwtyWjRKAhKQQPES0HIJSEACEpCABCQgAQlIQAISkIAESp9AIXhocLsQZkEbJCABCUhAAhKQgAQkIAEJSKCUCeibBCQgAQlIQALNQMDgdjNAVaUEJCABCUhAAmtDwL4SkIAEJCABCUhAAhKQgAQkIIH6CRjcrp9RYUtonQQkIAEJSEACEpCABCQgAQlIQAKlT0APJSABCUhgDQIGt9dAYoUEJCABCUhAAhKQQLET0H4JSEACEpCABCQgAQlIoPQJGNwu/TnWQwnUR8B2CUhAAhKQgAQkIAEJSEACEpCABEqfgB5KoOQIGNwuuSnVIQlIQAISkIAEJCABCUhg7QmoQQISkIAEJCABCUig0AkY3C70GdI+CUhAAsVAQBslIAEJSEACEpCABCQgAQlIQAISKH0CBeahwe0CmxDNkYAEJCABCUhAAhKQgAQkIIHSIKAXEpCABCQgAQk0LwGD283LV+0SkIAEJCABCeRHQCkJSEACEpCABCQgAQlIQAISkECDCBjcbhCuQhHWDglIQAISkIAEJCABCUhAAhKQgARKn4AeSkACEpBAXQQMbtdFxzYJSEACEpCABCQggeIhoKUSkIAEJCABCUhAAhKQQJsiYHC7TU23zkrgcwLuSUACEpCABCQgAQlIQAISkIAEJFD6BPRQAqVMwOB2Kc+uvklAAhKQgAQkIAEJSEACDSGgrAQkIAEJSEACEpBAEREwuF1Ek6WpEpCABAqLgNZIQAISkIAEJCABCUhAAhKQgAQkUPoECtdDg9uFOzdaJgEJSEACEpCABCQgAQlIQALFRkB7JSABCUhAAhJoMQIGt1sMtQNJQAISkIAEJFCdgMcSkIAEJCABCUhAAhKQgAQkIIHGEjC43VhyLd/PEVuQwJgxY+K73/1uDBw4MLp16xZJklhkUOc5wHnC+cJ5w/nTgqerQ0lAAhKQgAQkIAEJSEACpUVAbyQgAQlIIE8CBrfzBKVY2yBw2WWXxQYbbBB33HFHDB06NAhSfvjhh1FeXm6RQZ3nAOcJ5wvnDecP5xHnU9t45eilBCQggdYk4NgSkIAEJCABCUhAAhKQQFslYHC7rc68flchMGHChBgyZEiwffTRR+P++++PE044IXbYYYc0c7uKcDEfaHuzESBzm/OF84bzh/OI8yk7r5ptYBVLQAISkIAEJCABCUhAAhKQgASqE/BYAm2EgMHtNjLRulk7gUceeST23HPP+P73vx933XVXGtCuXdoWCeRHgEA35xPnFecX51l+PZWSgAQkIAEJSKClCTieBCQgAQlIQAISkEBxEjC4XZzzptVNRIDM2m9961tx++23p5naTaRWNRKoJEAmN+cX5xnnW2VD8e5ouQQkIAEJSEACEpCABCQgAQlIQAKlT6AoPDS4XRTTpJHNReDEE0+Mq6++Or75zW821xDqlUB6fnGecb6JQwISkIAEJCABCUigFAnokwQkIAEJSEACrUGgKIPbq+bOjtnDdosZ6ydVyqI7f58Xw/LFi2L+yPMCPXl1UKgkCfCwv80228yM7ZKc3cJzigxuzjfOu8KzTosk0MIEHE4CEpCABCQgAQlIQAISkIAEJNAEBIoyuJ353e1H58bGH5Wnpc9f/h6fnHp85BPgXnDlJbFs3N8zNQW91bjmI0Am7fnnn998A6hZAtUIcL5x3lWr9lACEpCABCQgAQlIQAISkECIQAISkIAEGk6gqIPbue52/PJeQbB70a2jKzOyyc7OsrvJ9CZTm+D3p7/+VSx76R/x0f47x4o3J6XytGeyy559MlVN28wdB8Sn1/6iMlMcnWljtT/ozfpnW/RQOGZLF+TQiW6OLa1DYMyYMTFkyBAfHtk6+NvsqDxkkvOO86/NQtBxCUhAAk1DQC0SkIAEJCABCUhAAhKQgASiZILbzGX7LbaKlbM+jFWzPwqCySunvxcbTVsYG4x7Pa3/9Poro8uR30uD4B132jXWf3R8tNukf8z7yanRbsAWqey6o34XH5/y3TTojU7K8smvxXr3Ph60Lb53bJU22inoJYucsdCJ/vbbDKTJUoAEHnzwwfjGN75RgJY1h0nqLCQCnHecf4Vkk7ZIQAISkIAEJCABCUhAAhKQQCkQ0AcJtD0CJRXczp0+Mrl73XhHsATJrKHbxcr33s1trtynftkL42Kdr+wXSecu0XHn3dO2VbNnpVv+tOu3SdrWviIAjnxuG+25ZdFdt6RjdTn2hCjr3Se3yf0CIjB+/PjYbbfdCsgiTWkrBDjvOP/air/6KQEJSEACEihYAhomAQlIQAISkIAEJFD0BEo2uM3yHywHwgz1feOjIJOa/eqFQDUBa9brRj4LhK+YOqVSlIzwyoM6dsgWZ8kTxuo0zKzgOlC1etO7774bm2++eavboQFtjwDnHedfsXmuvRKQgAQkIAEJSEACEpCABCQgAQmUPoFi87CkgtsrprwZ7TboG0m3brH0qcei86FHRvezLqpzTsr6bJAuTcKSIywrkpUuR36vzn7VG8sXL4qFt45Oq3tc9CuztlMShftn4cKF0a3iPClcC7WsVAlw3nH+lap/+iUBCUhAAhKQgATaEAFdlYAEJCABCUiglQmUTHCbBzSyHjbLgbTbeJNgKZGVU6cEQeclD96XPkCyJtbp+thDhqbBcGTJ+G7MAx+XT3gxFt9zZxpQ7/ClXSqHyoLnZIKjn6B7ZaM7EpCABCQggTZDQEclIAEJSEACEpCABCQgAQlIQAJNS6Cog9ssAcJSIhSWEyFLO8u47nL4d9OHSH649frputsddxwSPGCSAHOn/Q5Kg920EZTu+YtRQSD8g027BsuT9Lrulmi/1bYNIr3ksQdSeQLc6MGm+SPPS/V0/tbwVC82lvXomcrV+cdGCUhAAhKQgAQkIAEJSEACEpCABEqfgB5KQAISkMBaESjK4DYPauzz4PORLSGSbbPANkQITm/48tRUhm2fh/4RPGAyfWjkl/dK6+nHgyer66MuV0eml/qsD+25pceFl1XqRIZCHTJsOcaOnpffEGyxjzaLBCQgAQlIQAISkEB+BJSSgAQkIAEJSEACEpCABCSQS6Aog9u5DrgvAQnUSMBKCUhAAhKQgAQkIAEJSEACEpCABEqfgB5KoE0TMLjdpqdf5yUgAQlIQAISkIAEJNCWCOirBCQgAQlIQAISkEApETC4XUqzqS8SkIAEmpKAuiQgAQlIQAISkIAEJCABCUhAAhIofQJF7KHB7SKePE2XgAQkIAEJSEACEpCABCQggZYl4GgSkIAEJCABCRQOgZIIbpcvXhQfjzgqLezXhHfV3NlpO9sVb06KT6/9RU1iVeqWPftkzFg/Cbb0mbnjgFh05++ryDTmABvrs7cxeu0jAQlIQAISKDACmiMBCUhAAhKQgAQkIIE2QWCvvfZqE37qpAQKjUBJBLfzgbpq9kdR1qNnlC9ZHJ/86L9i1YL59Xbr+OW9YuOPyoNtvcINEEg6d4leN96RFvZXd/WvBCQgAQlIQAISkIAEJCABCUhAAqVPQA9LkcCTTz5Zim7pkwQKnkBZa1pIFjSZ0ZT5I8+rzJLOMpvnHvH1oJAxTeY0Wdezh+2WytGH/rn2l8/7JD7+3nfS9qxP1r5s/HPRfuAOMf+S82LZS/+IT3/9qzSTm7HIzEYfBf2MQ7+sni3HWWHcTD/9ycKufkwdbciil5LVUc8+hX30Zv7nylGPLdhEPaW6LchYJCABCUhAAhKQQMkS0DEJSEACEpCABCQgAQlIQAK1EGi14DbB6gVXXhLdfnRumh1dk33L33gtevzsytjw5alR1mf9mHvkwdFx6N6pfJ+//D0+OfX4dMmQrG8m3/eNj6LdBn1jwdU/jyx4vGLKm9Hhi9tGz1+Mio477ZqOS/b0yvfejY9P+W6sO+p3sdG0hdFuwBYx7yenVvbLdOduO+68e3pIwBz9K6dOCfSsmj0r7cfxOl/ZL5ZPeDG1EVuxiXp8Tjvn/CFgTbAduQ3GvR7LXhgXi+8dm+rCFmzCNmzEVtjldHdXApUE3JGABCQgAQlIQAISkIAEJCABCUig9AnooQQksJpAqwW3CQwTEO6030GpJdk2PfjsT8chQ6PdJv3ToxWTX0szrjO5Dl/aJTofemQsvHV0GgRGKJMv690nuhx7QhokZgwC0OUL5lcEyDdArErBDioIWLNECEFpgtD0ob6mgk2MtaIiYL5q9kexctaHqdiSxx4I7OQYfRwTSG+/zcDAJgLzK6e/V2lv2innz+xD9o5VFQFygvldjvxeGjAn0I1N2IZOxJFha5GABCQgAQlIQAISkIAE6iWggAQkIAEJSEACEpBAiRJoteA2PAkSl/VZM+BMW/WyYuqUNNCdr3xufwLcHDMe29xCgJr2WUO3S5czIRuc4PSqiqB1rlzuPoHmdv02iRGuf70AABAASURBVGXj/h5L/nZvmiXe4/xLg8D14v+9Kz1OunVLj1kC5cOt1091k52dBs6XLM5VF1mgnkoC3NnyI6sqAt3Yhk3UYSPHsEDWIgEJSKDpCahRAhKQgAQkIAEJSEACEpCABCQggdInUBoetmpwm0AtAdx8ULYfsEWayZyvfK5O+iTdewRB6dx69ttvsVUaNGc5kI0/Kk+XPCFzuv1W29JcayGDnCD4kgf+ki6VQib34nvujIV/+J/0uN3GmwQBcDK3WZIk093nweejrNd6VfRiF0ukIMPSIzTOv+TciA4dUtuooy0rXY78HiIWCUhAAhKQgAQkIAEJSEACEmgJAo4hAQlIQAISkEBBEihrLatYYoNMapbuYAkQlhepyxaW9iBQjDxyrGdNMLnrsSdUBq05pp6HMC66dXR0/GxZE/oQxKZf9YId1LE8CXbwkEcK+9TXVrCHdb2XvfxCoJtj7EOewHe2JXObpUqwiQdD8uBI2nILD53MHkjZ+VvD0+VWWGcbvfiw9KnH0qVMcuVy+7svAQlIQAISKCQC2iIBCUhAAhKQgAQkIAEJSEACEmgJAq0W3CYzuvtZFwVLdXywadc0y7kuh8t694ned96fLgXCEh0s38EDGDt+ea/Kbp32/1p8+t+XB8uAUMnDI9my3nYWxEYPa18zLsFmHlTZ67pb0gc/YgfLhtCPbGr61lYyPQTo0Y08AWmOs6VTsI2sa2zFJtrxOUdnuksmNkFtlh3BBtbZ7n7GBek63diCTdSzPAm2wi7t6J+iI7B48eIYMWJEjBw5Mi/bM/lx48atIf/GG2/EEUccEXPmzFmjrbYKZIcNGxY16autT0vVYxv+4FdLjek4EpCABCQgAQlIQAISkIAEWoiAw0hAAhKQQDMQaLXg9oo3J8WCKy8Jgr8st0GWchYYJlDMMh0U9jO/CSizrAfyFILHtCGDbO8x/xcU2pBDnrael98QuQHhHhdeli4/ksmghz6UrA69WT1b+rNcCYFo2ijooY42xsGG7Jh2CvLopdCOHIV9CvvIoQsZSq4OfMAm6inYgrylOAm8/PLLqeHTp09vUFA67VTtz9Zbbx1jxoyJ9darusxNNTEPJSABCUhAAkVIQJMlIAEJSEACEpCABCQgAQnUT6DVgtsEhMlWJhuZTGy2ZDVTX7/ZSkigOAk8/vjjccwxx0S/fv3iwQcfrHRi3LhxaRY2mctJksTgwYMjN4P5tddeS+uSJIk77rgj7Uc78nPmzEkzsdmnJEnV/ln2d5Ikcf7556d9+ZPbn2NsGDFiRCDPProoSVJVHxnWZH8nSZJmoSODLnTkFvSgL0mSSJIktZF2stYzHzIZuGDb2LFj4/DDD099z9qSpGp/xjrwwAODgh3/+Mc/UnY1jcV4+JIkq3Ugg14K+8OHD69iG/IWCUhAAhKQgAQkIAEJSEACEpBAQRLQKAlIYA0CrRbcxpLcbGWykslypt4igVIkQFCYjO1tttkmDjvssHjllVfSQHLmK4HdU045JRYtWhS77bZb3H333VlT/PnPf47HHnssJk+eHLfeemsa/K1s/Gyntv5XXnllKoFeAusPPfRQelzfn9r03XDDDTF06NAoLy+PPffcMyZNmlSjKsYliI/cM888EyeffHJq91lnnZX6TpCaTHZ07LvvvnHppZcGwea77roryEqvrX9U/Ddz5sy46KKLghsE6667bmoDehjrkksuidtuuy1lyxgcww3/K7oGetlSBg4cmPqBPxxbJCABCUhAAhIoHQJ6IgEJSEACEpCABCRQ+gRaNbhd+nj1UAKfEyDASrCXZUQ23XTTtGHatGnplj9kIhP47ty5cxo0pi4rBKXpR9B3jz32iPHjx2dNldua+pOhTECd/ujdcccd48QTT6zsU9dOTfoI0L/++utpcJ6+w4YNi2233ZbdKgU5MqYJWtPAuATsZ8+eHdhx/PHHx09/+tO47rrrAh3I5Ja6+iO34YYbRp8+fdhNC8c777xzup+NyQGcNttss4A348IBHnChffPNN2djiZCBBCQgAQlIQAISkIAEJCABCTSAwFVXXRVdu3aNUaNGVenFcZcuXYL2Kg0eSKAwCJScFQa3S25KdahQCbD0BtnGSZIEb3RXXHFFlSD1gAED0vqa7KetpvrcOmTQm1tHtvLUqVNzq/Ler0kfwem5c+fmrYNAfJKs9vemm26KzBaC9GRNH3zwwXWuGV5b/969e1cJblc/zjWQceGSJEmgDxuy4DY+5sq6LwEJSEACEpCABCQggc8JuCcBCUigdgInnHBCLF++PH72s59F3759U0ESrzhesWJF0J5W+kcCEmhWAga3mxWvyiWwmgDLY7A0B9nbLJ1BYf/+++/P68GSBGTRRFCWzGP28ykEdfMN4GZj1KWXbGkCyXXJZG29evUKfMTXrBx11FFpM1ndCxYsqFyeJK2s9qeu/tVE6zxkWZJsfLYsZZKvD3UqtlECEqhKwCMJSEACEpCABCQgAQm0IQLdu3ePM888M/huy9KZHM+aNSs9pp7jNoRDVyXQagQKNri94s1JMXPHAbHozt/XCac+ufLFi2L+yPNi1dzZdeppykbG4yGZlMV33bqGH40ZqzX8aIyd9qmZQO7yGJkEgeKPP/44DQBndbVtn3766XQNaZYx+fe//x3ZEhy1yWf1LMXBWtTZGtSscU0mc9bOetkEoAmaM0ZWX9uWpVG22267yvXACRSjo7p8dTmC+4MHD04fKsmSI9hz7rnnBsuT/O53v0t9y9VRV/9cufr24cRNBcZHlodZjvjsoZkcWyQgAQlIQAISkIAEJCABCTQnAXWXNoGf/OQn0a5du9RJgtzscEw9+xYJSKD5CRRscLv9VtvGhi9PjbV9yOSCKy+JZeP+3vwkPxuBIDrjdT70yNho2sLo8KVdPmtZu01L+7F21to7l0AWOCbITLA5ayOAy4MMCfQuXbo0q65xy5rVu+++e7AmN0ubsKxHjYI1VH77299Oa8niZqyzzz47PUYH+yzVgW7GSBvq+XPSSSelQeokSYK70jWtuY0KHhxJlnmSJKndjMUY559/frD2Nf5jw6BBg9KHPGJfz5494/DDD6988GT1/vBCd74F/fCCW5Ikqd08uDJ3HvLVpZwEJCABCTQ7AQeQgAQkIAEJSEACRUWA7OzTTz89OnTokNrNlmPq0wr/SEACzU6gVYPby559MshuXvibX6fZzexnmdrVM7LJXP54xFGpPHJkR+fSWT5xfKWOrA1dn/76V7HspX/ER/vvHOjM7cM+sugjS3zeOSelOjK5zD7aZw/brTL7O6vP+tLOPjbO+8mp6XiL77kz5nxr31g172OGqSwEv9FFHwq6skbspY6CPra0U1+fH5kOt4VHgEDqjTfeGNmSHLkWXnjhhUHbvvvum26RpR1Z2jimnbW6Jk6cGCyrsTrAG0HgdsyYMema1dQhh3xuf/apo42+bC+//PJAnjbGoR7djEE78rRn+5kc9rBPUJqMbfoNGTIkyD4nC5223IIedCBHYaysDv2ZLPXoztqwBd+yY/pSkKMPbZnfNR2jm3HpTzvH9KdgN/bThgxtyFgkIAEJSEACEpCABCQgAQlIQAKNIUCWdlnZ6vAaW44bo6f2PrZIQAJ1EVj96qtLogXaVn44I83S7vajc2PRraMrg8i5Q5O5zPFG0xZGn7/8PdJgb0VwnDrKqvnzYoNxr8e6o34Xi+8dmwayyfpGZ8eddo31Hx0fZIMjmxUCx+ihD33RkbUR4P74lO+m+hiz3YAtgsA1AexMhu3GH5WnMuhZPuHF6PmLUcF4ZG6vd+/jUdazF2JpoS860IVOxmUMxqLgI/aiM+3w2Z/6/PhMzI0Emp0AWegs65EkSSRJEieffHKMGjUqDbA3++AOIAEJSEACEpCABOojYLsEJCABCUighQmQpU22dvv27YMtxy1sgsNJoE0TKIjgdvsttkonge3KWR/GqtkfpcfZH7KdWepjna/sF0nnLtHxy3sFAWC2mUy7fpukbe0rgtAr33u3QsesrKnW7ZLHHoh2m/SPjjvvnvZFfya8bPxz6W5u28qpU4IAddpQ8afTfgdV/I3oNOwbaUAbfWlFLX+wa9kL44JxUj8qxkV01exZwXi0V+r8TDftFgkUCoEs45ksaEqWZV0o9mlHwwgoLQEJSEACEpCABCQgAQlIQAJrT4Bs7UMOOSTYrr02NUig6QmUssbCCG5XBKTrgryqIthN0LsuGQLjdbXX1tZug75R1mf9NZpXTHkzCDbPGrpduhTKJ6ceH9iALWsI51mxqiKIjU50seQIujleURE0RwWB9rI+G7BrkYAEJCABCUhAAhKQgAQkIIGWJ+CIEmh1Akmy+peySVJ12+qGNYEBb7zxRrAsJc994plLSVLVxyQpzuMePXrEPffcE2yTpDh9SJKqdjM/zBPzxbw1wfSrQgLNQqAggtv1eUbwmSA0Aef6ZBvaXlvAmmA5wWaWKyFLnMIDLqsvbdKQ8Qhco5PlSNCXlS5Hfi9VQ6CbAHh64B8JSEACEpBAwRPQQAlIQAISkIAEJCABCeRH4LTTTgue27RkyZK47LLL4t13302fK8Wvgi3lBceC+WGemC/mjfnLb6aVkkDLEiiO4HbvPtFx6N7B0iQsUcL61DwAkgctrg0ulgAhoMySIOhlve9MH8uRsE8bS5HwMEsK+9RTFt46Ol2mZMmD9wUPrUQf9TWWikoC2x2HDI2lTz2W9sN+/MAfxqOdpU0YY2GF7oou/pOABCQgAQlIQAISkIAEJCABCUigmAhoaxUCM2bMCDKAFy1alAa0r7jiithrr71i3XXXrSLnQWERYH6YJ+aLQDfzxzwyn4Vlqda0dQJFEdxmkrqfdVHwIMYPt14/WM6j87eGR5bxTHtthYAzgWf68QDJXDnW7OYBjiwT8tH+O0eHHXasbCZDu9d1twRtH2zaNVhvm4dFslZ2JsSDI7EFGbKx0Ze11bSlLzrQhU76MQZjUfCRB1PSxhriuTrq8iNXzv3SJcDPgAYPHpw+yDFJVv9ciGPq6/N6zpw5ccQRR0Q+svXpaqr2cePGBQ+nnDt3brrluKl0q0cCEpCABIqHgJZKQAISkIAEJFDaBA499ND4+te/HqNHjzagXaRTTaCb+WMemc8idUOzS5RAqwa3CQazNAdb+BKszpb+INjLPnW0ERjudeMd6YMk6dPjwsuojupy6KKdLQJsOaawT11WCHYTTO7zl78HYyXdewTLn7AMCjLI04/S58Hno6x3H6orS4eBg9J+tGd2IoMstmJzdfuydvpQGAOFZG8vuPKSIEhOfbYsCkuZ0I4c9RT2qbO0OQKx4YYbxuTJkyt/rnT99dfH4YcfXlBB67Y3K3osAQlIQAISkIAEJCABCUhAAjUROO2002L77bePCy64oKZm62onUJAtzCPzybwWpIEa1SYJtGpwu7WJd/jSLtH50CNj9iF7pw/tdk7mAAAQAElEQVSNJNDd46JfrRHEbgk7CYKTjU42Nw+bZEsmN/UtMb5jFCeBoUOHBndN77777tQBMrSHDRtWmd09cuTIWLx4cZx//vkxduzYykA4dWRNJ8nqDPAsa5rMbjK8a2pjgDvuuCPVTcY4d22Rq555jQ3oQBd92CKfJElgG+3U11Zqk8dG9FKSJAl0IlubHuslIAEJSEACEmgrBPRTAhKQgAQKkQDf1/7whz/E5ZdfXojmaVMjCTCfzCvz20gVdpNAkxJo08FtMqvJsCYbOiv5ZEUjgzzbppwNstHRm5UsG7wpx1BX6RHYd999Y/r06UGQmSD2Mccck2Z2k+H9zDPPxLRp0+LSSy+N4cOHx1133RVbb711XHnlldGvX79UDpmTTz65Mvt70qRJseeee6Ztl1xySdx2221pgJw3rltvvTXQ+9xzz8XLL79cL0wC2aeeemqQYc4DQgjGYyPB9Zo61ydPgP6UU04J1vrabbfdIgvq16TLuloIWC0BCUhAAhKQgAQkIAEJSKAFCNx+++1xwgknuBRJC7BuySHWXXfddF6Z35Yc17EaQaCNdGnTwe02Mse62UYIdO7cOW688cY46qijUo/79OkTvXv3Tvdz/xBAJguaoDj1O+64YxAonj17Nofp0ic777xzup/JcDB+/PjYbLPNYtNNNw3GIohOfV2FQDjt22yzDZs47LDDYt68eWlwOq2o9qc++QMPPDDQxfgE4Kt191ACEpCABCQgAQlIQAKNImAnCUig6Qk8+uijcfDBBze9YjW2OgHmlfltdUM0QAIVBAxuV0DwnwSKmcDUqVMrzSdonSSrlxohuE0WdmVjtZ099tgjXWKkS5cucdNNN0Wmh4A4fauJp4dkexNYTg/y/PPQQw8F+pIkSQPT2JQF0mtSUZf8gAEDAntr6medBCTQYgQcSAISkIAEJCABCUhAAvUSeP3112PQoEH1yilQfASYV+a3+CzX4lIkYHC7WWdV5RJofgLvvPNOusQIS3WwxjbLjLAECAHkbbfdtkYDevXqlS4vglxWsozvGjt8VsnyJ7UtKfKZSDAuS6RkxyeeeGKaqZ2NM3HixHRplKy9+rah8tX7eywBCUhAAhKQgAQkIAEJSKDlCThidQLz5893SZLqUErkmKVJmN8ScUc3ipyAwe06JvDJ7bePSeeeW4eETRJoXQJkat9zzz3pch/VLXnwwQeDLOnq9eutt15st912letVs5b24MGDA13VZXOPWark+eefT9faJsDNWty57Y8//nh6yPIlM2fOTPdZQoSM8Gx9bh5IOWzYsGBplFSg2p+Gylfr7qEEJCABCRQLAe2UgAQkIAEJSEACEpCABCTQBAQMbtcC8dUfjIh2770T066/Lj744x9rkbJaAs1PIHcEgsYEgJNk9dIjJ598ctx1111pJjRBa9bBzpYbWbhwYeVa2izl0bNnzzj88MODYPZZZ50VZGEnyeqlQs4+++wYOnRo7lBr7G+99dZx/fXXB/rRxxIlCLFMyemnnx4E2ZMkiVmzZkWWMY5No0aNCuxMkiSuuOKK4Jh6+lYv1NOer3z1/h5LQAISkIAEJCABCUhAAhKQgASKlYB2S0ACDSdgcLsGZu/edFPMGntnbNZ+UQyoKBOOOirmT5xYg6RVEmg5AgSXWdIjW96DLcfUZ1awtAj1lBNOOCF9wCRBawLQPGwyk8+OkaPQDx3oGjNmTBBk5pi+9EM+O0aekvuwSfqhm3oC3eigjj5ssza2HFOf6WaNb8bgmHrakUMXW46ppx25zBZsvvDCC2mySEACEpCABCTQ9gjosQQkIAEJSEACEpCABKJMBlUJfPzss/Gvk06K/rEgkiSie4eIL3RaES9/5z9j5cKFVYU9koAEJFAUBDRSAhKQgAQkIAEJSEACEpCABCQggdIn0PY8NLidM+fL582LCUcMj/5dy6NL+88b+qxTcTxnekw4/LDPK92TQBsnUD2Tuo3j0H0JSEACEpCABCQggWIjoL0SkIAEJCABCRQ9AYPbOVM48cgjovv8WdG7IpidU53ufqHdklj83NMx+Zxz0mP/SEACEpCABNoSAX2VgAQkIAEJSEACEpCABCQgAQkUGgGD25/NyJsXXhhLnn8m+rVf+lnNmpsByYJ4f/SNMe0Pf1iz8fMa9yQgAQlIQAISkIAEJCABCUhAAhIofQJ6KAEJSEACrUzA4HbFBMz44x9j6rXXxKaxoOKo9n/tkoj+FQHuV44/PuaOG1e7oC0SkIAEJCABCUhAAtUIeCgBCUhAAhKQgAQkIAEJSKBpCbT54PankybFxGOPjf7tFkaHPGh0bR8xoFvEhMMOi6WzZjXtbKhNAhkBtxKQgAQkIAEJSEACEpCABCQgAQmUPgE9lIAE1opAHuHctdJf8J0nDB8eG3dcHt075G/qeuuUx7qL51QEuL+TfyclJSABCUhAAhKQgAQkIIG1ImBnCUhAAhKQgAQkIAEJ5BJo08FtMrY7vj8lNui4MpdJXvsbtVsaK/81IV457ri85BWSgATqJvDk9tvHpHPPrVvI1oYQUFYCEpCABCQgAQlIQAISkIAEJCCB0ifQpj1ss8Htf197bXzyf/fFJmULG3UCrCyv6LZ8eSx49Z8VO/6TgATWhsCrPxgR7d57J6Zdf1188Mc/ro0q+0pAAhKQgAQkIAEJSKAOAjZJQAISkIAEJFBKBNpkcHv2Y4/F5PPOi03K5zVqLucti5i0uHP0Pv4HscdLL4f/SUACjSfw7k03xayxd8Zm7RfFgIoy4aijYv7EiY1XaE8JSKDpCKhJAhKQgAQkIAEJSEACEpCABCRQwATKCti2ZjFt1ZIlMem0U6Nfh6XRuV3Dh5ixtF28V9YzdrhzTGx79dWVCtyRgAQaTuDjZ5+Nf510UvSPBZEkka59/4VOK+Ll7/xnrFzYuF9VNNwKe0hAAhKQgAQkIAEJSEACEsifgJISkIAEJFA4BNpccLusU6dY/2tfj/ntujRoFpaujJiyslus2m2f2GvS5Oh7yCEN6q+wBCRQlcDyefNiwhHDo3/X8ujS/vO2PutUHM+ZHhMOP+zzSvckIAEJSKBYCWi3BCQgAQlIQAISkIAEJCCBZiNQ1myaC1jxNr/6VXQYtGN8sDS/1O25y5KYvHid6HvmuTHk4Udinb59C9g7TSteAm3L8olHHhHd58+K3hXB7Oqef6Hdklj83NMx+Zxzqjd5LAEJSEACEpCABCQgAQlIQAIlSmDx4sUxYsSIGDx4cLzxxhtVvLzjjjsiSZJgW6WhmQ+w44gjjog5c+bEuHHjUvuwszHDjhw5MvUhSZIq22HDhqX6c3Xmjptb774EJFCVQJsMboNg0B1jYnbSJVg/m+PaynsrOsXMnv1il789EF88/4LaxKyXgAQaQODNCy+MJc8/E/3aL62114BkQbw/+saY9oc/1CpjgwQkIAEJSEACbYCALkpAAhKQQL0EVq1aFWeccUb88Y9/rFe2GAS22WabGD9+fKWpBJNfeeWVOOCAAyrrinHnworvwuXl5TF79uw48MAD45lnngmOH3zwwVhvvfWquLT11lvHmDFj1qivIuSBBCQQbTa43ekLX4hBt94W0yqC18tX1X4mLFqZRL/hR0SfffapXcgWCUggbwIzKj5sTb32mtg0FtTZp10S0b8iwP3K8cfH3Iq743UK21hJwB0JSEACEpCABCQgAQlIoO0QWLBgQfz85z+PXr16xf/8z//E008/XRLO77vvvkEwm6A2Dk2bNo1NDBo0KN3yh0xqMp6TJEmzoMmKpj7LeCYDPElWt5FxTRtb6jO9ZIFn/aijLUmq9qFfTaU2ecYncE3BPuysqX/1uur9/vGPf0SWMY4stiZJkma1n3POOZHZjX7GSZIkzSqnD7row5Ys+CRJAhlkqYcD9tGGz/hCvaW4CGjtagJtNriN+6ybPeBHp8V7K2tff3vzDovjvRtviOljx9LFIgEJrAWBTydNionHHhv92y2MDnlcfbq2jxjQLWLCYYfF0lmz1mJku0pAAhKQgAQkIAEJtGECui6BkiMwc+bM+PGPfxwbbLBBXH755TF//vzo0aNH/PrXvy4JXzfccMN47733Igtqk8VNYLt79+6pfwRjzz///DjmmGPSzOfJkyenWdAEcxGYVPHdc88990zbLrnkkrjtttuCPrTVVq688sro169f2oeM6pNPPnmNpVFy+9Ylz/xcdNFFUVNGdq6O6vu5/dZdd93KZvy69dZbAz8fe+yx+Oc//1nZdsMNN8TQoUNTu/EZ32kkkH3qqafG9ddfn7YhA7OMA2PdddddceONN0bnzp3pYpFAURLII7zUen7xs5qVK1cG2+ayYutf/jLaD9opZtSy/jYBuP5lCysCcsfE/FdeaS4z1NvCBLp27RqffvppC4/qcBOGD4+NOy6P7h3yZ7HeOuWx7uI5FQHu7+TfqYAlOe84/wrYRE1r8wQEIAEJSEACEpCABCRQqATeeeed+MY3vhEbbbRRENRcsmRJkL3dqVOnOOqoo9I1oV944YWYMGFCvPrqq2kwdMqUKfHuu+/GjBkz4qOPPoqPP/44/T68dOnSIOZSiL726dMntttuu3RpEoKxZHHvvPPOlaYSjCUoi89UIt+7d29200JwPJMnCzytrOMPgWCymTPZHXfcMXbbbbd0+ZCaus2dOzdlXZs842NTTX3rqqutH8H9PfbYI1iqhOVLCOqjB7tff/31OOywwziMYcOGxbbbbpvuEwhnhyVe2CIzb968WLRoEYfRt2/faIyNaWf/SKCACLRIcHvhwoXpRfX+++9P7whx9+rEE0+MQw89NPbZZ5/40pe+FFtuuWX6wurZs2d6x6h9+/bRrl276NChQ7rlmIsX7bwAkacf/dGDPvRycWMcLuKMmw/rwWPGxtyybrWuv92tQ8QXOq+KCYcfFquWLftcpXtFS6B///7Bh4KidaAIDSdju+P7U2KDjisbbP1G7So+dP1rQrxy3HEN7ltoHTjvOP8KzS7tkYAEJCABCUhAAhKQgATqIFAgTeuvv3669AixErK1c80i2/jcc8+NH/3oR/H9738/DXZ/61vfStd23muvvWKXXXaJgQMHxuabb54Gx4mvdOzYMV3SI0mSJt/m2taYfQLHfH8ie5ss7uqBWILRSbLabtqyjGXGItBNHfsNKQSQkySJLl26xE033RRTp06ts3tt8o0dv7Z+cKjJENbuJtBeUxt1Dz30UBrATpIkCHLDiD60DRgwIPWTfYsEiplAkwe3eaHcfvvtcfbZZ8dBBx0UvFi4qzR8+PD0riJ3DwlUcxeMO2wXX3xx3HzzzfHwww+nP6t4//33gztJy5cvT382QdY2i+tzTD3t/PwCefrRHz3oQy/6uXvJeIzL+NiBPdiFfdUnLCkri47r94lFq2rHsX7HVdF59vSYcOQR1bt7XIQEuIP7/PPPF6HlxWnyv6+9Nj75v/tik7KF1Mr5EgAAEABJREFUjXJgZXlFt4prwoJXP//pVUVNUf7jvOP8K0rjNVoCEpBAngQUk4AEJCABCUigeQiwLAeZ1yw/wpIkJAEyEhnYZDoT4OY7x0svvZTGWIiBvP3222mQdvr06TFr1qw0c5tsb7K+6UfMpTkKdq1NIRiLzX/729/SLG5iPJk+MpZZcxp/sZ2AbZaxnMnks80NGrNuOdnO6MsK8aba9DRUvjY9+dRzQ6ImOQL4BMRraqOORFAytTN/Jk6cmGZ/02aRQKkQqD2am6eHXDCvuOKK9Gcx3EH8j//4jyBzmovOD3/4w3jiiSeCC+Zrr70WXJC480WGNS+wb3/728HdQ9ZN4oXKhZkLdXbnMNeEJEmCetqRQ55+9EcP+tCLfsZhPMZlfOzAHuzCPuzkZzzY/fzYsfHsrkOi+0fTYqNOdTxZssKYLyQLY94jD8VbI0dWHPmvmAnwU5377ruvEFwoeRtmP/ZYTD7vvNikfF6jfJ23LGLS4s7R+/gfxB4vvRzF/h/nHedfsfuh/RKQgAQkIAEJSEACEpBA6xEgBsKayZdeemmwNjPJfqwrzfIjrWdV045M9jQazzjjjCCLm/3ayoMPPhgE8mtrz60n+E82OAFysr9pI2bEzYG7776bw3St7cGDB6dLj6QV1f4QUG6I/GfdG70hQYpAPmtvYzdzjbLqdudy2GabbdKbGi+/vPp79B133JEuW0J/+lokUCoEyhrjCHcJr7nmmhgyZEgQWJ46dWocf/zxwTpO3BEcWxEwPq8imPW1r30tNttss8YM0WR9GB87sAe7sA87sXfBM8/EjKOOjF5z34uNOiyvd8wZS8pi2cry6FZxgahXWIGCJnDEEUcE65DxK4CCNrTIjVu1ZElMOu3U6NdhaXRu13BnWAv/vbKescOdY2Lbq69uuIIC68H5xnnH+VdgpmmOBCQgAQlIoMAIaI4EJCABCeRD4PTTT0/XhebhkiztygME8+lXDDJkpfOAxAMPPDBdUiPXZoK6rDudLQvCsrS71bFGdtaXhyqytC2BX7Ky0Z21nXXWWUGmeJKsXsKDFQCQz9qrbxsqX71/Q45Za/vYY49NOVS3+6STTkqD8EmSpJn5WQY7jEaNGhU8GDNJkiDBk2PqGzK2shIodAINDm6z5AdrNL344otx1VVXpQ8l4MmrhxxySPpk3kJ3GPt69OgROy9aFLv89a+xddfy2KATtbWXJSsj3l7WOVbtulfs89bbsdF3SuPBdrV73DZauPvLXe624W3reFnWqVOs/7Wvx/x2XRpkwNKK19yUld1i1W77xF6TJkffiutLgxQUqDDnG+ddk5unQglIQAISkIAEJCABCUigzRIgqH3hhRfGv/71r/jf//3fouZAQJtnqWVBZQK5ZCNnAVn8pA4n2WbLbZxwwgnpM97oRyB4zJgxkfWhDp3oph866Idebg5wTD3tyNFGQT/1ufpydeUjT/+aCrYxPvqy9txxqKt+jD3Yde+996aZ5axogFymi7YhQ4aky86wXAlt6GApEtrYckw94+IrPnBsKSICmroGgbI1auqo4G4PP31geY8777wzuINWh3jBNr1zzTXx6vePj617lEevdeo2c86SiEkL2sXG510YQx59PNbZaKO6O9haNATI5v/3v/8do0ePLhqbi9HQbX71q+gwaMf4YGl+qdtzlyUxefE60ffMc2PIw4/EOn37FqPba9jMecb5xnm3RqMVEpCABCQgAQlIQAJNTkCFEmhrBLbaaqu25nKb8ZflU5IkSR/6yXIt/fr1Sx8Yunjx4hgxYkRanyRJmqVtdnabOS109DMCeQe3WYaEtX2ee+654OGNn/Uvys37v/9d9ClbFt061G7+qvKId5d0iDkbbh5ffurp2PLHP65d2JaiJcAa7WTSFvvd7UKfgEF3jInZSZdg/ey6bH1vRaeY2bNf7PK3B+KL519Ql2hRtXF+cZ5xvhWV4RrblgjoqwQkIAEJSEACEpCABCRQoATItCb7Oiu1ZZtPnDjRB0YW6BxqVvMRyDu4zc8VfvnLXzafJS2oeef//UvM67lhzF5ecybpwhUREz9Oout3jo69354SvXbfPcc6d0uJwJe+9KXgJz1HH320GdzNOLGdvvCFGHTrbTGtIni9fFXtAy1amUS/4UdEn332qV2oyFrI2Ob84jzjfCsy8zVXAhKQgAQkIAEJSEACbZiArktAAhKQQKETyCu4vXLlynjzzTdjl112KXR/8rKvyxZbxK6PPBqzOq0XHy1bE0GHiqoV5eXRY8cd89KnUHET+OpXvxpPP/10/Pa3v43DDz88eOhfcXtUmNazbvaAH50W762sff3tzTssjvduvCGmjx1bmE40wCrOI84nzivOL86zBnRXVAISkEDxEdBiCUhAAhKQgAQkIAEJSEACLUygIoxb/4g8nACpUvpJfbdtt40hDz0cM9v3jDnLq2LoWHG4w7oRb5x3brx38824bilxAmTUvvDCC8F2//33j4MPPjjN5CZA+emnnza5921V4da//GW0H7RTzKhl/W1uLPUvWxgTjz0m5r/ySlFh4jzhfCFTm/OH84jzKTuvisoZjZWABCQgAQlIQAISkIAEJCCBJiGgEglIoHkJVIRx8x+AdbdPOumkmD17dv6dCliyx6BBMeTBh2J6edc1Atyd2kVs3mFR/OsHI2LGH/9YwF5oWlMS4GF/s2bNSh/MwAMbjjjiiOjbt2/lwxmSJHF/LRl8/amn49+frqx1/W3Wwt9onRVx15cGR4e1HCtJWm6+OE84XzhvjjrqqOA84nxqyvNTXRKQgAQkIIESJ6B7EpCABCQgAQlIQAISaBCBBgW3H3nkkejRo0dsu+22ccABBwTrcE+bNq1BAxaa8PwNN4wZJ5wYUxZEzFla1bqu7SsC3OssjZeHD49ZDzxQtdGjkiZAkPKWW26J1157LcjIzR7a4LY8YMDks21MmfHBB7H+FlvEolW1X376dooY1LtrPH/ot9PxGjNOS/fhPOF84bzh/IFR8xa1S0ACEpCABCQgAQlIQAISkIAEJFD6BPSwLgK1R5dyerHmNoebbLJJXHbZZTFp0qQ47rjjYvz48WmQu1evXsFP8M8888x0KYennnoqPqgIYNGnUAr2YBdLBmAn9mI3QfpnP/442m28USxdlaxhbvcOEb07J/HWhRes0WaFBCTQMALz//nPeHbXIdH9o2mxUac6nixZofYLycKY98hD8dbIkRVH/pOABCQgAQlIQAISkEAeBBSRgAQkIAEJSKBNEcgruF19ze0+ffrEkUcemT6Ab/LkycGasqecckpssMEG8eKLL8YFF1wQO+20U3Tp0iXN8uZBagTDzzvvvLj66quDzMa//vWv6UP8XnnllZgyZUoaDP/kk09i8eLFsWLFihongXrakSNYTT/687A29KEX/YzDeIxLljl2YA92YR92Yi92Y/9pHTtE73mzY+PO5VXGnbssiddX9IiO+34tdrjl1iptHkhAAg0jMPuxx+LZoUOj98fvx0YdltfbecaSsli2sjy6bbNNvbIKSEACjSNgLwlIQAISkIAEJCABCUhAAhKQQDETyCu4nTlY25rbX/ziF+Ob3/xmnHvuufGb3/wmyJCeMWNGzJw5M/70pz/FWWedFXvvvXesu+66MX369HjiiSdSOYLNxx13XBx00EGxyy67xBZbbJEGyLt27Rrt27ePsrKydH1jthxTv0FFAB055OlHf/QwLnrRzzh7V4zHuIyPHdiDXchhJ/Zi97TRo2PmbbdG/45LMzfj04q420ufRHzcf2DscOfY2Pm++6L7wIGV7e5IQAINIzB9zJh47qtfjU2ST2P9dareRKquacnKiLeXdY5Vu+4V+7z1dmz0ne9UF/FYAhKQgAQkIAEJSEACEpBAcxFQrwQkIAEJFBGBsobY2tA1t7t37x4DK4LCBx54YBCEJqP6qquuiptvvjnuu+++ePLJJ2PChAnx5ptvxvvvvx9z5syJBQsWxNKlS9Ps7VWrVqXr7bIla5t62pFDnn70Rw/60It+xjnuuOOCcRkfO2ryc+64cfHPH4yITdsvirIkYtmqiqDakg7xTvSM/1kRsec/X40NKgLvNfW1TgISyI/AO9dcE69+//jYukd59Fqn7j5zlkRMWtAuNj7vwhjy6OOxzkYb1d3BVglIQAISaGUCDi8BCUhAAhKQgAQkIAEJSKD1COQV3C7FNbcP3muvePAre0b/ruXBgyNnLG0Xr31SFuv/4NT46ocfho+PbL2TsmRHbqOOvf/730WfsmXRrUPtAFaVR7xbcWNpzoabx5efejq2/PGPaxe2RQISkIAEJCABCUhAAhKQgAQkUMgEtE0CEmgxAnkFt0txze0ffDw3tupSFknF/68t6xZlX/1G7D1pUmx7+RXx21tuabEJcCAJlDqBnf/3LzGv54Yxe3m7Gl1duCLitQUdout3jo69354SvXbfPfxPAhKQgAQkIIG2Q0BPJSABCUhAAhKQgAQk0FgCZQ3pWCprbh/84QfR5Z23YmHHrjFvy0HxpXvujR3v+XMs7t07TjrppMDPhnBRVgISqJ1Aly22iF0feTRmdVovPlq25iWnQ0VVeft20WPHHWtXYktGwK0EJCABCUhAAhKQgAQkIAEJSEACpU9AD/MkUBFWylOyQqwU1tyecsUV8e4N/xMrOnWNzX51VWzyv3+JP739dhxwwAGx7bbbRo8ePQI/K9z1nwQk0EQEulW8toY89HDMbN8z5iyvetnpWHG41TpL4o3zzo33br65iUZUjQQkIAEJSEACEpBA2yGgpxKQgAQkIAEJtFUCFWGl/F3fZJNN4rLLLotJkyalD4gcP358GhTu1atX7L///nHmmWfG6NGj46mnnooPPvggf8UtIIk92PXKTTfFjC9uGZcPGhyDzj47tR8/eAAlfuEffraASQ4hgTZFoMegQTHkwYdiennXmFstwN2pXcTmHRbFv34wImb88Y9tiovOSqDFCTigBCQgAQlIQAISkIAEJCABCUigRAg0KLid+dynT5848sgj47e//W1Mnjw5XnjhhTjllFNigw02iBdffDEuuOCC2GmnnaJLly5pNvRXv/rVNBh+3nnnxdVXXx233HJL/PWvf42nn346XnnllZgyZUoaDP/kk09i8eLFsWLFimyoKlvqaUeOYDX96I8e9KEX/YxDsJpxycbGDuzBrgf23jvmHHNsnPzDH6Z2Yz9+4A9+5Q7ovgQk0LQE1t1llxjytwdi2tKO8cnypIryru0rAtzrLI2Xhw+PWQ88UKXNAwlIQAISkIAEJCABCUhAAs1JQN0SkIAEJFCcBBoV3K7u6he/+MX45je/Geeee2785je/STO3Z8yYETNnzow//elPcdZZZ8XeFUHlddddN6ZPnx5PPPFEKkew+bjjjouDDjoodqkIem2xxRZpgLxr167Rvn37KCsriyRJ0i3H1BNARw55+tEfPYyLXndd7ZwAABAASURBVPQzzt4V4zEu42MH9pC5/ZuKgDx2Yi92h/9JQAItSqD30KHRbfPNY1EN97C6d4jo3TmJty68oEVtcjAJSEACEmgQAYUlIAEJSEACEpBAvQRY9pXkxHoFFSg6Aswr81t0hmtwSRIoa06vunfvHgMHDowDDzywMnP7qquuiptvvjnuu+++ePLJJ2PChAnx5ptvxvvvvx9z5syJBQsWxNKlS9Ps7VWrVkV5eXmwJWubetqRQ55+9EcP+tCL/ixzm3EZHzua0091S6B2ArZUJ/Cvk34Q7d6bEht3Lq/SNHdZEq+v6BEd9/1a7HDLrVXaPJCABCQgAQlIQAISkIAEJCCB4iKw3Xbbpb/WLy6r18battOXVRSY37bjsZ4WMoFmDW4XsuPaJgEJtDyBaaNHx8zbbo3+HZdWDv7p8ogp5T3j4/4DY4c7x8bOFTe+ulfcFKsUcEcCEpCABCQggdIjoEcSkIAEJFDyBHg22/3331/yfrZFB5lX5rct+q7PhUfA4HbhzYkWSaAkCcwdNy7++YMfxKbtF0VZErFsVcS0VV1jalmv2PTnl8We/3w1NjjooJL0fW2dsr8EJCABCUhAAhKQgAQkIIFiI3D00UfH6NGjgyUsis127a2dAPPJvDK/tUvZ0lgC9ms4AYPbDWdmDwlIoIEEls2ZExO+85/Rv+uq4MGRHy7vEK/NK4uex/8g9psxI/qPGNFAjYpLQAISkIAEJCABCbRxArovAQkUOIGtt946/uu//ivOOeecArdU8xpCgPlkXpnfhvRTVgLNRcDgdnORVa8EJFBJgMB2zwUfRVLx/2vLukXsd3Ds/fqk2PbyK6Jdp06Vcu5IQALNRUC9EpCABCQgAQlIQAISaHkC1157bbz66qvx85//vOUHd8QmJ8A8Mp/Ma5MrV6EEGknA4HZ1cB5LQAJNSuC100+LRS88Fws7do15Ww6KL91zb+x4z5+j61ZbNek4KpOABCQgAQlIQAISkIAEJNAgAgq3CIF77rkn/u///i9OOOEElyhpEeJNPwhLkTB/zCPz2fQjqFECjSdgcLvx7OwpAQnUQ2DKFVfEuzf8T6zo1DU2+9VVMfTlCdFn//3r6WWzBCQgAQkUIgFtkoAEJCABCUhAAo0hsPHGG8dzzz0XXbp0if79+8fZZ58dTz75pIHuxsBswT4EtJkn5ot5Y/6YR+azBc1wKAnUS6DFgtuLFy+OESNGxLhx42o1auLEifHGG2/EnDlzYuTIkTF37tx0y3GtnT5rQO8dd9zx2VHTbJIkiSRpG2XvvfduGmhqgYDlMwIf/uV/Y+Mjhsf+M2fFpt///me1biQgAQlIoK0S4PNGkrSNz1ZJop9JIoMkkUGSyCBJZJAkpc2A97e2+t7eEL9ZyuKFF16ITp06xXnnnZcGupOk6M+Nko0bEdBmnpgv5o35a8h8KyuBliLQYsHtl19+OfXp8ccfDwLd6UG1P0888URas95668WFF14YnTt3To9b6095eXm0lcLduNbi7LilS+DLTz0dg2++JZJ27UrXST2TgAQkIIG8CfB5o618ttLPmj5HW+d54TngOVCa5wDvb3m/GbZxQR5COHLkyDSTe968eW0m5lKMr33mh0xt5ot5a+Onru4XMIEWC25zl+f000+Pbt26xbRp01IkZFsPHz48vct14403xhlnnBGnnnpqvPXWW2nGdm4QHNnBgwenmd3sJ8nqu3u8yFJl/pGABAqOQFJWVnA2FY1BGioBCUhAAhKQgAQkIAEJSEACEpBA6RPQw7Ui0CKRJ5Ya+eCDD2LTTTeNr33ta/G3v/2t0uiBAwemd+pYsuTqq6+OUaNGRe/evSvb2XnmmWeCjG+WLenTp0/cdtttMXv27LTf5ptvHk29HAljWiTQ3ARWvDkpZu44IGasn1QpH484KsoXL0oL+xSOlz37ZCrHtrpt1KGHbfW21jpedOfvU//wsyYbVs2dHbOH7Zb6hO3zR55XKYa/HCNTWdlKO9iAndhTnwmFZHd9ttouAQlIQAISkIAEipGANktAAhKQgAQkIIFcAi0S3B4/fnxcccUV6cMDttlmm3jooYfSdbUxhOA029rK9OnT45vf/GZlM0Ht559/PghyJ0kSRx99dLzzzjuV7blZ3exXNrgjgQIlsO6o38XGH5WnZYNxr8eyF8bF4nvHRtK5S/S68Y60sF+g5jfarE+vvzLaDdgiNpq2MGDw6a9/FVlwfsGVl8SycX9vtO7W6lisdrcWL8dtdgIOIAEJSEACEpCABCQgAQlIQAISKGkCZc3tHQ+DfPrppyszrVln6JhjjokHH3wwr6H79euX9kWYYDVB7d122y2tQxeF9blppwwdOjTN6KaeferqL0pIoDAIlPVZP9pt0DdWTHlzjczt6haSGU3GM2XJYw9Uac6yjWmjZEFjsqjJFp93zklpVnWWFZ51ztrRTR39sv5kJSNP+WW3SDOuyWhmLGQpZDcjzxjLJ46nqsaCrpXT30sD+Svfeze6HPm9NLjf8ct7BWOnge6X/hEf7b9zYBMFneimIIPizL6Fv/l16g9t2EBhnz70RZY+HCNLG4V9/GE/1xf6IEv9vJ+cSvcqJdNPe9YP/dXthg3tyFGwF0WZ/k+v/UVl9jo6abNIQAISkIAEJCABCUhAAs1JQN0SkIAEJFBKBJo9uD158uQgQM1DIjNww4YNCwLeLE6f1bH99NNP4/DDD4+3336bwyrlpJNOiuuuuy4NahMcJ8idJEm6XrfLklRB5UERE1gx+bVYVhHUbb/FVnV6QXB0wZWXRLcfnZsGhXOFCRwTkM3Niv74lO+mQeJMbtX8eUGWOJnhDc0KJ7P894sj7b9y1oex5MH7UrUEbgnukoWNbsZIG+r4Q2B71tDtKjO2Ee1SEejGr4477RrrPzo+2m3SPxZc/fPodd0tqa+04TsMkKes/HBGbPjy1JQHNsCv7xsfpTcK6AuTVK4ikJ507ZZmi3c+9MiAU9djT6j0hWxyZOnDTQZ00M6cxGf/4SeBeTLO8RMG9KvJbvTXNQ/LK+Z7vXsfTzPXydbP9emz4dxIQAISaF0Cji4BCUhAAhKQgAQkIAEJSKCACTR7cJvs6dzMalgQ6OYBkqy/fdRRR1GVFuQmTpwYu+66a7DP2ttskaeMGTMmeEIrOsnMzgo6qGObKvKPBFqBQGOH/OTU49MsaDJ7Zx+ydxB07fyt4XWqWzb+ubS9y+HfTbed9jso3fKHgDEB6HW+sl+6tEnHnXenOlbNnpVu+ZO1sd/QQtB3TnlEbpY5OsgeJyDdadg30nEZg/qaCgH17mdckAauacdvMqgJLHOcW5AlCF/WZ4M0O5vgdW47+5n/BLUJhuMz/Qgs056VKm39Ngnsbb/NwEpfkMv4dakIepf17hO0I0cbhexy7CHATmAeeeqrF+rrm4d2FTZgZ/sBWwTyuXNUXZ/HEpCABCQggdYkQDJJkiRpYsngwYODZ+o0pT38QjNJkmDblHozu0eMGBGLF1fcnW+A8muuuabJ/axreJgyJjLswxn7OW5MgWWSND3TzJaRI0em50OSrD4vOM7a8tniGz7iaz7yhSSDryRs8Svl6nY1N/fq43ksAQm0DgFHlYAECodAswe3C8dVLZFAYRIg0zlbc5tM4ZVTp8Scb+0bqz6e0yiDCZASKM2C5lkAdkWF3kYprNaJgPHiiuB2teoGH7bfats0Y5pgPp0X33NnkL3Mfm7JlvaYM/ygWG/sA2mWc257S++z/Ag3IhiX+coNfFOXlXzmgWB8Ju9WAhKQgAQkUKgECD7y/Bwe8s7zb/r27RsEYfMMFuflFokqJK6wzatDHkLYx69FEeWZPdOmTWM3r0Lg9ZZbbslLtimECJKeeuqp8emnn6bqSOgh6acQk3fgys0CgricD8wbW46ppz11wj8SkIAEJCABCUigBQgY3G4ByA4hgXwJkCnccejeeYkTwCaAWl2YDGcylHOD5gTPWTajumxTH7NEx6rZH+WtlqxlsqBZ3gObWWu8eudsqRaWJSEgXr29uY5rsoXM8qVPPZZm13c/66I6h27cPNSp0kYJSEACEpBAqxAgcPnKK6/E448/Hvyakmfn8CvMzp07p/YQCE6S1dm7ucHNLLuVuiRJgj5J8nkmMUFzMnfpT2A0ST5vI0Ca9UuSJNCVDlbxB/kkWXO8iqYq/whmE9Q+++yz0/rx4z9/Hkju2DTmjs/+0UcfHfi8zTbbVGaT546bm7VLPX6MHj26MpOZ/cz+XFmC2BwnyWr78Qtfzz///HjooYfioosuCvoxNjrRjX3V+2X1tGW+JMlqndhPfVaYtyRZ3ZbbD7kkWV2PTYxBn6we25KkKnvaX3755bjpppvSX9pyPlDHll/cUk97ZtM555wT+IFP+JnppA4f6ZuVbNwkSaIue7gJQP/MF+xGHt2ZLvaTZLVv2di0UY8sdUmy+nzLbE2S1fLYgSyF/SRZXc+YyFKfFeYtSZLUx+ptmQz19E2S1Xoyu2nHniRZ3T9jhTxtFglIQAISKHUC+tdUBAxuNxVJ9UigCQiQpbxs3N+D7Oik0+ovjDWpZdkNgsEsBUJ7tmWf+o5DhgZBWIKxZBrzcMR81nOuaakRdOZTWBqEgDtLpjAu49fWD1uwqfpDFGvKZM6CxGSew2fRraNrU9sk9Rk/5oHxsuA6ygnGs5QI2fX4yHrjuetxI5OVTA8ckG3IPGQ63EpAAhKQgAQKiUAWeCVImdlF8I9AcJbVPXXq1Ljyyiuz5jRgy/NyyO79zne+EwceeGAgg0AWbN555505rFIyHYsWLQp0MzZjUeoaL1dJpv/II4+M3XbbLX3mT67tubK5+0OHDo3bb789Bg0aFDw/iGMCkmSvc4xNAwYMCAKbmT4CtV27dg3aTjzxxKDgN/Iffvhh3HDDDekQbKmHB2PgF8HgSy+9NGVzySWXpDcBOnXqlMpnf+jHPjca6IctBEEJ7BLsJYCPTvoTMKUe+axkbbfddlvQRt+TTz459RObq/uT24+gdXbMlmA5bHgGEsdZ4Zj6bH6pnz9/fjz33HOpT/iJv9hPHW3IUOq1B6GKgh+XXXZZOp/vvPNORU2kc8SNgX333Tc9xn/OE1hRsCc7nxBANpuDHXfcMf0VAucHHHL5ZTZx/tGGTO4vFjI9jMGvGe6++27UVymcH/S5/vrrA9vRn80dNtbGo4oSDyQgAQlIQAISqJOAwe068dgogeYnkC0fwlIXH269fjpgz1+MStetTg9q+EMGM5nMrD9Nv1wRArD0JwD7waZdA/3I0idXrqZ9MsdZa7omvTXJ59axFjXZ4ozHUihlPXrmNlfZxxZsysZBnnXGs+xyAuUEjeGxavasoA29HCc9ezXr+tQZPwxmvIUVwfTcpUdY55wMddpYd7vjjkOCB0wSwM61e/mEF6Ox88DYFgk0loD9JCABCTQ1AYK7BOXQS2Zuly5dKrOZCXQSsCbDmez1dJUqAAAQAElEQVRdZKdPn165vnXWRt+snaVCCLCyJWC46aab0lxZaCPwt+eeewbZ4egkMMi2vvEyJQQVM/0s8YEusrjJ5s5k8t3m6sJWbCI4CgsCtughqEuQnrZ+/fqlgWqYEPAl8IkMhUDxsGHDgkKQnrp8C8FUlimhL0uW4FcWPGds9KCfzHpYc0zZfPPN2QRbAu0EY7PAP/2wGT4EgQnipsIVf7JgccXuGv/wCd9yGzimPgs604Ze9LOfzR32U0cb9ZSG2JP15RzhXMn0wptj6jlXYEBhru65557K9dNzz0nGpjCXp59+epx11lmR8cMm/EEvY/LLAwr79GHO8ZnXAzcHcs972inI0ge5wYMHp5n51FOwGx25c0C9RQISkIAEJCCBhhFosuA2H7C4u92w4RsvTfYEH1xq05CHPbV1tV4CLUKAAO+GL08NlgzJLX0efD4IMieduwRLdlDYJ3iMHFsMZMsxpceFl6V6qKON/uihjZLVZ2NmQWRkqxfa6EPJ1YsN2EJhze1sDGQyHVlf/Op5+Q3BljGz9twtNjFGVnL15LaxT1smt95dD1T6Shv1bNHN+NmYufayn9uGLDphhB8U9qmjLTtGN/7mtuEPY9DGts9D/0jniTGwg3oK+7l6sjr0ZzqwiWNkc9ups0hAAhKQgAQKiQBBUzJYM5vIjiWYRyHoSvAuSZI0eFc9SJr1YUvAlCAzutgS4CQASFtWCL4ShM2Osy1B5nzHI4idq58AInoIWLJtSCHgi08Eravb2hA92D9ixIiAVXWe9ek57LDD0kzyjDUBYgK52FVf3wEDBqwhQgCabHMCt0mSBIF2mMN+DeEaKmqSpS/1BNFr6FJnVUPtYT4Zi/OI74RZMLuhNjCfBL8xjgA3gWrmiLnCJuprKwS+mcva2qlnjpirww8/PO666640U576rOSjI5N1u9YEVCABCUhAAiVKoKyp/HriiSeaSlWT6Ck0e5rEKZVIQAISkIAEJCCBZifgABKomQABRDKoyeImsMjDDwn4kglLUJE2Spb5WpMWgqkE9MaMGZM2E6RMd3L+EDBEpnpwkUBkvuOxRATBW4K2SZIE43KcLcuRM1y9uwQ8CRATWCfoWW+HWgSygDvLcsCyFrEaq8nSJnmHQDtLnhDkZqkS7MIv+NfYsZZKAtBkDZP5zZxR0M84tXSprOYGRU1jYgP12FQpXG2H8wa5atVpVnlD7CGDfrfddkuXe0EnNqGztnOHttoKc4H/2MW5TJD7z3/+c2oTuqmvrW999fBlrliWpCa2a6u/vvFtl4AEJCABCbQFAo0KbpOpkSSrH4jBPnfLzzjjjGC9N+5OU5ckq9uzO99kWmf13L2mDz/NopDxTT8eonHEEUekD2LJlacfk0GfJFn9wA0+OFFHP/Qlyerx6Idcrj0cJ8nq9lxdw4cPT8dKkiTohz6LBBpEQGEJSEACEpCABCRQ4gT4/Jx9Zs9c7du3b5qBTFCR4B1BvOxzOfKZXPUty0QQTCSLleAkQcraZPgMj06+KzA+n9fzGY8+9CUITDCYwCWFoHJma/UgKEtEVLcjOyaoToY5meAEqAlwEyRHP2s2Z3L1bXPHzHTU14d2ZPlOReGY5TMIBBOgJmhPQDazH0awghmytZXspgKZ7Ln62a+tT1aPz/jOmt3ZOGw5pp72TDZ3y9zxHS4bk2VjsvaG2pPNycMPPxyci3BAV3Z+Mf+cBxTm6tBDD42agsu0812Sc5a+ZNSjhwB9rk3UIYMsfTjOpzDnzBUZ9vTDlqxfLo/qbZmMWwlIoMAIaI4EJFCQBBoc3OaNF0+yD4p8AOAD6tVXXx2jRo2iKfjZFR8gkenRo0fwITBtqPhDPT/94o2dB4nw8BM+4FQ0xXvvvRcXX3xxcHecdt7w2SdL4q233grqOKZf9gAS7OFDHHr5UM0HJj5Q5dqT9UOGD4HIM966666bPvQl65fPhzn6WSQgAQlIQAISkIAEJNBWCLAOMYFoAohJkgTrF/O5n2Ag3wMIGu+xxx5psJugIPJ1seEzPu0EjAlSsl+9oANdBAcZl+Ak603nMx6f7QliV9dPsJJAI4FgbOc7CQ/0S5Kk+vCBLJWMzXcHxuZ7C8dkctPGgwJrs5/26iV3THT8+9//TpcaIfBJG75hDwHUTz75pLI7Y1x66aWBHP2wgfn49re/HfRjLpiTJFm9vEhtWcKVCit2CPQiR2Y7OtHNGIxV0VznP2RYR5o5wZYkWZ0ZzzH1tNekAP84Vxhz9913D74nZnKNsYc5Yj7RC4dMV/b9lHOHQjt1WXvuln65/DiP+WUCfXJtSpKq532ujrr20QEXfMYWvn/yfZXvtIzBWLTtt99+scMOO9SlyjYJSEACEpCABGoh0ODgNh8ACBDzIShJkuAOdq5u2j/66KM0IxoZ7qZn7dkHWY6zD5t8aOWYst1220WWvUE9H5bQwc8P586dm34A4pgPTPSnz1ZbbZX+HC1JVn+oyoLetFH44ECWBR8mkmT1B77sJ47oQBdt3bt3R9wiAQlIoKUJOJ4EJCABCUigoAnweZmgJYkilOrLVxD4pZ6CHPI4RECxpiVKCOohSz/kKFkdW47RgS7kKOiinkI/6ijIIEt9VtBBG3JZHVsCjdie6aIdOQp1bOmbK0sdctSx5ZiSOy716EU/cujK/Oa7EfvU0YYs/SkE4OlHHW3IUI/8rrvuGrltmR7aKbnjMy6y1FMyH9jmHjMOcsgzXtaODGMyRm497RzXVjJ76U/hOJNlDMZizKyOLcfI0nb55ZenPiJLG+PRRsnHHvqhJ3dc9FCoQw+Ffeoo7Ofqpi7TgywFGeopuTYxFrLUI5Pp4fxjPijsZ33YZrLopYwdOzbY0kZ2OTczWDcc3XwfJQud76b0s0hAAhKQQEkS0KlmINDg4DY2ZB9KyMxesGBB8DM06insv/DCC+mbNu0HHHAA1WtdevfuHQSu0YmyLEBNJgVBcz4kkKWRmwGAHB8OyGwgyI0MhQ8jtFkkIAEJSEACEpCABCQgAQlIoBAJlLZN/NqYZVzIFk+SJAh08z01u8lQ2t7rnQQkIAEJSKDpCDQ4uM0yIPxULkmSIIuaO8zcweaBMixHwk/oyEJIkiT4uRmmElhmuzaF4DY/HSRYnSRJvPbaa6k6MryzDwQsaUIlAfDMHsbO7Zckrq8NI0vbIFC+eFF8POKotLDfHF6veHNSzNxxQCy68/drqGfMfMevS88aiqtVLHv2yZixfhJsqzU1+HDV3Nkxe9huqT50sk9dgxXZQQItScCxJCABCUhAAhIoKgJkeZPtTfJVVsjoLionNFYCEpCABCRQAAQaHNzmTjI/wcregLm7jB9s+TkVP6HL2jnm52a8SZPtzRZZ9insU8c+etHBmzz7vNGz5Zh69pHNxuUnXRxTsjqeus54yNKH8Qm858ogy3jUscWGTJ6xOLZIQAJNQyDp3CV63XhHWtivS2v7rbaNDV+eGl2O/F5dYs3aRhB77pEHR7sBW8RG0xamhX3qaGvWwVUuAQlIQAISkIAEJCABCTQpAZVJQAISkEDpEygrfRf1UAISyAjMH3lempGcZTgTsCUzmQxlSpZ9ndXPO+ekNOubNuQW3/fHtP/0PrFGpvbyiePTDG5kydYma5vCPoV9xqV94W9+XSmbjVk9czuzAXkKffEjk8M2MsZT3UuX0BRLHnsgtQ95fE0rK/4wBnUU+qCjojrN9KYOWbafXn9l9Hnw+cpgPAH5db6yX6yc9WGsmv0RXSwSkIAESpWAfklAAhKQgAQkIIFmJ8BStiQj8kv/nj17ps9rS5LEbQEyYH6YJ+aLeWv2k8MBJNBIAga3GwnObm2ZQHH6vnTc3+PTX/8q1h31u+j45b2C4DEZyR2H7h0bf1Qeff7y9/jk1OPTgG/m4fJ/vhw9fzEqbVv20j9iyd/+N81mvn5xxIIrL4ksSIz8qvnzYoNxr6eyi++5MxbfO5bqGsvKD2ekWdrdfnRuLLp1dGpLriCB8Hk/ObUygxqbPz7luzWOR2Z4sk6nyu74gjy+EhDHxiV/vSf6vvFRWtpt0DcWXP3zYIzKThU79Otx4WUVe5//IygOk87fGh5kln/e4p4EJCABCUhAAhKQgAQkIAEJNITAaaedFkOGDIklS5bEZZddFu+++276vDZ+YV+4pbzN2sj8ME/MF/PG/DVkvpWVQEsRyCu4vWrVqpayx3EkIIFmIECwee4RXw+CydmyHysmvxYErDvtd1A6Yocv7RKdDz0yFlYEm8uXVESvK2oJfJf17hNlfTaIdpv0D7KYyWZ+Z2VFY7V/WVumZ+lTj60RQM66tN9iq3SXbU1Z0SvfezeWvTCucryOO++eyq+aPSvd8icbj/2sZL50GvaN6LjTrmkmN0Hp3mP+L5Y8eF98uPX6qc+ZfLbN+mXHbMnmJrANs+pBb9otEpCABCQgAQlUI+ChBCQgAQlIoAYCM2bMSJ/JxvPRCJheccUVsddee8W6665bg7RVhUKA+WGemC/mjfkjk5v5LBQbtUMCEMgruF1WVhZbbbVVvPjii/Qp+YKf+FvyjupgmyNANjWZzDi+YuqUNGBN4JrjliztB2xR53AEsQlwE1xmuZBZQ7cLjrG5zo41NJK9jQ6C7WRvE8CvQaxKFVndK6e/lwb7u591UZW2pjpQjwQkIIG2SKB///7+7LgAf3acJP4cPElkkCQySBIZJIkMkqThDHh/a4vv6/n6fOihh8bXv/71GD16tAHtfKEVmByBbuaPeWQ+C8y8gjdHA5uXQF7BbUwYMWJE/PjHP2a35At+4m/JO6qDbYYAWcwsO4LDi+66hU0QYCZgTCA5rSigPwTcyRRneZGNPypPl01h26URD5tkHW78Z3kVss7zcRM5ljuhsJ9PH2UkIAEJSKB+AmT9+LPjtvvzZufeuc/jHGizP/+XTXG/Pnh/q/9dsG1KsJTF9ttvHxdccEHbBFBiXjOPzCfzWmKu6U4RE8g7uH366afH1ltvnf6U5OWXXy5il2s3Hb/4iQV+4m/tkrZIoLgItBuwRaTLhXxreLoWNtnb7bcZWLl0B94sn/BisHxJ12NPiKRTZ6oaVLK1szM9NS0bkq9CAtsdhwwNsq3Jombt69wHQdamZyFLqixeFCxBki25krv0SWZbbf2zetYj5wGa6cMqK/Rl9W4lUFgEtEYCEpCABCQgAQlIQAKFS4CHEP7hD3+Iyy+/vHCN1LIGE2A+mVfmt8Gd7SCBZiCQd3Cbsa+//vo45phj4uCDD44jjzwynn76aaoLv9RjIX7gD37hH37W08VmCRQlgW4nnxU8UJHsbdbS7n3n/bFs3N+DZTtmH7J3+jBIHjbZGOc67LBjfLT/zoEe1qluTJZ1Ni7Z0mRar5w6JT7YtGuwPEmv626p96GO7fptUilP1je+sP42PrO0CQ+l7LjjkEAvQfNsPLcSkIAEJCABCUhAAhKQQIkQ0I2CIXD77bfHM8/aKAAAEABJREFUCSec4FIkBTMjTWMIS5Qwr8xv02hUiwTWjkCDgtsMddJJJ8Vrr70Wu+yyS5x55pnB2lInn3xy/OUvf4n58+dHMfyHndiL3diPH/iDX/hXDD5oowTyIUCQmKU1KOwT0O7z4PORPSAxO2bJDwrBYPRm9ZkcD2Xc8OWpkQWsxy6J4Jh6Cvs9L78hrUNP1o8xGZvCPvppZ8s46KMvOijsU0dbZgPylKxPdTlkaUOGcdlSatKD/j4P/SNggP6sH1v0ZIU2ZDK7s3q3EpCABEqNgP5IQAISkIAEJCCB5iLw6KOPpsmRzaVfva1HgORQ5rf1LHBkCXxOoMHBbbr26tUrWLbjhRdeiD//+c8xYMCA+N3vfhdbbLFFbLnlljF8+PC47LLL4m9/+1v8+9//pkurFcbHDuzBLuzDTuzFbuzHD/zBr1Yz1IELnYD2SUACEpCABCQgAQlIQAISkIAEJJAngddffz0GDRqUp3RBiWlMPQSYV+a3HjGbJdAiBBoV3M61bKeddoqzzz477rvvvvjoo4/ir3/9a3pnbs6cOfHf//3fsc8++0SnTp1i4MCB8bWvfS1OPPHEuOSSS+Kmm25KA+NPPvlkvPLKK/HOO+/ErFmzYsGCBbFs2bL0QSK54/CADeppRw55+tGfADX60It+xmE8xmV87MAe7ixhH3ZiL3Zjf+447ktAAhKQgAQkIAEJSEAC+RJQTgISkIAEJFAzAX41zxIWNbdaW8wEmFfmt5h90PbSIbDWwe3qKLbddts4+uij44orrogHHnggpk6dGgSWx44dGyz58aUvfSlWrFgRPLzxjjvuiIsvvjiOO+64OOCAA2KHHXaITTbZJHr27BkdOnSIJEmirKws3XJM/Re+8IVUDnn60R896EMv+hmH8RiX8bEDe7AL+8L/JCABCbQGAceUgAQkIAEJSEACEpCABCQgAQlIoPQJ6GGLEShriZG6du0a22+/fZrRPWLEiMrM7XvuuSeeeOKJmDBhQrz99tvx4YcfxieffBKLFy9OA+ArV66M5cuXB1sC19TPmzcvlUOefvRHT5a5jX4ytBmPcVvCP8eQgAQkIAEJSEACEpCABCQggcYRsJcEJCABCUhAAhJoLIEWCW432riysmjXrl2avd1YHfaTgATWnsBVV10V3CwaNWpUFWUcd+nSJWiv0uCBBCTQXATUKwEJSEACEpCABCQgAQlIQAISkMBnBMo+25bgRpckIIGmInDCCSekv6L42c9+Fn379k3VbrjhhsExv6qgPa30jwQkIAEJSEACEpCABCQggRYn4IASkIAEJNBWCRjcbqszr98SaACB7t27x5lnnpk+8HXmzJnBMQ925QGv1HPcAHWKSkACEpBAaxJwbAlIQAISkIAEJCABCUhAAiVCwOB2iUykbjQPAbV+TuAnP/lJukwQNQS12bJsEPXsWyQgAQlIQAISkIAEJCABCUhAAsVKQLslIIHiJGBwuzjnTasl0OIEyM4+/fTTo0OHDunYbDmmPq3wjwQkIAEJSEACbYWAfkpAAhKQgAQkIAEJSKAgCBjcLohp0AgJFAcBsrTLylZfNthyXByWt6aVji0BCUhAAhKQgAQkIAEJSEACEpBA6RPQw9YgsDpK1RojO6YEJFB0BMjSJlu7ffv2wZbjonNCgyUgAQlIQAISkIAEWp+AFkhAAhKQgAQkIIEmIGBwuwkgqkICbYkA2dqHHHJIsG1LfuurBFqTgGNLQAISkIAEJCABCUhAAhKQgAQksCaBUgtur+mhNRJoBIExY8bEd7/73Rg4cGB069YtkiSxfMagR48ecc899wTbJJFLkqxmwHnC+cJ5w/nTiNPOLk1EAP7MA/PBvCTJ6jlKErdJIoMkWZMB5wnnC+cN508TnYqqkYAEJCABCUigiQgkyZrv30mSNJF21UhAAm2ZQJJ4fSn2+Te4XewzqP1NSuCyyy6LDTbYIO64444YOnRoEOT48MMPo7y83CKDOs8BzhPOF84bzh/OI86nJj1BVVYnAXjDHf7MA/PBvPj69fpV3znAecL5wnnD+cN5xPlU5wlXdI0aLAEJSEACEpCABCQgAQlIoPQIGNwuvTnVo0YQmDBhQgwZMiTYPvroo3H//ffHCSecEDvssEOaud0IlXZpYwTI/OR84bzh/Hm04jzifMrOqzaGo0XdzeUMd/gzD8wH89KixjhYURLgPOF84bzh/OE8yj2vitIpjZaABCQgAQlIQAISqJ+AEhKQQNETMLhd9FOoA2tL4JFHHok999wzvv/978ddd92VBrTXVqf9JUCgjPOJ84rzi/NMKk1PAK7whTO84d70o6ixrRHgPOJ84rzi/OI8a2sM9FcCNRGwTgISkIAEJCABCUhAAoVGwOB2oc2I9rQoATLzvvWtb8Xtt9+eZmq36OAOVsoEKn0jE5Tzi/OM862ywZ21JgBPuMIXzmutUAUSqEaA84rzi/OM861as4cSkIAEJCABCUhAAhKQgAQk0MoEDG638gQ4fOsSOPHEE+Pqq6+Ob37zm61riKOXNAHOL84zzreSdrSFnYMnXOHbwkM7XBsiwPnFecb51obc1lUJSEACzURAtRKQgATyJzBu3LhIks8f9jds2LCYM2dOvQroN2LEiFi8eHEVWfqig/YqDfUc8EyWmvTR7Y033ojBgwdX2pkrxzi5x8g3R8FPxmG85tCvTgkUOgGD24U+Q9rXbAR4WNhmm21mxnazEVZxLgEyQDnfOO9y691vHAE4whOujdNQBL00sWAIcJ5xvnHeFYxRGiIBCUhAAhKQgARyCPzP//xPEGjNqSrqXQLKJ598ckyePDnKy8vTcswxx8T555+/RtA6qv03dOjQuPHGG6Nz587VWpr2EN6HH354XH/99al92NmvX784/fTT67WxKS3BT/zF76bUuza6FixYEFddddXaqLCvBPImUBLB7by9VVACOQTIxOONMafKXQk0KwHON867Zh2kjSiHIzzbiLu6WQAEON847wrAFE2QgAQkIAEJtGkCOl+VwJ/+9Kf40pe+FGeeeWacc845VRuL9IgM69tuuy0NGm+99daVXgwbNizmzZsX06ZNSwP5RxxxRGUmN1nLZC+TxZy7zzH1SZKkgfFKZRU7BKezrGt0M25FdfoPHUmSpFnZr7zySlpX/c/s2bOjb9++sc0221Q2HXbYYfHvf/87tTGr/OlPf5pmdueOkWtXkiTBeMhjE35dc801aZ/BgwenvtKGDL4wz0mSRKYv00V71h+5JFmd9U49/SncNEiS1X6hZ+TIkVQ3WSGofeGFF8Z6660XF1xwQZPpVZEE6iJgcLsuOraVLIExY8bEkCFDfHhkyc5wYTrGQ+o47zj/CtPC4rAKfnCEZ3FYrJWlQIDzjfOO86+I/NFUCUhAAhKQgARKlMDYsWNj2223jf/3//5fTJw4MVatWhUEhEvBXbK18SM3aMwxAVM+i+UGvKmvq1x55ZVp86JFi4LM74ceeig9JpB96qmnpgF0Mq7JeiaZgUAxAWKyxp955pl47rnnYv78+Wmf6n8y+/bbb7/KADS2MQZb5G+66aY45JBDgvEHDBgQN9xwA9WRaxfjMB7j0jhp0qT49NNPA7vOPvvsINCNXbShb9CgQWkbNmf6aMsK/ffcc89U5pJLLknPC/qj/9Zbbw34PvbYY/HPf/4z67LW2yyovcEGG6QZ2x06dIhf/vKXa61XBRLIh0BBB7e5OK9cuTK9SOfjjDISyJfAgw8+GN/4xjdyxN2VQMsQ4Lzj/GuZ0UpzFPjBsTS906tCJsB5x/lXyDZqmwQkIAEJSEACpU2ApR4233zzdHlNgpSffPJJEEjk+SAEGD/44IOYOXNmfPTRR2lW88cff5xmO9O2cOHCdLmMpUuXxvLly4N4CwHUQiRGILhLly6paQRlyWBOkjUzkVOBWv4Q0J0+fXoa1Gbpjh133DHgFBFpgJduWYCajGuywglCk5G92267BfL0IyiObPVCsJ3PhgSg0ZMkqzOisTeTPfDAA9PMbvQQcKa+JrsYb/z48TTHhhtuGNjDwbCcbHWO0Ucd+8i8/vrrMXfuXA4rC/133nnn9HjfffdNt/xB/x577BEE3rG9Nr+QzbdwXpGpnQW1lyxZkp5j+Hvaaaflq0Y5CawVgRYJbnMBffXVV+P+++9P1z266KKL0gvKoYceGvvss0/6E5ott9wy/TlHz54903WR2rdvH+3atUsv0mw55sVBe9++fQN5fnpDf/RwgUIv6wwxDuMx7lrRsXPJEuCizptHyTqoYwVLgPOO869gDfzMsCe33z4mnXvuZ0eFtYEfHAvLKq1pCwQ47zj/2oKvjfGxkK8bjfGnufrwhZcvgbvvvnvwuTZJkvRnx0lSoNs2bBfzwzwxX8xbc50T6pWABCTQEAIscUHAlqBi1q9jx45x9913x6677ho77bRTkNk7cODANIi5xRZbRP/+/YO1oAl6EtTk+ta1a9dYZ5110rhLkjTPe1BmX2O2U6dOTbOd6Uswlux0As/EfqjLpxBERk9tsmRY9+nTJ30fJjhNxjOB7br61KTrqKOOSrOkuVHA+ttkhJMZjmxukJ5jCn7kjkGsi/mhjdK7d+/ALvarl5r0VZeprf8777xTXXStj3k2zeWXXx5ZUBuFZWVl6Y2VJGnYebX33nunc5EkDeuXJGsnj82WliNw3XXXxf777x+cp0mSpFuOqW+sFU0e3OZicPvttwd3rg466KDghcfFc/jw4enPLyZMmBAEqrkDxgXg4osvjptvvjkefvjh9CcR77//fnpXkbuIXBjI3mbLMXfRaOenE8jTj/7oQR960c/PMhiPcRkfO7AHu7CvsbDsVzoE3n333eBud+l4pCeFQCAfGzjvOP/ykW0tmVd/MCLavfdOTLv+uvjgj39sLTNqHRd+cKxVwAYJNBMBzjvOv2ZSX9RqC/26UShwyWBieRu+APKAUs4nPudayiuDAoXEgvlhnpgv5o35K5RzSTskIIG2S4AAJUtYJEmSBqchQQY2S18QL5kxY0Z8+OGHMWvWrCBQS1Yv2d0srcFSFwRWua4tW7YsVqxYkf5SvrmuvdjWmEKgmX5kprPNp+QGizN5gsbEhLLj6lsC5fDI/CeATiC9rj65Oli/mpJbh+29evVK2efW5+6TkZ47BkF4blhkMswZc8cxW47Zp+AnNrNPG5n57OdT+Cybj1xDZEaPHp2u9d6pU6c0UZW+xPEIXGZc893+/e9/b5XPA9jcmGKfhhEgEZmbbSzDww2gt956K51vthxTTztyDdMcUdbQDtXlX3rppbjiiivSJR7WX3/9+I//+I80Q5vA8g9/+MN44okn0js4r732Wvztb38L1gciw5qLyLe//e3Ya6+90ruKvMj4GUP37t2Du45JklQZKkmStJ525JDnbiT90YM+9KKfcRiPCzbjYwf2AAj7sJOfFmM39lcZyIM2QYCs/m7durUJX3WysMfpVy8AABAASURBVAhw3nH+FZZVn1vz7k03xayxd8Zm7RfFgIoy4aijYv7EiZ8LFMAe/OBYAKZoQhsjwHnH+dfG3K7X3WK4btTrRDMLEGggA5gvowRM+QzKZ9h11123mUdW/doQYH6YJ+aLeWP+mEfmc230tsG+uiwBCTQhAeIhV199dRDI/t73vpdmupIM+Nvf/jYIfDbhUK2mivgNS2YQxM/95cyf//znNKaUGUbyIgFwgsNPP/10Vl25JbjNUiCsRY7Myy+/XNmfIDS8qKMDQWqW+yDjOreNfvRHpnph6Q/WsM61kWVKCDjXlnmNDuwiUxu96MeG559/PtBHO8vKZL8WZLvZZpvFpptuSlOQbY7PHDz++OPButsEkjmur6CfACL24ifj19envnZidDyUkpspPNSUIDfBe+Jx1157bX3dbW8jBEg2PvbYY4NzgucFEJvldY77bDmmnnbkkKct31KWr2CuHC9UFrQng4HA8tSpU+P444+PKVOmxNtvvx0YdN5558XXvva14EWY27el9xkfO7AHu7APO7EXu7EfP/AHv1raPseTgAQkUCgEPn722fjXSSdF/1hQ8SE5onuHiC90WhEvf+c/Y+XChYViZonboXsSKC4CXjfymy+W0Pv6178eZDcRMM2vl1KFRIB5Y/6YR+azkGzTFglIoG0S2HjjjdNfxxPXIBhEtux3v/vdkoHBL/TvuuuuOPzwwyu+myRpIRhLtjIBXTKs+YU+a0hz45Ff89fkPDEf6gm40p8+HBNQGzVqVBBAT5IkTdrkmHoKS1Khm37o7tGjB92qFGz49a9/vYaNBMrRUUW42sFZZ52V1qCfcVjOBH1U8qBQgvVJkqQPg7z00ksrs6KHDx8eLN+QJEmQ7Z3poV99Bf2cKwTv4cv63fX1ybc9N8h9xhlnpL8K+MlPfpJvd+VKmADLRnOzKks4rstVgtzIIU+/umRz2xoc3GbJD9ZuevHFF9MnoL777rvp02X5CUxNL/bcwZp0fy2UYSf2cvHAfh7IgD/4hX9rodquEpCABIqSwPJ582LCEcOjf9fy6NL+cxf6rFNxPGd6TDj8sM8r3ZOABCRQQcDrRgWEPP6ddtppsf3228cFF1yQh7QihU6AeWQ+mddCt1X7JFBSBHSmVgJk9P7+97+P5557Lp588sla5YqxgWAsS4Vky1qQFZ0bNCZASxsyrP3MM9jIiib4ne1zzD5ybFkfmnZ45OpHB8fUU5ChDwXd9EMXbbmFPvRFjpJrIzoYM+uHvQTN6U8dbfShIEt9VghoU5+rjzbWS2e+aaM/eijsowN7xowZExkn6mhDhv7YQN977703yOBmVQTqm6pkQW5uQpDR3VR61VO8BH72s5+l8eMvf/nLeTmBHHFa+uXVoUKoQcFt7mhxp4so+p133hn8vKNCR9H/ww/8wS/8w8+id0oHJCABCTSAwMQjj4ju82dF74pgdvVuX2i3JBY/93RMPuec6k0eS0ACBUigpUzyulE/ab40/uEPfwi+ENcvrUSxEGA+mVfmt1hs1k4JSKD0CfAwydL3Ug/XhsC4cePSDPgkSYKMcZZGIdi9Njpr60uQm2VKamu3vm0QmDZtWrB8Dtn8DfEYefrRP59+eQe3WbaDD3DcDeQnGfkoLzYZ/MI//MTfYrNfez8nwF2e3KdHf95SZc8DCUiggsCbF14YS55/Jvq1X1pxVPO/AcmCeH/0jTGtIkhTs4S1EpBAWyLgdSO/2Wa9QLK9WNIivx5KFQMB5pN5ZX6LwV5tlIAEJCCBlEBR/KmeeZ1rdPUs7Ny2fPbpT9Z2VrIs8nz6KiOBxhB46qmn4oADDmhM17Qf/fPpnHdwm58x/PKXv8xHZ9HL4Cf+Fr0jbdgBLtI8wIGtQe42fCLoer0EZvzxjzH12mti01hQp2y7JKJ/RYD7leOPj7kVd/zrFLZRAhIoaQJeN/Kf3kcffTQOPvjg/DsUjKSG1EeAeWV+65OzXQISkIAEJCABCbRVAjwTYMstt2yU+/Sjfz6d8wpur1y5Mt58883YZZdd8tFZ9DL4ib9F70gbduAXv/hFtG/fPniKNE+TNsjdhk+G5na9iPV/OmlSTDz22OjfbmF0yOPdoGv7iAHdIiYcdlgsnTWriD3XdAlIoLEEvG40jNzrr78egwYNalgnpYuCAPPK/BaFsRopAQlIQAISkEDTEFBLQRLII5wR0a5du9T4m266Kd2W+p+24mcpz+Npp50WnTp1ikWLFsWSJUvSxesNcpfyjOtbYwhMGD48Nu64PLp3yL/3euuUx7qL51QEuL+TfyclJSCBkiHgdaNhUzl//vxgCYuG9VK6GAgwr8xvMdjaWjY6rgQkIAEJSEACbZvAgAED4u23324UBPrRP5/OeQW3M0WsQ33SSScFTz3N6kppi1/4h5+l5Fc+vuy1116VDxZIkqQk9ufOnRtlZatP8cWLF6dBbh4AxBqJ+TBRRgKlTICM7Y7vT4kNOq5ssJsbtVsaK/81IV457rgG97VDjQSslEBREGiK68YZReGpRkpAAhKQgAQkIAEJSEACa0vgK1/5Sjz88MONUkM/+ufTeXXkLx/JCplHHnkkevToEdtuu226sDfrUuf75MqK7k3wr+lVYD9+sMA5fuEffjb9SIWt8e9//3tkDxUole16660Xq1atSsF37tw5zeQ+55xzYvTo0WmdfyTQVgn8+9pr45P/uy82KVvYKAQryyu6LV8eC179Z8WO/yQggbZAoKmuG5slbYGWPkpAAhKQQNMQUIsEJCABCRQzgU033TT23XffdMnghvjBEsP0o38+/fIKbrPmNso22WSTuOyyy2LSpElx3HHHxfjx49Mgd69evWL//fePM888Mw0c8jTLDz74gC4FU7AHuwhsYif2YjdBbfzAH/zCP/wsGMM1pFEErq0I3pGtnQW1mfNZs2bFyJEjo3v37o3SaScJlAKB2Y89FpPPOy82KZ/XKHfmLYuYtLhz9D7+B7HHSy+H/0lAAgVCoBnNaMrrxg+5OdaMtqpaAhKQgAQkIAEJSEACEigcAj/96U/TePGzzz6bl1HIEcOjX14dKoTyCm5XX3O7T58+ceSRR8Zvf/vbmDx5crzwwgtxyimnBGsav/jii3HBBRfETjvtFF26dEmzvL/61a+mwfDzKgIqRN9vueWW+Otf/xpPP/10vPLKKzFlypQg+PzJJ58EAckVK1ZUmLbmP+ppRw55+tEfPehDL/oZh2A145KNjR3Yg13Yh53Yi93Yjx/4g1+M6prbUCju8uMf/ziWL1+evoCqB7WL2zOtl0DjCaxasiQmnXZq9OuwNDqvfpRCg5TNWNou3ivrGTvcOSa2vfrqBvVVWAISKE4CXjeKc960WgISkIAEJCCB1QT8KwEJtC6B7bffPm677bY4+OCD01hwXdYQ20UOefrVJZvblldwO+vAWtSsSc3a1Fkd2y9+8YvxzW9+M84999z4zW9+E2RIz5gxI2bOnBl/+tOf4qyzzoq99947faDO9OnT44knnkjlCDYfd9xxcdBBB8Uuu+wSW2yxRRog79q1a7Rv3z5dLzlJknTLMfUEppFDnn70Rw/johf96667bjoe4zI+dmAPdiGHndiL3ZHzH37hH37mVLtbhAR+/vOfx5w5c8zULsK50+TmI1DWqVOs/7Wvx/x2XRo0yNKVEVNWdotVu+0Te02aHH0POaRB/RWWgASKl4DXjeKdu0ZYbhcJSEACEpCABCQgAQk0OYGjjz46br311jjttNNi+PDhaZCbmB0DsSWoTT3tyCFPW76lLF9B5FiLmjWpyYZmOQ/WqmbNatpqKiz/MHDgwDjwwAODIDQZ1VdddVXcfPPNcd9998WTTz4ZEyZMiDfffDPef//9NBi5YMGCWLp0aZClzXrJrP/MlmPqacdx5OlHf/SgD73oZ5zjKoLmjMv42FGTfdRhP37gD37hH37SZileAvyEoa55L17PtLwwCBSvFdv86lfRYdCO8cHS/FK35y5LYvLidaLvmefGkIcfiXX69i1e57VcAhJoFAGvG43CZicJSEACEpCABCQggZIgoBNNQYCMbFbg2GOPPWLUqFFBwnGSJOmWY+ppR66h4+UV3HbN7YZiVV4CEpBA4RIYdMeYmJ10CdbPrsvK91Z0ipk9+8Uuf3sgvnj+BXWJ2iYBCZQ4Aa8bJT7BuieBpiKgHglIQAISkIAEJFAHAZaJfvTRR2Pu3LmpFFuOqU8rGvEnr+C2a243gqxdJCABCRQogU5f+EIMuvW2mFYRvF6+qnYjF61Mot/wI6LPPvvULmRLownYUQLFRMDrRjHNlrZKQAJ1Ebj44ovj4s/Kz372s6Bkx9mWOkp2nG3zrUO+umz145pksrraZKvXc0yhXymXuubTNglIQAISkEBewe0ME2tRsyY1a1NndWxJJWcNa9ayZk1r1rZmjWvWumbNa9a+3nvvvWPdddcN1sRmbWzkWCub5UNYO5s1tFlLmzW1WVubNbbLysoiSZJgyzH1tCOHPP3ojx70oRf9jMN4jMv42IE92IUcdmIvdmN/VvAL//Azq3MrAQlIoBQJsG72gB+dFu+trH397c07LI73brwhpo8dW4oI9EkCEmggAa8bDQSmuAQkUJAECAZnhrEEJiU7zrbUUbLjbJtvHfLVZasf1yST1dUmW72eYwr9kiRhk5YkWb2fJEn6fTqtrPiTJGseV1Sn/5IkSbfZnyT5/DhJVu8nSVJFH7JJkrBJ65Pk830qk2T1ce5+kiSpbPU6jilJkrCplEkP/CMBCUhAAhKog0BZHW1rNLEWNWtSszY1a1SzVjVrVq8h+FkFax6z5jVrXxOEZi1s1sRmbWzWyGatbNbMZu1s1tBmLW3W1GZtbdbYZq1t3qzZckw97cghTz/6owd96EU/4zAe4zI+dnxm0hob7McP/MEv/MPPNQStkIAEJFBiBLb+5S+j/aCdYkYt6293qHiH2LRsYUw89piY/8orJea97kigFAi0vA9eN1qeuSNKQAJNT6AUs5x/+tOfRuZXts+Wkltf/Ti3LdtnW5McdRTas5Ids6VQX31bva56e3ZcXY5jStOfAWqUgAQkIIFSIlARusjfnU022SQuu+yymDRpUvqAyPHjxwdB4V69esX+++8fPMRv9OjRQYb0Bx98kL/iFpDEHuzCPuzEXuzGfvwgGI5f+IefLWCSQ7QkAceSgARqJDB4zNiYW9at1vW3u3eI2KTzqphw+GGxatmyGnVYKQEJtC0CXjfa1nzrrQQkIAEJSKDoCGiwBCTQYgS4CZkkq3+VkyQN22JkkjSsT5Kslmdc+lMaFNymA6VPnz5x5JFHxm9/+9uYPHlyvPDCC8HC3ywZ8uKLLwbLhOy0007RpUuXIBv6q1/9ahoMP++88+Lqq6+OW265Jf7617/G008/Ha+88krwNEyCz5988kksXrw4yNJmnOqFetqRQ55+9EcP+tCLfsYhWM24jI8d2IOir4AaAAAQAElEQVRd2Ied2Ivd2I8f+INf1cf0WAISkEApE0jKyqLj+n1i0ara3w76dFwVnWdPjwlHHlHKKPRNAhLIk4DXjTxBFYmYZkpAAhKQgAQkIAEJSKCxBAgys+pGYwpjNqYffRiX/pTaoxm05llYu5o1rFnLmjWtyZBmjWvWumbNa9a+Zg1s1sJmTWzWxkaOYDNBaNbOZg1t1tIm8Mza2qyxzVrbSZK02Jrb4X8SkIAEaidQci3z//nPeHbXIdH9o2mxUadVdfr3hWRhzHvkoXhr5Mg65WyUgARKm4DXjdKeX72TgAQkIAEJNCWBHj16BMmJTalTXYVBgHllfgvDmmaxQqVFRKBJgtu1+cta16x5feCBBwZBbDKqWRP75ptvjvvuuy+efPLJYM1s1s5mDW3W0mZNbdbWJkubtbaJxrPlmHrakUOefvRHD/rQi37GYTzGZXzsqM1G6yUgAQm0RQKzH3ssnh06NHp//H5s1GF5vQhmLCmLZSvLo9s229Qrq4AEJFCaBBp13ai4b9bV60ZpnhB6JYFKAu5IQAISqJnAdtttl/5av+ZWa4uZAKsoML/F7IO2lw6BZg1ulw4mPZGABCRQOgSmjxkTz331q7FJ8mmsv055nY4tWRnx9rLOsWrXvWKft96Ojb7znTrlbayHgM0SKFICDb1uvLW0c6ysuG7s/eZbsbHXjSKddc2WgAQkIAEJrB0BnnV2//33r50SexckAeaV+S1I4zSqzREo2OB2m5sJHW4zBMaNGxeDBw+ON954o06fR44cGXfccUcqQ58RI0bE3Llzgy3HaUMefxjniCOOCH7xgDh90TFx4sQ455xz0nXuWcueOtqQybcgT7987KpuR+4YmR7syK2vbR85xqUffuEf+muTt/5zAu9cc028+v3jY+se5dFrnc/ra9qbsyRi0oJ2sfF5F8aQRx+PdTbaqCaxoqvjnBk2bFhw/mTGZ3WcV5xfWX1jt5m+3DEaq6t6P3S25jUks4fXHHZUZwY/6mhDJpNvqi06ec3DuKl0qqduAg25bsz+7LrR7ycXxa4V141OJXLdqJtQ87XyWYBSfQTqKNXrm+qY6wyvY17PuTo5pp723Pq13ccX9KK/Nl285nntcw1ADnns4Jh62mvrW72efvRHT/U2jyUggdYh4KilSeDoo4+O0aNHuzRJiU0vS5Iwr8xviblWrzvXXnttvTIKtDwBg9stz9wR2zABvkT95S9/iQMOOCDGjx+fN4mhQ4fGjTfeGJ07d867T22CmS4CT5dffnmT6MQu7EN3beM2ZX1Lj9eUtre2rvd//7voU7YsunWo3ZJV5RHvLukQczbcPL781NOx5Y9/XLtwM7SwvBRLUDWD6hpVEhA56qij4phjjmmy11mNAzVBZSFcQ3Ld2HDDDdMvK9OmTausZp8PvLRVVjbhztZbbx1jxoyJ9dZbrwm1FpWqFje2IdeNudl147zzWtzO1hiwua9X++67b3ojjutU5h/7BGdpy+qKeUtwmmfy4APXD7b1lWL4HMD7GOdHfb7YLgEJSKCUCfC57b/+67/SpKpS9rOt+UaSHPPK/LYV3//whz/EF77whTjzzDNdaqcAJ93gdgFOiiY1FYHC05N9aTvyyCODn/HwBTUq/iNgRQbR8OHDI0mS+OlPfxoXXXRRcCeU7G2+xNKOXIV45T/qCVLzxZA2ZJIkSXXQVimYs4O+JFktk/XNml977bU0qzxJksqscXSTEVWX7mzsbEz8IjM2SZJgy3E2xq233praV33srD3TNXLk6gcXojNJVtuLDbRT2H/88cfj/PPPj7Fjx8bhhx+eZsNnbUmyug/90Z2PH8iVetn5f/8S83puGLOXt6vR1YUrIl5b0CG6fufo2PvtKdFr992jpf+78MILo0+fPsGW4EBzjs/5wjlEYJsAN2Nl50p23nIOcb4hyz6vB0qSJOnrBXn60Y5ckiTpeUldVpDhnE+Sqq+JuvRlfXO3hXANybWnd+/eseuuu1a5WceNO+poy2TxM0lWvyaTJEmDdbRRDzM+ICfJ52wylmSEZNy4dtEHlvBnfujPPiVJqs4H7Vx/kiRJf/GCDH3RYWkYgey68VEBXzca5lHTSXOdas7r1TafrVc+efLkSqOzfdo4p7PXCOc75z2CvDZ49gxtvMayX1glyerXYfZ6QjZXB7K8/qin8HkkST5/bVKXWxgnSVbrTJLPX9vIMEaSrH5d8hrP3tdpyy1cM/bcc8+g3H333ZVN2IUPlK9+9avpl8ns/Z51PrGV8Ss7fLbDOLThBzpgkCS1+/BZtybb8L7FecENuAsuuKDJ9KpIAhKQQLESuPbaa+PVV1+Nn//8583sgupbggDzyHwyry0xXmuP8fvf/z422WSTOOWUU2LmzJnx3e9+NwYNGtTaZjl+NQIGt6sB8VACzUmAL3BcCPmixcMXsi+o2Zg8AJWHqP7sZz+LSy65JG6//fbIAm6ZTLblC91tt90Wzz33XHDH9Morr4x+/foF/Z955pk4+eST02BvJs826zN79uxU7tBDD43cL5Ivv/xyqo/+V1xxRWX/SZMmpV860Y1djMuXRnRWL9QTLOSLHfIEDW+44YZUDD0bbLBB5djXXHNNuixK2ljxZ9GiRXH66aenGbT050sp48GJtgqRwE+2lHXWWScuvfTS4KbAXXfdVS8HxufLM3ahty4/0F+KpcsWW8SujzwaszqtFx8tW/MtoENFVXn7dtFjxx1bzf1f/OIX0b59+7j66quD84VzgWBBUxvEOcX5xuumttdZTWMSXOHDDf132223ytdQdm5Sz3n/0EMPpd0JNp166qlx/fXXp+c+v3DgNcJrBYHa9NFWvbT2NaS6PRxvvvnm8fTTT6evZXwi6DRkyBCa0pL7Oua1x3Ut97V30003pR8QaYNNdr2g85///Od47LHHgmsAN8bQRX1uqY0fetCHXl73vP5z+7mfP4HK68Y6hXvdyN+bppVs7usVAVLOY27mZpazzzWGY64tZ599do3XFr6A8d7IL6seeOCBys8IfAZ4uuI1y7WJcvHFFwdyvFa4HvK6QzevzUMOOSS4pg0YMCB4TVGfFV6PvJfy+qRv7mubNl6ztPEa/uc//5l1q7LNrhk777xzDBs2LMjgxqZMCB+42f/II48EWdDZ+/1WW22ViVTZEtjmmoTP2A2f2q69VTo2wQHvU7xf8b6FrR06dIhf/vKXTaBZFRKQgASKn8A999wT//d//xcnnHBC8Au/4veo7XnAvDF/zCPz2RYIkKn9wx/+MN5///3081CSJHFeG/l1YrHNb0UYo9hM1l4JFCeB3C9weMDPifmCyn5W+EKW7de1JcP6uuuuSwO7nTt3TtfTJnCNTvrtWBGY3K0i6MYXWI6zwhfkBx98sPLn/NXHIwCEvm222Sa23XbbrFuwvABfPKnIxmC/pkJm6bx58wIdtBM05Mse+/Xp+dWvfpUG0bETeQJ5m222WWy66abp8il8meeLLyxpr174QlwXh/rGr66P41Is3SrmdshDD8fM9j1jzvKqbwMdKw63WmdJvHHeufHezTe3ivunnXZadOrUKf0AsWTJkjSgQbCA84jgQVMZxfJABG8aqo8sQs5vXiu8ZujPOcm5yTlKPa/BE088kaYguMMOfdgedthhwWuEwAvHNemjvnphDALHua/Flr6GVLeJY64V+MNrn0Jd//792aSFm28E+tlSQZCMbVbwf1hFUItj2Lz++uvp8wU4hifBPfruscceVTLEaafQH7Zwz+aDawF60IcM+rGTfUvjCHDd2PXhh+PDdoV53WicV2vfqyWuV7zvcn3hGpCd21wHeI/v1atXcH7jCef7v//978heh3379k1/BUNbbuE1RfCXLdennj17pu+zUfEf11netyt2o6bXFvVZ4XVZ22ub929es8gwDq/lrF/uNrOV93nkCK5jUybD+zaZ8dlxXVuC6bRn9md6uD5QDx+uVdm1l7qmKLwvwY33KYLavG8xV1yTOD+aYgx1SEACEih2AhtvvHGaRNWlS5fgcyI3Zp988kkD3QU+sQS0mSfmi3lj/kiuYz4L3PRGm5fbkc9fuZ8bVq1alf5qlV+oUvjswucUyvrrrx8UPg9Q+AxD4fMYZaONNgoK7Ch85qEQQKeQHU7hMxEF3hS+OxEToRC/2WeffYJtIRUSJXK5tcZ+RRijNYYtjjGT5POfWSZJae/vvffexTEpRWwlX+AerggM8CUrSZLgSx+BWL6oZm5x4cr269qSYc2FL/vilsmiM0mS4E2HoN3UqVOzpnTLly1+qpskq89nlj1JGz77U9v4XLi5YH8mVueGL9sff/xxjTJ16cHeLbfcMl2/CjszBdTjT5KsZoZPue2ZXO62Ng51jZ/bvyX2k2T1HCRJ62x7Dh4cp8z9OCbPWxWzl1b1uFO7iM07LIqXvvdfsUcr2cdP6MvKVr9FMd8EC1gjnmyBqtY2/oiMQ85XXof8fD5fTQMGDEhfY7nyfOiZOnVqblWVfQJAvIaSJAmuAWQRMzZCNenDpiRZfW4QuOI6UQjXEOytXvhQxy9R8IeAVvfu3dObUblyZFMmyWp/eH3mttXkf9ZOW7Zf2xYZrhG57djCOZRb15T7SbLal9wPcuwnSWnXX33vvbHrQw/F+6u6xJxlSRWk2XXjlf/3/crrBkwyIfaTZHUf9qvXJ0kSxVj/la98Jb0Z05zXK64ZBGW5BnCDOgtGc57nvt9yjeF9LmOb+9rIAr5JkqRLg3GNQa6u61Zuf2RrKrW9tt95552axNeo45rBL8V4DSdJki7J9vjjj1fK4Q9+VVbUssM1lSa+hHK9ZJ9S17WX9qYovC/x/sT7FO9X6OR8wI4kWc07SUpym55LSVJ8vu21115Mk0UCEmgFAixl8cILL6SJLGTAErxLkuK7jiRJ27CZ+WGeSDxi3pi/VjhtWm3Irl27Ro8ePSrH55dqcJgyZUpQ3nrrrXjzzTfTX7wTm+HzCAk2JCP+61//SpfjITmJMmHChKC89NJLQXnxxReD8o9//COef/759ObPs88+my7fyC/p+WXsU089FdxceOKJJ4LCr+H4vMy2kApLtVRCaqWd1ZGDVhq80IflxG0rhRdMoc9HsdvH8h8sA5J7TpGhzBfVhvpGBtTxxx8fZG/z5Yn+ZG9xQc3Vn32ZpZ2S/dSYQBxy/ISY+qYsfAnFlobqJMsVvwiMZXaigwAktmYFXnzZpa2mwtj1caipX0vXZf605vbN8vLY75ln4v3lneKT5UkVBF3bR2xb8T5+XkWAeebf/pb+5L0lbSVgyp1xjCL7jQ9UrNnKGszUNUUhG5JxRo0aFWT88TP6mvTWFfzJ5AnMEAjKjqtuIzi/s9cdHCdOnJguo1NdLjvm2oAchXMeOwvhGpLZV30Ly7/85S/p8iTs57YTRKMQiMMfPqzltsMXNtQhkxuso416AkYErdjPp3Adqus6kY+OumTwg3Lxf/axdQAAEABJREFUxRdXirFPHYX9rIF96ijsF3v9urvsErs+8GBMW9axxuvGF7uujOy6UZO/+F9TfbHy4UsHr8/mvF5xfSGgzWc1vujwXsl1kfOc9zyYUnj91HVTh+xiOCPH5weueXVdt9BZV+F1TUEfenNf22QT1dWXNj6/sEQR/ehPQRdfCrENmXwLv8w49thj019/5S6f0tBrb77j5crxvsT7E+9TzAttnA9cg/DJUt7inyHqY/73v/+dabJIQAKtRIBf9XBzlAxgbt7W95q1vfWuo8wP88R8MW+tdMq02rCzZs1Kn/nBZzGC3Ny85nMGn78ovNdT+CxI4bMZhQxuSr4Z3GRuU0hgpJC5TeHmAoXPaxSyt7lBy7bQSqtN0mcDF1Zw+zOj3Eig1AjwBY4vgNWDPnz544sqgZuG+sybC9mSWeCLfYJf6OFLIet6MybHNRVs4ktlTW1rU8fFnOAUAWb0kBFLtjgZTRzXV/jZ8P33358utcLPrvnSiz/0400VXbXx4g2loRzQ25ZL76FDo9vmm8eiFWtS6N4honfnJN668II1G5uxhowA5pggAcGCM888M/hgwfx37969yUfmtURQhLVZeV0wAHfdOYexg9codXUVbGVJDF5T9OHXFfzqgD5kXRKkpY5jXhNZNjbH+RTs4vVcSNeQXLt53fPLFPzE39y23H3YwCi3jsxKWFNHxiaBfT4kcgx7+pCxynILXBOor69UvxZwnWRO6+tne34EuG5033yLgrpu5Gd500u1xPUqu74QqM19jfG64/2W8xvP+AzAFx2+DHGcW7h+cu3J6giW05/Ca4vXGG3IUdhvSOF1mvva5rWavX9z/cpty/Rmr/vcawZfHrGNjO5MriFbrq1ZcBy98Fqba28+Y/O+BDPep3i/4n0LP/jcw/mRjw5lJNBmCei4BCQggQImwPs5z/7gPf6MM85Inwv161//OsjKLmCz26RpBrfb5LTrdEsTqOkLHDbw5Y+foJDFyXFuIfDNsiG5X0Zz29k/6aSTgkAwwd+zzjorfRBTkqxe9oB1sQgSIZcVvvTxRY+LNFndP/jBD9I+fCnNZNZ2S1CJTFgeaJkkSfCFloc+8mUvH90EGg8++OD0wVXs82bCF9QkSdKf6KCLL/qZLnzhi/Dhhx+e/hwoHw5ZX7cR/zrpB9HuvSmxcefyKjjmLkvi9RU9ouO+X4sdbrm1SltzH/z4xz+O5cuXp3fJ+SBB0IDgQXOO++1vfzsGDBiQPsCVYA+vH5bP2H333YP1s/MZGx3IcU5y3qOD4+qvCX6Cz2uEetrzKYVyDanNVoJpu+22W3DNqe4X/GALV3gedNBBVdYc5wFxZJEmSZJej3gNZ+OwDh08uQZwLeCakLXVt+X6yA2BJEnSmyNkdtbXp5DbC8m2QrxutBaflrpe8Xlh0KBBVV5jvNa4lnBNSZKa3yMzLrweuC4lSZKuw032N/15TfHa4jWWJGu+BrP+NW3rem2jl5uG6OXzBut3V9eR3czCjqyN9/fsRuEnn3ySVadbrgXZ+z0/AU4rq/1B1ymnnBLXXHNNunwUfLLPI3DiGJlq3ZrkkPcp3q943+IL8IoVK+InP/lJk+hWiQQkIAEJSEACrUeA5Ul++tOfpt8pjjvuuPj//r//r/WMceQaCbRIcJvAG1mkSZJUrs1GkI1MDqziyyfZmPyUki3H1OcW6nL75La5L4EcAgW5S8CHzKrqX6j48kdgm2xMHu6EXOYAXwb5CRZb6mknm5Etx8ihb8yYMenyBnwhpI0+FPohwxjIIEvBDtrZHnLIIUGfuvTm9kcfY9OH8bL96v3pg1/ZOIxLXWZHbXrQSRu28/Np9hkDPRRsRhdy2EBbts94jJEdI09BF3poq2182ttimTZ6dMy87dbo3/HzRbc/XR4xpbxnfNx/YOxw59jY+b77ovvAgS2K5+c//3mauU+QgGBBUw/OOcS5xPmT6c7OG+pp57zh/OG8Yj1Vzjdk6JPt0xe57FylnTb6sWUNVuSR4/xDF21sOaaedmTpy3GuPo6zglxmW1bHFj3oa6lrCGNmhbGz1xT240fGAoa0IZO1Zb5z3aENGXQRrPr9738ftKMDeeop+EU9BQbUoTPrT11un1x+6IcZfYcMGRJkuBJgR4el8QQK9brReI/WrmdzX68y6zjvea1nr7Hq9ZznnO+c97RVf21QTztyFNqRo7BPHSV7PVGX7SOTvbZ4fVJPe7ZPP2yr/tqmD2333ntvevOZm/boygq+ULLjbEs/bN11110je63Tlo3HWAT6MztgkyuHbbQhTxvy2MGWY3TlynDclIX3Ld6/WGKFbVPqVpcEJCABCaxBwAoJtBgB3uN/97vftdh4DpQ/gRYJbmMOTwkl84wPlxQ+VLJWDW3sZx9CObZIQAISkEDzEpg7blz88wc/iE3bL4qyJGLZqohpq7rG1LJesenPL4s9//lqbHDQQc1rRC3a+Vk3HxxqabZaAvUS4Nco3CxPkiS9qU7mZnNmbNZrUIkIFPJ1o7UQF9f1quUokZSSJKtff2Rc8ysMgtYtZ0Hrj8T7GOdH61uiBRKQgAQkIAEJSKC0CbRYcLs6RrKxeDgUX0D5AMyXUPZz5XIzvvnpYm4bfZJk9YfmrC/92ecnzkmy+ueZuX3cl4AEJJAXgRIXWjZnTkz4zn9G/66romv7iA+Xd4jX5pVFz+N/EPvNmBH9R4wocQK6VygEaru5TcYlN71pb4ytWX9uplNyMzYbo88+FTfAvG54GjSAAK9dXntZqSlDuwHqFJWABCQgAQlIQALNR0DNRU+g1YLbBKtZU48voDVRZMkSHu7FmqV8MM6VIeh9ySWXBJngixYtSpuuvPLKdMufgQMHpj9v5oM1xxYJSEACEvicAIHtngs+iorbg/Hasm4R+x0ce78+Kba9/Ipo16nT54LuSUACEviMgNeNz0C4kUAbJ6D7EpCABCQgAQlIoNAItFhwe+bMmcFDZZKkIpxSUcjazh6+VRMU1qnr1atXDBs2LG0+7LDDgmMOxo8fH5tttlnwACuC4zwUB31kbtNefU0/6iwSkIAEJBDx2umnxaIXnouFHbvGvC0HxZfuuTd2vOfP0XWrrcTTtATUJoGSIeB1o2SmUkckIAEJSEACEpCABCRQcgRaLLhdfc1tAtLf+ta3Ys6cOTVCJbjNw59qbKyovOmmm4I1/JIkiT322COmTp0aWXB7wIABFRL+k4AEJCCBXAJTrrgi3r3hf2JFp66x2a+uiqEvT4g++++fK+K+BCQggSoEvG5UweGBBCQgAQmsNQEVSEACEpCABJqWQIsFt6ubTRY3mdgEsau3cdynT5/KTG2OqxeWJWG5kqw8+OCD0bt37+pia3X85Pbbx6Rzz10rHXaWgAQkUCgEPvzL/8bGRwyP/WfOik2///1CMUs7JCCB2ggUQL3XjQKYBE2QgAQkIIG1JrBgwYK11qECCUhAAhJoOgIvvfRS9O/fP9iurdZWC26zXjaZ2QSxa3KCJUd69uwZBK1pv/vuuwN59nfeeed45plngrW3OR45cmSMGDGiMnOburUtJ1coaPfeOzHt+uvigz/+seLIf4VMINc2Prhst912cfXVV+dWuy+B/5+9MwGQqrj2/rkz7Psmorjg8tz4FEVEDRr3iMb3TMKLguKSmIcIvqhRiMYlKupTwC0Rn5IYIy6geWg0xiXuQYILYdEAakQQlSj7sG8z8/WvhhruNN093TPdM7e7/4nVt27VqVOnflX3Dn3u6bpFT+Bbf51ih/7+EQtKS4uehQCIgAikR0D3jfQ4SUoEREAERCCaBPhuyEtt8SGwlWk0rZRVIiACOSAglREncPHFFxvvYuRYX1MbzLkdv+f28OHD7d5777XOnTsnHAN7aV9xxRU2ZswYC4LA2rRpY367kf33399uuOGG6j28p06darfeeqvRJqGyDAs/f/BBOyXm+9mryXrrEUszzz3XVs+alaEWiTcWgbZt21qLFi3smmuucdH/d9xxh5WXlzeWOepXBCJDICgpiYwtMkQERCA/COi+kR/zJCtFoH4E1FoECo+Ad2p37drVRo8ebbvuuqt179698AaqEYmACIhAHhLAoX344Yfbo48+ahw5r88wGsTTgTN61qxZ5rcQ4cg55Rjfr18/e+CBB9y2Ihw5p5x65JDH0U2dd4YjQzmJ6G7KcW4jQx3t65JW/u1v9o9hw6xnW4s51c3aNjXbrcVWm/HD/7TydetM/8sPAnfeeac1b97cVq1aZTfddJNzct9yyy22cePG/BiArBQBEYgmAVklAiIgAiIgAiIgAiIQWQJhpzbfCfn+16RJEyPgKbJGyzAREAERKCIC48ePd1uR8C5Fhs2RrUko57wuKWfO7boY09httpSV2cxBA23P1pXWqsl2a7o0j50v/8pmnn3W9sICzFVUVNjWrVtt8+bNbouXdTFnPv84KItxYUuY5cuX29KlS+3rr7+2xYsX25dffmmLFi2yhQsX2meffWaffvqpffLJJzZv3jybM2eOffjhhzZ79mybOXOmW7jvv/++vfPOO/a32AMEtpX561//am+++aa9/vrr9uqrr9pf/vIXe/HFF+3Pf/6z/elPf7Jnn33WnnnmGZs8ebL94Q9/sEmTJtkTTzxhjz32mE2YMMF+//vf2+9+9zv77W9/a1wM//u//2vjxo2zX//61/bBBx+4hyUlJSVuLIzjtttuc2X8aqAAp09DEgEREAEREAEREAEREAEREIFGIRCFTtmqdKeddjLv1N6wYYPxfZCtUF944QW78cYbc5YY/41Z1I8+JREQAREoNAI4sYnSxocXHhvnlFMfLk83L+d2iNSscwZZ29VLrFPMmR0qdtndSjfahmlT7KORI915oX0cd9xx1rRpU7e1C9t68HLOnXfe2f10iw3e99lnHyOSvmfPnnbooYfaEUccYUcffbTbH+eEE06wU045xU477TT793//dxswYICdffbZdu6559oFF1xgF110kbFIcSoTgT9ixAi3ZQh7nxFVzZYyPEnnHyE4pnFS/+Y3v7GHH37Y/URh4sSJzrmNsxvH98svv2yvvfaavfXWW8aWNO+++65zoONMx7H+z3/+0xYsWLDDViRBENiWLVuc877Q5k/jEQEREAERyBsCMlQEREAEREAERKAACQRBkNaogiA9ubSUSUgEREAE8ogAvkEc2WxFEjabc8qpD5enm5dzexupT66/3ja+87Z1b7JpW8mOhx7BGvty/AO2KOZ03bE2v0vefPNN5wzG+btp0yYX7bx27VpbvXq1sbXHihUrbNmyZbZkyRIXuc3LOL744gv7/PPPnSN5/vz5hlOZl3zOnTvX/vGPf7joabaVmTFjhk2fPt3ee+89mzZtmnNIT5kyxTmn33jjDeeofuWVVwynNU/Un3/+eXvuuefsj3/8oz399NP2f//3f/bUU08ZTu7HH3/cObwfeeQR5/x+6KGHDJMFq4cAABAASURBVEc429Hcf//9dt9999mvfvUr+8lPfuKizIlGb926tXtiP2zYMGc78vk9W7JeBERABERABERABERABERABEQgTIDvhPzS+Morr3TvYGrVqpXxfZDvsaeffnrOorZvvPFGZ8Yvf/nLtPpIR84pLLoPDVgERKCQCeC4xok9ZMiQhMOknHrkEgqkKJRzOwZn8R/+YAvvudv2sDWxs+T/lQZme8Yc3LMvushWTJ2aXFA1jU6AqHD2Yw+CwP7rv/7LbaPCy0nZm73RjZMBIiACIiACIiACIlAfAmorAiIgAiKQkAC/Qh41apQLyvrZz37m3sPE1ptXX311QnkVioAIiIAI5J4A+2mz5QjR2al6ox455FPJxdcVvXN77bx5Nuv8823P0nXWNA0arZuY9WhjNvOss2zTkiXxPHUeAQLs+81e3xdeeKHbE/zuu+82tliJgGkyoREIqEsREAEREAEREAEREAEREIHiIuCd3ERyjxw50vjlMam4KGi0IlB8BDTi6BHAWU00No7rdKxDDnnapSOPTBruXMQKN80cONB2bbbF2jZNf4ydm1dahw3LYw7uH6bfSJINRmC//fZzW51wQey2224N1q86EoFUBNY/8TtbvFNgm//2Vg2x1aOutm9697Ctn8yrUe5PKjest5VDz3WJvC/3R9qtvec2f5rzY8WKZbas/1FuHIyFPGV0zJFzxklizJRnktBJW47x7RgrrAa2iK/RuQhElwBrmTUdfz1wTjn1ubbeXzv0Gd8X95VU95h4+XTOU/WXTvtEMtwrub9wn0lUn6qMMdI+UVvKk+nNxThS2ak6EWhgAupOBIqCgHdys01m9+7di2LMGqQIiIAIRIkAjmr8c2w5ko5dyCFPu3TkkSlq5zYR282+nG9dm5XDIqO0S+kmK//HTJt94YUZtZNwwxDYa6+9GqajIu7lrYMPtnk//3kRE8hs6M36HG2lu+9pG197sbohjpbNU9+0Zn37ubrqijQztF/10x9ZxZrVabaov1hJpy7W5aV3rNm3jnOJPGVoXjtuLAfr9vFSa/PTn9v6CeMNG11hFj6a7Heg7TxjoU3amAVlGamQsAjUnUCTA3pas8OPtE1/fc1wsqKJI+eUU0+ZUmoC7a6/3d17/P0mtXTN2jVjbzbutTVLaz/z95xW5/y4dmFJiIAIiIAIRJoATu5IG1hExvGeLrYRPfroo619+/YWBIFSRBkwP8wT88W8FdEy1VCzRAAHNc5q9tPORCXytKN9Ou2y69xOp8eIyCy45x5b9efnbPeSdXWyqLwy1mzLFlvz4QexjP4TgeIi8OElQ630i89s0bj77F9/+ENxDb6Oo8WxjRMbB0unbXfeimVLrXzJ19b82ydZ0LKVEVVJJCeJSEocYPHdEWVI/aY3XrayX1xmm//+rq391R3Vkd04k4lCRIaETnSgC50rBn3XSERAE5VIPXIkr5tI0mTyqfSXf/WFlfbYh+7M5xmXK4h9hPvCFvqIFSf8j4cA2ESiHULYi90+cjveFuwOy5WNHOai4mvrizZKIpArAjhjm/U73ja/N9XKv/jcdcPaL1843yinnjXOWidx/bK2EWRNU+avTY7UIUM5ibbIktDLeqechDzlPm2ZNd1dE4nqvEy8/rAOfw3Snn6wI1zvdfhjuD/ksY+6sB50hcdAnjIS+rGHNvQTPvdsksnRH3Wrb/65u0dyr1x6cp+kv5Lhfoo89xjso0+OnGMT59iCDciRsIFyL6d7DjSUREAEioqABisCGRK4/PLLrW/fvrZx40a7/fbb7fPPPzfelaVUGUkOzA/zxHwxb8xfhlMu8SImwL7ZbC1CFHZdMNCO9uiprf02F0tqsYqKitQCeVa77LXX7KOrr7bdK8vqZHnZZrN5G1pap4susWP+PsP0PxEoJgKfP/igLZn0hO3VZL31iKWZ555rq2fNKiYEdRorTl6c2DhY9i+tUrF5+jSXIaobJ8mqyy6yLs++6SKfcXwRbegEtn1smvqmc9J0uPcha37Cqdb+tntdRChR0h0feNxFha445wznMNt1aaXThU50b1NhWz6eY+1uGusioCmjD9ojz3l8CsuXdNnJatNP+80z3rMNk5+w1ucPcU57V/a3twxbUo0PuXDCJmxLFAGOkwxnFM70XRatM5isvPSCGo6ritVl1nXqXIMN/MO6lReBhiTQ4qTTDMe2v+a3fjTHPZiiHMcp1yFrlbXMmmZts8bDNnI9EL0c/oUE6562OFeRJc8RPVxrPPgKX//+mqDdhmcm1bheaEdCf6vYtUt/yHkd2LPmrlustGs3d4/i+uZ+RptkyfeHLdwT6LNlYIaejvc9YvTBNY7djIFEnn75BQh6sYdjOCHH9Y4cY41nhl3Yh/52N9zhfklClPxOr043orHDush7efpkfOuffITiGonxMy/0RZ/0jQ3Y4gX9eMP3nHbt2tmqVau8iI4FRIB5ZX4LaEgaigiIgAjkjMDixYuNCOD169c7h/aYMWPsuOOOsw4dOuSsTymuPwHmh3livnB0M3/MI/NZf+3SUMgEcEoTdY2Duj7jpD160JdKT0mqSl9XUlJi7GP8/vvv+6K8PVbEnhDOu/wy6950k7Xc5mDKZDCLN5XaFyXt7ZAnJtqBd92VSVPJpkdAUhEmsPJvf7N/DBtme9oaC2IOCvaq363FVpvxw/+08nXrImx5NEzDiU0E9wnNzDmi3bYE27YkIVIZ5wtbFBDJSUQn0c84VLAexxAR1ziCkv1EPuwwo03Tw46wlgPOsXUTxrv+KGu2rT/yONpwuOFg49wfyfsUlk9HP+3KF3zKwbYunO+OfNQ2PmTCqck++7lTjkS3E+XuCrZ9YDeRsDwwwHENW6oqli3h4JKvcyf6EIFGJMB1zfXNNc817a+H0h57u+1K/HXGWsYpy/W+Zeb2f3PFX5s4Y3nQ1KL/f7gHVThsiSrmlyF+3bN1EM5djn7opd13dw+cmvTYx0WRh68XL4MDHb1EKPNAypf7a457E/coPyZfn+jobfH3IsaPHM7fki5dXRQ5znPKwol+N770nNuGBHvCdeS5d3HkuocZ/fBAELau/PAjDfvIp5O4L2MPukph89UX1fdM396Pn76Qo2/qwgx9HeU+HXTQQTZ79mx/qmMBEWBemd8CGpKGIgIiIAI5IzBgwAD77ne/a0RgdujQIdyP8nlCgHlj/phH5jNPzJaZjUQAhzSOabYWqY8JtEcP+lLpScu5jYKhQ4faNddcQzavU0mLFrbT6d+11aWtMhrHpnKz+eVtrOKoE+y4eR9ZtzPPzKi9hEUg3wlsKSuzmYMG2p6tK61Vk+2j6dI8dr78K5t59lnbC5VLSAAHCk6sXUvMtn48121TgDMEYRzZOKy+3n8n9+JJHD7OWbNxA9XVicjHcKRgdUUsgzOZPnDSxE7T+i8T+XT141An4aAiKhWHU9LxbVif0E6cbwkrthXiUMLZRB9sD7Ck30HOWYeN20R0EIHIEMAZjFOYa7r8y0Vu/2fOgxYtjTLvdE7H4FZnX+D26Pf3C5zQOLYrtm1zlEoHD4tS1XOtsp0H9yEinom4jpevTUe8fPx5x9j9D5uXDzzNOk960f3qwsvgpG/5/YHu1F/b3ENcQehj6/xP3PXOdc/1j2yih2ChJimzRGvzy5RUQhWxB2d1ueecfPLJ9vzzz6dSnUGdRKNEgHllfqNkk2wRAREQgSgSuPzyy+3ggw+26667LormyaYMCTCPzCfzmmFTiRcJARzROKXZNzsbQ0YP+tCbTF/sK0ayqprlV1xxhe2///7upyQzZsyoWZlnZwfccYc17dXb/rUpvdDtFZsD+2hDc+t25c+t719esebduuXZiGWuCNSfwKxzBlnb1UusU8yZHa9tt9KNtmHaFPto5Mj4qsY5j2ivRPvhzD6iqbn9tTGT6D/KcW4R2cnP4om2JHV56R0r6dgZMbf9iHc0JfrJPEI4hHG+4IThPJ2UiXy6+hlPh7t/46LG2WKAPpKOr1OXdMzcQQYHPo55tgaAlU+t9OK3HVipIBoEiL7GIb1+0u+rtyThWkkWKZzMahzAO89YaGyNwUMkdLJ1B85ZnLQ4fpO1ra28/Msv3EM3rqtwxHe4XX30o2e/2D+9sJltSRgLZeFEpDbXs7/fcQ+Jf6CHg53rn61ckCXBJJG+sO765Ot6zxk8eLCLUmMLi/r0r7bRIsB8Er3G/EbLMlkjAiIgAtEiwEsIH374YRs9enS0DJM19SLAfDKvzG+9FGWrsfREhgD/PmILEaKts2kU+tCL/kR603Zu03jcuHF23nnn2RlnnGHnnHOOTZkyheK8TL0en2jLglbG/tmpBvDF1hb2TfvudsQLL9q/XXtdKlHViUDBEvjk+utt4ztvW/cmm5KOsUewxr4c/4Ativ3jJamQKgxnNhjWPfy/1iy0RYh3fLH1B1GYRDbyAjVkSTjA3E/7vz/QkkVv8zN8HORseUAbtjVgewO2OQha7vhrFWzBQYQ8EZvrJoynWdKUrn72BsdGHPleWW3j83LpHrEbfmxzgO1Ed/Lit3gnWLr6JCcCuSbgrx9+lcF1yjnXJdcJW+zwEIi1zHWI05rrPd4m6omsJlHX9mfXuShunL0lsQdFRIOzNQn3EK4FrgmuDWTTSSVdurg9tXFg0xe2+Hb+mvP62TYEJ7WvT3T0++X7exFj/arcnM38ygI7kfFt2R+cSGyOONfZhgmHfUmXnbyIO3LvIsP2JNgJDxJ5ynOR/PgzvecQGPKjH/3IRurhby6mpdF0Mp/MK/PbaEbUsWM1EwEREIGGJPDYY48ZUZcdOnRoyG7VV44JMJ/MK/Ob466kPo8I4HwmuhpHdC7MRi/66Sdef0bObRoPGzbM5syZY0cccYRdeeWVtueee9rw4cPt2WeftdWrV1s+/A87X/773+2dfsfYP9cGtiXF+zLXlwfWfeAg63LCCfkwNNkoAlknsPgPf7CF99xte9ialLpLA7M9Yw7u2RddZCumTk0pW8yVOEje31JFAEcPzi3OcOQQLbnszOONLQFwZre96gaqaqQ2w69yzieit70zC2cZznAEOz3xvNvyAAcRuoh+RDd18YkoR/qg/b/2aG1EV8fLhM/pLx397LnNNgEk9NMPNqQzvnB/qfJw44WabOmA7fSVLBI0lZ4UdaoSgawS4PrB+YxSjpyT59cGXCdsscFapoxfPrDGyYcTZeF1Txse8vitPNDDvYN7CHWUoz+sI1WeX4rwMkl/T+Ba5p6FI5q+caaz/Qf6cfLipE+lr+khvW3pyX2MexGOamz5Z8y5jV1cs+gJ2nd0W4zwi5PwfYJ7GHawPYpn5fvinsL1jg6YcR+ACzZ6mfDRP1yjPxzn4bp08+imD/qiT/rGBmypTcc999xjH374od1yyy21iao+Dwgwj8wn85oH5spEERABEWhUAq+++qoLjmxUI9R5TggQ9Mr85kS5lOYlARzPOKAVLHCqAAAQAElEQVTZQiQXA0Av+uknXn/Gzm0UdOzY0dim5L333rOnn37aevToYQ899JDts88+tu+++9rAgQPt9ttvtxdeeMEWLFhAk0ZL9I8d2INd2Ied2Nsq5rBuf/4F9kV5q6T27d10g33xwP321aRJSWVUIQKFSmDtvHk26/zzbc/SddY0jbtF6yZmPdqYzTzrLNu0ZPuL/QqVT13GhYPk0thzAn5Gj6MnrINzykm8cA1ZEnkSeZw8bFfCT/dpyxF5yqgjkaeMhLMIOdqig0SeMiI7+ck/Tmdkif7EkcXP75FBlkQeeVI6+lv/108NfSTGRDsSecpI8XqpJ2Ev9Rw5p43fbgAnEvlJG6kxS2aLl6NtlaQ+RSAaBPz1yjFsEWuVdU8KXxtcB5Rx9PLx6z4sz7XKOW1Ivp/4awJ91HP0bWhHPmxLl5ffdS+spIyo6DV33WLN+vZzW6J4Rzf3DW+bP/r+2o++37WnL28LMuQpI3V+8kV3v8AW6uiLcp98OW24tzF+5Cj3MuHyeLl4WdpR5lNYnvHDgUTejwObkKdv+vL9el3xcsjGp8mTJ9uf//xnF73Glhbx9TqPPgHmjSg15pH5jL7FslAEckVAekUgfQJz5861Xr16pd9AknlDgHllfvPGYBmaUwI4nHE+82+lXHaEfvqhv3A/abirwuI75lE6YsQIe+6552zp0qX2pz/9yT2ZW758uf3617+2E2IO5BYtWljPnj3t9NNPNwy4+eabDW/7008/bW+99ZbNnj3bPvvsM1sSc4atWbPGNm/ebJWVlTU645xy6pFDnna0Rw/60It++qE/+qV/7MAenixhH3ZiL3Yf9/DD1qTX4bY4yf7bOPT2KFlns84/z1bH7KxhlE7ylkDr1q1t7dq1eWt/Qxk+M/agatdmW6xt0/R77Ny80jpsWB5zcP8w/UZFJMm6Y/1FYcg4ZHwEJVGSRCIS+Ul5FOxLZgP84JisXuUikCsCrDvWX9r6C0gQZy9bHLHVEZHLRIbj6OYeUkDDzNlQdt11V5s2bZq1atXK/eqRf4Pyb1gcpjnrVIrrTYD5YZ6YL36tyvwxj8xnvZVLgQiIgAgUAQF+Nc8WFkUw1KIbIvPK/BbdwDXgHQiwDzZbheCX3aEyBwX0Q3/069XX27ntFfnjgQceaIMHD7YxY8bYiy++aAsXLjQcy5MmTTK2NDnssMNs69atxkspH3/8cbvxxhvtwgsvtO985zt2yCGH2G677Wbt27e3pk2bWhAEVlJS4o6cU049csjTjvboQR960U8/9Ee/9I8d2INd2Gdx/zt04iRbUdIm6f7bOPZ2b1lhM88+yypijve45jrNAoGGVsEXFB6QNHS/+dQfEdvNvpxvXZuVZ2z2LqWbrPwfM2127NrOuHGBN2Ddsf6iMkyiFn0UIkcfoRgV+xLZAT84JqpTmQjkkgDrjvWXyz6irJtIZe4TPvkI5yjbHDXb2MqCXz4SgHH11Vcb6ykIAvdv3SDQMQiixYD5YZ6YL+aN+YvampI9IiACIpCPBGSzCIhA4RBYvHixC2BuyBHh4KZf32eJz+TySJTTwQcf7CK6hw4dakRYYwg/6XvjjTds5syZ9umnn9rXX39tZWVltmHDBucALy8vty1bthhHHNeUU48c8rSjPXrQh170E6FNf/SbzriCmAO92U5dbH1FchxdmlVYy2Vf2cxzBqWjUjIRJ9CnTx975513Im5l45m34J57bNWfn7PdS9bVyYhyfngRu3bXfPhBndoXciPWHeuvkMeY67HBD4657kf6RSCeAOuO9RdfrnMRyIQALyEcNWqUi+Tm37X8OjFFcr9mzJd6OOSLrenYyfwQqc18MW+MT0kEREAEREAEREAERGA7AYKO2dVje0nuc/RHv76n5N5cL9GIR6K2S0tLXfR2rsxY/cEH9rcj+1rbpYtslxYp3iwZM2C3YJ2VvfKy/TP2hSR2qv/ymED//v3dVjp5PIScmb7stdfso6uvtt0ry+rUR9lms3kbWlqniy6xY/4+wxruf/nR03PPPWesv/ywNppWwg+O0bROVhUyAdYd66+Qx6ixiYAIiIAIiIAIiIAIiED0CchCEdhOoGR7tvhyOPH+1q+fdVr5pe3SdEutABZvLLHN5ZXW5oADapWVQLQJDBo0yPh56QexhxvRtrRhravYuNHmXX6ZdW+6yVqWZt43e9d/UdLeDnlioh14112ZKyjwFqw31h3rL9Oh8vLHb3r3sPVP/M54sdvKoecaiXy6upClDYk87Tb/7S2n0+fZe5syzjNJ6Fs96mqrWLEsk2ZGX5n2CT84wjOjziQsAvUgwHpj3bH+6qFGTTMk4O8R3Ce4x2TYXOIiIAIQUBIBERABERABERCBAiZQtM7tryZOtGmnnGK7B2ttp+bsoZB8ljeWm326uaVVHHmcnfDPT22XH+pFeclp5U/Nz372M7v11lvzx+AGsLSkRQvb6fTv2urSVhn1til2jcwvb2MVR51gx837yLqdeWZG7YtFmPXGuqvveIOWrYy9bknk09WHLG1I5HGYr7z0gurmfj9djtWFaWbWjL3ZNk99M03p+ovBEZ7111RTg85EIBkB1hvrLlm9ynNDYONrL1rp7nta16lzjXcE5KYXaRUBERABERABERABERABEchXAiV1NDyvm31299324U8usv3bVVrH5qmHsnyj2bw1pbbr1ddb31dft+a77JK6gWrzhgAvCFqwYIGNHz8+b2xuCEMPuOMOa9qrt/1rU3qh2ys2B/bRhubW7cqfW9+/vGLNu3VrCDPzrg/WGeuNdVdf44mSJvqaRJ5obqK61/3mV0Z0I4k89eSX9T/KRVQjSxmpfPEXtuqnP7LyLz63VZddZERE+ghJjtjIkfYkryNcThvqlg863db+6g7b/Pd3benJfQynOXLJEvbSjoTjKixHW8ZCHQnZcL3PwxGecPVlOopArgiwzlhvrLtc9REFvf6a5/7hr0N/Dfpr0597WY7+3rJi0HeNRFvkw2PinPKvupi7T3k9vtyfo49rnyNl3Fu4Ty3pd5D7pUdYp/IiIAIiIAINRkAdiYAIiIAIiEBkCRSlc/vL3z1kXUo2W5umyeelotLs841NbfnOe9u3/jrF9r3mmuTCqslbAryIlEi8P/7xj3k7hlwY3uvxibYsaGXsn51K/xdbW9g37bvbES+8aP927XWpRIu6jvXFOmO95QoEzp+gdRvbZdE6azngHCv7xWXW+vwhLtqxfMnXtnbcWAv/r6RjZ+vwq4ddRGSHex/aISIShxNR3dShs7THPk4nTqywnl2XVlrniS9Ym5/+3JodfqTt9Op0a7LfgWGRGnn0EuWNPG3Dlehec9ct1vG+R4w6ZJClTVjO5+EJV/j6Mh1FINsEWF+sM9ZberrzX6r868W284yF7rpeP2G8eziWzqi2fDzH2t001rUN3wfC13b3Zeb0prq2fV+tzvmxk/WR23X5VYnXpaMIiIAIiIAIiIAIiIAIiEBhEihK53afPz5rZe13tmVbEkemrttqNmdNU2v9w8F2/KfzrePRR5v+lwMCEVB52GGH2TPPPGODBw9WBHdoPlrstpv1mvCoLYo5r7dUhCrisuvLA+s+cJB1OeGEuBqdegJEfLK+WGesN1+e7SPOn2Z9jja2GyntvrtzNDc5oKeVdNnJSrtmHk2/efo0Z6LX2fzbJ1n5wvluv29XEftocdJpsc/M/vN6W51dtR1KWAe2s2VKSZeuRoQnEZuptMMTrvCFcypZ1YlAXQiwrlhfrDPWW1105GObJvvs58zmyMOximVL3XltH8369nMPzOLlwtf2u53M/dIjXkbnIiACIiACIiACBU5AwxMBERCBHBEoSud2q332sSNfedWWtOhsSzfviKBprKiySam16907R9ilNkoETjnlFJsyZYr99re/tbPPPts+0Esm3fSwb3aPn15uX5Qn339776Yb7IsH7revJk1ybfSxnQDriPXEumJ9sc6210Y/t3X+J27LErYCYIsAti7JxMlVlxHyMkq2P1k+8DTrPOlFI2q8Nj1whS+c4Q332tqoXgRqI8A6Yj2xrlhfrLPa2hRSfZMe+2R1OOFre3CZpXVtZ9WAPFQmk0VABERABERABERABERABNIjEHPjpidYaFJtDjzQ+r78F/umSXtbvqUmhmax0/2ab7SPr/65ffH73xfa0DWeBASIyHvvvfeM48knn2xnnHGGi+TGwbF27doELYqjaP//+R9r0utwW5xk/20eBO1Rss5mnX+erZ49uzGgRKZP1gnrhUhP1g/riPXk11VkDE3TECI2iQbnJW5sEUJim4LwVgNpqtpBjC1UKpYt2aF860dz3L7dbEuSST9hznCHP/PAfDAvO3SkAhGII8A6Yb2wblg/rKPwuooT12mGBMLX9j/LM2wscREQAREQAREQAREQARGoIqDPiBEYNWqUkcJmcX7ooYfaxx9/HC6uU37Dhg02dOhQe/zxx1O2j7lxU9YXdGW7Xr2s70sv21eVrXdwcLcoNdu76Xr7xyVDbfEf/lDQHDS47QR4WdiSJUvs3HPPtalTp9qgQYOsW7duFgRB0abv/nWKLVhbnnT/7bZNzXZtvtWePOxQa1rEnFgnrBfWDeuHdcR62r668ivHdiRYzDYi7JfLSyhJ5ClPlZBBlkQ+LItenOb+RZL+iAzbkVC3deF8t8fv+gnjKU47wRvu8GcemA/mJQiK9/oNAo09CGpnwDphvbBuWD+sI9ZT2ouvCAT9Fkf8qoPhhq9dzlOl8LXdKfYvz/C1XR+9qfpUnQiIgAiIgAiIgAiIgAiIQMMSGBVzdn/11Vc2bdo023///Rus89hXjAbrK5IddTjiCOv7wov2xaZmtnJLUMPG1k1iDu7mm2zGwIG25MUXa9TppLAJ4OR45JFHbM6cOUZEX2VlpRVrWvyvf9lO++xj6yuS3y52bmHWq1Nre2fAD4qWE+uE9cK6Yf3kwxWCI5k9ctlyxDmiN22sNpvIaSKoqfvXHq3dftvtb7vX7eldLRTKsHf25r+/a1/vv5NtfmdKqKZm1utlP222OwnXUtfy+wONPtETtO/otkZJFOUdbhefhz/zwHwwL7Veu0V0fa9evdoGDBhgHMVl+32ddcJ6Yd2wfuLXlM7NSjp1sVbnD3H7Zcdfu7XxCV/bH3YyC1/b9dFr+p8IiIAIiIAIiIAIiIAIiEAkCBBdjWP77rvvtpYtW5qPuiaACAOXL1/uAkiJ6KaM712kIAgsPtIbJ3kQBPbjH//YysrKaO6S1xkEgQtARQ8Vyb1V1MalQj3t1K+ftdl7b9uwdccREpXaqWVg/7z+uh0rVSICBU5g9Qcf2N+O7Gttly6yXVqkeLNkjMNuwTore+Vl+2fsSV3sVP9lmQDOIbYFaXXOj52DmRcvkoKWrYwy6pCh23bX325dXnrHOaNwHJGnDFnakMiTyLPlCMfmJ5xq5Jt96zjUGEfOSehAJB+28gAAEABJREFUFxW+nCPnJPLIkdDT9mfXWUm79lTtkMKy2EUbyhD055R1fvLFGvZQr1Q/Arfffrs999xzxrF+mtS6EAlwHXLtcWR88fcWzqkn+WsVWX8v4T5Cnrbxyct3X2YWf20n04sO2oXvb5QpiYAIiEBDEbjpppuMdOONN7pjOH9jrIzky5LlqSf5+kR5X8eR5GWS5akn+fpkeerrk6LStqHmW/2IgAiIgAjUjQCO7UcffdRuvfVWw7GdjpZJkybZpZdeauvXr7ejjjrKnnrqKdcMXTitly1bZvwdmjdvnivnY+zYsda9e3cXVPn222/b8OHD3fYncm7H6Pxj2CVW+sV827VlZexs+38rNgc2d2s7a3bi6XbIIxO2VygnAkVAYNlrr9nfYg9+Oq380nZpuqXWES/eWGKbyyutzQEH1CorgcImwFYk6377a2v9k/92jvjCHm3+jG7NmjV255132pYtW9yR8/yxPvKWykAREAEREIECJMCXan7pxNA4knyeI8mXJctTT/L1ifK+jiPJyyTLU0/y9cny1AdBVXRbEOx4pD5bKQgy0x8E2+WzZYP0iIAIiIAINDyBG264wQYPHpxxx6eeeqodEPMf4Qw/9thjq9t/9tlndt5551nnzp3d1ib88thi/yPyG6f3iSeeGDsz6927t3OK4wQveuf2ovHj7ZtHJ9iezTY5OHysjfnx5le2t5V79rRDnphkfZ57ztr27EmVUr0JSEE+EPhq4kSbdsoptnuw1nZqXvOhT7z9G8vNPt3c0iqOPM5O+OentssPfxgvovMiIxC0bGXtR99vPpK8yIYf2eESrR3+8st5ZI2VYSIgAiIgAiIQEQI4uPM5/fKXv7RkKZvjStRHKv1h+VRy1EVkKciMOhFQIxEQgUIngJMaB3O/fv3s2muvdduRWBr/69Gjh7Vq1aqGJNuOsLVJjcK4k2OOOcZtSULbBx980BYuXGhF7dxeMXWqfXDJJbZHk/VWEphtrjBbVNHaFpZ0tD1uud2O/eBD63raaXEYdSoChU3gs7vvtg9/cpHt367SOjZPPdblG83mrSm1Xa++3vq++ro132WX1A1UKwIi0CgEiNImanvz5s2uf46cU+4K9CECItD4BGSBCIiACIiACIjADgRwdg0dOtSI2PSV5IMg2KGsf//+RnSnl4s/so8vWx7Elyc7T9R3Mtm6lmMv4+OIbUEQOMddEFQdsdnrZq/iQw89tLoeeV+HXBBUtQmCqqOvZxwjR4502zd4eR1FIFsEcGoTZX3VVVc5lU8//bQ7xn/gAF+xYkV8cY1zorjZdqRGYeikY8eO9tFHHxlBWz6de+65VrTO7c3Ll9vMH/6n7dm6wnhx5NdbmtqcshJrf9EldtLixbZn7OYZ4qesCBQNgS9/95B1KdlsbZomH3JFpdnnG5va8p33tm/9dYrte801yYVzUCOVIiACmRH4n//5H/cPAFq1adOGgzun3J3oQwREQAREQAREQAREIC8JvPPOO/b//t//szfeeCMv7a/NaO/sIjrTy5I/++yz7fXXX/dFRpl3slUX5kHm/vvvr96CAXMvvvhitwcxjjucgTjySTioH3roIXvyySfdv+Nx8E2YMKGGw/rmm292dbQN18PwoosuMtqjh35ynQiiIZgmG/1IR34QYJ1dccUVNmbMmBoPnvx1On36dPvmm29qHQzbjrB/Nw98eKAzefJk1wYH+kEHHVS9Nzd1POzh+iha5zaO7fZrllrseZbN2Rz7on/SGXb83Hl24OgxVtqihQOnDxEoRgJ9/vislbXf2ZZtKU04/HVbzeasaWqtfzjYjv90vnU8+mjT/0RABKJLgH9Y8uKN1q1bW9euXW3t2rXuyDnl1Jv+JwIiIAIiUAgENAYREIEiIvDKK6/Yt7/9bcMR9M9//tOaNGlSsKNnjFOmTHHbHeCcnT17tg0aNMjmzp1bHanNPr3IAQFnVxDEvD2xRFQ0bSgnLVmyxPr3729BENioUaMocinchnoca64i9jFnzhzDiRYEgflo6Fixcyz78nAb9N59990J+6GdTzjn+Lc4ewf7svARZx4Oexz3LVu2tNGjR7s9iJHZY489bK+99jIchpzHJ1+Pg5y6/fff39q2bWszZszgNGeJ8Vx//fVuv+TrrrsuZ/1IcTQJsM5GjBhhbB3CWsPZjXM6CALj2jvwwANrNZw1T+rSpYtddtlldsEFF1S3ITqcbUuCIHD7ddMXskXp3J5zxeW2/r1ptq5Zayvbt5cdNvkZ6z35aWu9337VwJQRgWIl0GqffezIV161JS0629LNO94imsaKKpuUWrvevYsVUUbjrlixzJb1P8oW7xTskFYOPdd4+WK6Cjf/7S2ng2OqNuhEN4l8Ktmo1zHW9U/8LgdmFo/K8ePHW9OmTd1+m/5JOUf2uuRLEPXFQ6NxR8r1yHXJPYF7g7eGPGXUIePLC+XImBgbqWWQ/qjC7cjTMhv3BHRwT+aIzmSJ+lRyWz+ZZ2vvuS1Zc5WLgAiIgAiIQE4I4Cg6/PDD7Qc/+IHh8C0vL7fvfe97Fn4hW046bkSlvHSO7tevX++imlevXm0w2H333Q3nLY5oHN04w3AYE8FM5DLytCOggyPpkUcesXvvvde1w6FNov19991ntCHqmZfZvfTSS4i7hJNu2rRp9vbbb7uoVPqgDY43nGu0wcEW3m84UT9OWegDx3SvXr0Mx3WouDpLH4yrT58+1WU+w9hwevfo0cMX1TguWrTIysrKnAPQV+D891G0vixbR+/UJpiGiG2+f+hXotmiG109PMgghS1kmxB/TeDsnjVrlvtFAY7uiRMnugc0XC8PPPBA9dqnTVgPeXRwHdKOevrgWqEddSRfHnNTUZ0iFVjV/DFj7PP7/9e2tmhte91xp/WbMdO6nHxygY1SwxGB+hFoE3ua1vflv9g3Tdrb8i01bxPNYqf7Nd9oH1/9c/vi97+vX0dF0LqkUxfr8tI7tuvSSutw70NuxF2efdOdd3zgcQtatnJl6Xw0+9Zxrh3HVPLoRDeJfCrZKNfhOFp56fantFG2Ncq2XXnllbZu3Tr31DtsJ/8Y5x/F1IfLlc8dAa7H5t8+yTb//V3b+tGc6o7IU0YdMtUVRZ6BBfcxEvls3RO4h3JP5lhXxDyQWPXTH1nFmtV1VaF2IiACIhBNArIq0gR23XVXY3sJnK38Gg9jKyoq3LYk/IyfLSv++Mc/2gsvvGCvvfaac36/++67hnMJJ+n8+fPtiy++cFsDrFq1yjmKt27dippIJ14ch4E4n0nsybvbbrsZjmEcxDi4cXQTrcw5Ec3kcYThqCbS00dvDxgwwDnXiIqmLpGzF4cZiT5JPDhAF052H3lKn+z/279/f0TsrLPOsgULFhhOZQrS6Ydo83jnNC/IY7xBEBjO+jPOOMPZi85wYjsTHIQkX37DDTe4iPQgqIpqvfTSS10Eta9HH05oz8KX1+eIPhyR3qm9ceNGF2EPr8svv7w+qtVWBNImEHNTpS1bEIJfP/tH23XQQDv5myW2x09+UhBj0iBEIBcE2sWeIPd96WX7qrK1rYhzcLcoNdu76Xr7xyVDbfEf/pCL7otCJ5GIRDKuGPRdI33Tu4fhvCFSmWhBki8DSDiKEDnq1t5zW3Vk+OpRVyPmosHRS6IP327db35ltEEvfTjh2Ad5ykjo4EibWNUO//l6ZLx+L5SsDl3Ip9M/0as4jUg4jsq/+NxWXXaRodv3w9HrRK9PjMNzIR+WQ55zJRHIJoG66GrW52gr3X1P2/jai9XNty6c78qoY+1zHfh17deuX9tlI4e569hff1wbyHJt+zpkUc51QB2Jel+OTsrSuSa9ftqgszb71ia4J9GOVFm2ysa3NfcLFMaILspJYVv92Lh/kSeVL/7CUt0T0OFTuB1MGGu4P8ZCGUfawAU+lJF8OXUk5opyEnaiv+wXl7mHFGt/dYdhH2XIKomACIiACIhALgngMMSZHe6D808//dTYpoQXuT3yyCNGFDJRs0QS//SnP7Uf/ehH9p//+Z926qmnGs7QQw45xG1pgbOzRYsW1Q7RIAiymg/bWZ8848bBvHDhQlsYS0Qgow/HMA5iHM1suYEc5WEHMdsj0IagDur23ntvDjUSju4bb7zR2Mc7CAKL38qEfmo0iJ3Q58qVK2O5qv9g2alTp6qT2GeifmLF1f/hYMbpXl2wLRPec5vIVMbHNifbqt2Bc9qyRYMr2PZBxDptSIyXBx7hbVS2iWX1MGTIELddindqo7ykpMRtFxMEma2n448/PqvrLwjS6x+blfKbQNE5t3n53aG/f8SC0ph3Lr/nLp+sl615SqDDEUdY3xdetEWbmtmqLUGNUbRuEnNwN99kMwYOtCUvvlijTieZEdjy8Rxrd9NY23nGQtdw458mW7ePl7pU2rWbrbnrFuewdpVxH1s+mmOdn3ndiArf8Mwk5xyPE6k+Lf96seujzU9/busnjDccSzh11oy92SgjkrFaOEEGhw+OHCLPu06da5vfm2r0iSgOsM1T33Q2Y3t5zFmHXup8StU/9tMO2bXjxhoR7x1+9bBz+FHX7vrbqapORFxiL22aHX6kk8MxWC2gjAhElACO7WZ9+xnXC9cgTtFNf33NmsXKSrrsZDhNS3vsY7ssWueua369wHXqh1Oxusy4/ohm3jLzfeOa5BqhjDovR5va7iWprslE9wRsrc2+VPck7nU3rzNnf/mSr23jS885c7m38BCLewvXdKL7R0nHzpbqnuAUxX1wj2r9k//eob+wGHOA07ztVTe4X8Yw7tU3/9zdH8Ny3G+o494Jh/a33WvceyhjLogsD8srLwIiIAIiIAK5IDB//nz3UsB/+7d/sw4dOrgu2GZu3333tQkTJriXDT7zzDNG5Parr75qf/3rX43I7ZkzZ7r9qT+NOcGJLGaLOhyzOECJ3MYZmsXktiBAnzMwSx9szfHZZ58Z+23jSEYtkdQc2RP7xBNPJOtS2MmLHWxtgAObSnRwJIXz4e0TcKSHtzJBNj5hA5Hbvhxn94oVK/yphXWH814ARzwR6P482ZFx4cjGGU4aOnSoE2VrBnS4kwQf1DGORH0nEK9zEVscjhw50nhIQp8o4oELjn7YZ5LefPPN6rWTSbv6ymKzUn4TKDrndhB7gpTfUybrRaBhCXTq18/axJ5ur0/wa7W2Tc06tQzsn9df17BGFVhvOLVweDGsJvsdaJ0m/tlw+ny9/04uMpDyZKm0++5ua5MmMWcYUc4Vy5YkE7Um+1S9V4AjjqWKZUtt8/RpRrsWJ53m2vmjO0nysezM460i1g/O+Fbn/Ng5gXDUNet3vHNK45hudf4Q5/jGwebV0C95jr5/zkk4thgzW7jEO7KpT5Zow3YOLb8/0GCXTE7lIhAVAjhB2X6Edct2JFx/OGEpq+CajD00Io+cf2BTEbvevP2+jnMiirl3IIc8dZSTuB5qu5dwLTrZ2L3BXxtq+PIAABAASURBVJOp7glhW+mPfmkfti/VPYmHdcsrzXDik986/xOauyh2HMVNDujp7iHcS8q/+iLpQz3XKI0P+qAvEnnfX7ipm4OYo92PhfsP9yHuY14uESdfV/+jNIiACIiACIhAZgR++MMf2ieffGI4X9mmBKciLxrMTEv+SeNMxsmL5Ww5wpHtOzjirPeObpzg7I3NvtjUEeU8NOYQxjHM+dSpU11UMftZk8d5jCwvqKQMGVJtkdfYwwMCHOfIP/XUUy4a3tuGbvSRyNMPcuFEH0SVh8vi82ybghMcxzFzTp5tQOLl4s8ZL3uy04evwwEfjnD35fU5og/GvCyQ7Q5Zj8wLkdz33HNPfVSrrQikTSAvnNv8BJSfgvqUjZ9/EnWDHhJ5oobQzxF6OGTW3lP1kiCievg5K3Uk8pQhR6IMG8mHEzr4mWuiurAceWR9f5wriUBUCPxj2CVW+sV827VlzCMRMmrF5sDmbm1nzU483Q55ZEKoJkfZIlHL/YR7EZGcRDC2HHBOypF7p0tKoW2VOMC3ZWsccI6VdOlaoyzRSdPDjjBvDw5u7MTeiphDDsdYbbYk6h8HHI5p+sPBjc507pnIc99cM/ZmF7Xd6uwLKFISgbwggCOV627rwvnuARNGU1YRc2LjQPbXwpJ+B7mHT8ghkyjhtMV5G1/Htcn1lOpekuiaRA+2JbonpGNfqvsAEekbav4pcQ5sHNk4+3mgh81Eo5fH2FRu3IA5dU70hxM+lYJUbH27ZJx8vY4iIAIiIAIi0BgE2HsbZ++NN95omzdvtocffrgxzGiwPom8xrGLMxVHLx1zxHkLBxyqlBGBzd7TOLuDIDAcy7feeqshSz1bs7CfNs5p9tzu16+f29Oava0pC4LA7VXOCzuRT5awhxdTjhkzxm2lEd/PIYccYieddJLbN9v3E68LRzyR6DiifV14S5UgCIyxsf2Id5IztiAIXJ9BEFh425FwHTzgxVi9bhzliZzsvr4+R+bFO7l/9rOfGb8I+MUvflF3lWopAhkQiLxzm5+647zg57b8JHSXRevc8FZd8V/uC5E7ycKH/4k7RxzX/ETVvySI6B2ieKgjkaeMbnGu8JNh8vEJp42PbIyvC5/H9xeuU14EGpPAovHj7ZtHJ9iezTZVm7F2i9n8yva2cs+edsgTk6zPc89Z2549q+uVqR8BIjGJYOQn70EGL5usT68403Ba1aYDe/j5PfditkFAnp/vW2mp4WBLFBWJTG2JSEl0siUBstzzubeST5XWP/mIc/yxnQD321SyqhOBKBHAecwvNtg2hESeMhzKHLm+uCZ8anXOj5Oaz4OlitgDpniB+txLkt0T6mJfvF3x59xXiPbmvscDPT9m92+tjp3jxbN+juM62Xiz3pkUikCOCEitCIhAcRO44oorrKyszO2rXegkiFgmhceJ8zZ+iw4c1n6rCiKrcUTThrbwoox62lJOIk8ZyevDIU4efcigZ+LEic4ZzjmOdF7WSRt0Uk85iZdd+jp0UxafaI9TmBeEUoccusKJ/rED3fQRriNPG9oyNs7DiTLqSESn8/LH3r17c5qzxHhwchMlzjFnHUmxCIQIlITykcvi3GA/17Djgi9BbX92XfVer0RdE31NIo+jmMhqnOJ+QOSJBCJRh4yv88fqCKc3Xnb7XRJBROSQ10skIe1JRGNjG3pwgvOliCgr+vH6OCKDLG3D5+gg0Sc2s39lfH/IK4lAYxJYMXWqfXDJJbZHk/VWEphtrjBbVNHaFpZ0tD1uud2O/eBD63raaY1pYkH2TdSjd1axn+6GyU/kdJxEi+JMwxHG/WjdhPFJ++Nexj2NexvR1kRxExlZuutu1qzf8dV7CHNvZF9aZGpzOnMf9PdDHh6yfy2O8kSRqGHDsIG/DzjEWvT/j+oq2tHeO9oZV3WlmbIiEAkC/FuGLUQ2vvqCkchTxrWIo5toa67H8DWXyHC2EeLfIGwl4q87L1fXe0mqe0Km9nlbajsyDv4dxBYhjIN/q8X/myqRjvD9I1F9OmVshcJ9xN8ramOejk7JiIAIiIAIiEBDE2AriIbuU/1lh8CwYcOMFz8SmZ0djTtqITL8oYceMqL9cZTvKJH9EpzcbFOSfc3SKAI7Ekji3N5RsDFK+LLGlzaiasL9xzsvwnXxeb74lH/1hXsxE9HfOI14WVm8nD8PmrcwIib5ooOThShFbCCyiogiEo6TNXfd4va5TfflRnxJpQ1fWok+RzcRj5TH98cXXG+PjiLQGAQ2L19uM3/4n7Zn6wrjxZFfb2lqc8pKrP1Fl9hJixfbnkOHNoZZRdEnjlruMWxHwK9CmvXua+7n+RvW52T8OJ95gMjDvH/t0dqIoEzWEdGjOKyxDVn2CeZhI/csoq9xcLOtAIk8Zcl0+XIc2kSp+m1OsKPdDXe4fXe9I42Hh/5Bo2/n/z7gEKM/HOTIYEur84e4l+xR5uV1FIGoEfBOZLfO+xztzGP98m8CrnmuMdZ+x/seSbqfPNcP/55AbunJfazpIdsjcep6L0l1T8jUPjeoND4Yh78PcD3z0Iz7UnxTx6pvP2O8XO+VmzbGi2R8zi/x+LccD8u4Z6A7FXPfAe24z3HPwhmPU97X6SgCIiAC+UdAFouACGSTABHTPqK6Nr1EZBOdzbE22brW49BmX3YixeuqQ+1EIMoEIu3cBhxfZPgZLHmf+HLFFx+c1jiHfXmiI1+YcFDzM3ccMjiqE8mlKuOLXm0vZUrVPlxHFCZbqvClzf3ktlOXcLXyIhAJAji2269ZakHs/3M2tzE76Qw7fu48O3D0GCtt0SISNuajETiH+ck99yXs517G/YlEnjIcJtwbkGNboy4vv2ucU047yjlyX6IenbSjzNehC50k8uE6ZGlDW3QQAc39EccS7Yn2THTfpR0JhzVyJK+DclK4jjxlpFT9U4896PMJecqxnTFQzpFzyknxbcIy4TrsoM7rpK2SCNSLQJYac/1xDZHIe7Vc61zzrFuSX7vIIMv69rI8wMe5ypY+1AVt27ktgggCCOuhLtm9BF3oRIY+arsnhPWmsg+7fT3XLtcwiT23vQ6uT/onYQPyJORoQyJPIk8i72Wan3Cq4dynfTh5OWTJx/cXto12jJvxo5dEPeUcw+fYiBzy1GM/9cwXfVCmJAIiIAIiIAIiIAIiIAIi0LAEIu/cxhldsWxJDSo4tIlqqlGY5ISflxKJQzVR10Rkk88k8eURHfxMGB38FD+T9sjy5ar1+UPIGg5uIrJc1FGOojFdR438oe7zk8CcKy639e9Ns3XNWlvZvr3ssMnPWO/JT1vr/fbLzwHJ6pQEcNIQjU20Ivc5jjx8ozxlQ1WKgAg0OgH/ktdEv3yoq3Fc+/lyT+DfZ4wTJzRHJREQAREQAREQgcYjoJ5FQAREoLEIRNq57X+yu3XhfMcHRzV7MLInIz9F5+fzOI1dZYIPnOA4pHFG46xJIJJWEfsw4hTnp8Kp+qtNGV++iPDBQY4+nNz8DLa2dqoXgYYiMH/MGPv8/v+1rS1a21533Gn9Zsy0Lief3FDdq59GIuCjD7k/kYhObCRT1K0IiEAGBPg3CdHJXLc+8W+NDFQkFM2XewJjxdaEg4h2oawTAREQAREQAREQAREQARHIEoFIO7d99BA/mednsuwfuXnqm0aEEj+bb3X2BW7fa5zcRHLjzPaOb/jwpS9ct/Gl5wynOHWZJH6mz17dFcuWWl1f8MZejOzJiHOen66ypyw2xO8nTpmSCDQWga+f/aPtOmignfzNEtvjJz9pLDNC/SorAiIgAiIgAiIgAiIgAiIgAiIgAiJQ+AQ0QhGoG4FIO7cZEhE5RF2zXzYvGUrknMbJjfOZ+nUTxhtR0bQlhetwkruXs331heEIpz5RwvkcfklQsyOPcXtYYkP8C95wsvOSSH7Kn2qbEXSGX1iEg559Iok6oi7cH47wRHapTARyTeBbf51ih/7+EQtKS3PdlfSLgAiIgAiIgAiIgAjUlYDaiYAIiIAIiIAIiIAIOAKRd25jJT+R9z+39ceO9z1ia+66xTmpifDmBT/U8fNcXuyDU5y24TpkeKESMjiUOZKI8MbJTHuOtKM95+gicpsj514H5+igLTqo48g57Um+b+wPnyNLog/KSeQp83opUxKBhiYQlOTFLaGhsai/DAiwBy57d3OsrRkPGfk1S64e6PGLn2969zC2tKrNFtWLQFQJcC1xTZG4XqJqZ9gurjnsTZSObhqWzG6efrnmufazq7lKG3rX3nNb1Yk+RUAEREAEREAEREAEREAEIkEg7MmKhEHpGoETOt6ZnG5byTUMARxWbMUS/nLLl3TfO3nqOPoyf8TpRSQ8ibwvjz9ShwyJfHw9uvmySzn5ZP1Rn2niSy5fotEZTmFbcETAABap+qceOeSxA5vRQzlHzilnjJyTyFOWbgr3T1t0kMgn00EdMiTy8XLYi93YGV+X7DxsBzLoRU8mOmiXKsGLOaGvVHKqyz4B7s08qONYm3Z+TcNWU7XJ1bU+/gFjXfWonQg0JgHe+8GvxLpOnWs8CG9MW9Ltm4f63Af8O0Z498kui9YZZdO2pKslWnL8jVr10x9ZxZrV0TJM1oiACIhA3QmopQiIgAiIgAgUBIG8dW4XBP0CHgSO36Un9zG2W+HLLKnLs1X7peN4rG3oRMDz8IJEvjb5RPXYwDYyvg5nG3Zw9GXZOHa49yH3hR3dOB82vzfV/ItCcUTUJRofxwBj59cBHDnPhq1eB0zRSyLvyxviCH9YcaS/XDs46aOhEmuOBx5lI4cZR/9QgDWPs53ky7DJy1NOCjvjw23iHyAka+fLaYt+9Hm9PESg7xWDvmsk7EOeRB45Em1oS0IPZSTaooNEnsQ4qQvbR3vKOHrdRDoiQzkPMrzutb+6w70HgXsFsjiPvByy6ECWOmxMpCdcTxtSfDvGQVmyOnQoiUBqAvWv9euYdUhiXaLVl/vz8FqljOuk/IvPja3RqKONT5yja91vfuXuOeRpE19POdcW1xh1vh1HzmnDNYYtnFNOG1Kidsn6o21t6d9KzdnK/YM+uZdwX8EG+iP5MsrJk5CnLmwPfXFPoRxdW2ZNp6g6hXXGt6sWisvACFl0kmCBHWW/uMzdr5gP7KEMXvSLHAnZOHU6FQEREAEREAEREAEREAERyDEBObdzDLjo1G8b8PonH3H7lLcZftW2EjOcmewzvn7CeOPLo68gKo0vhSS+pFLOl0a+PJLIk8gjQ+ILK3LxifbUb3z5OSPCCocA+6FTzpdO6jiSfB4d/guq18uRehL90j9ytaWSLju5cW+d/4kTpV++JIfH6ypiH75P+uBLc6yo+j/kaUcdCT3VlbFMZdkqW/njHxp1yCEfKzbkOMcJSB1fuumHunBiPIyLRJ462tKGFC6nLll/1PnkmXGkDJuwBX0kmFPO0Z8ji6OAvfRrc3D6duk4VZr02MeIdCzp0pUuGzxVrC4zHnTgPp7iAAAQAElEQVTw8GDLzPeNNcjDHaIYyxfONxz6cGdrJfbsJ6KRa2P1zT931wZzhgwPTmjDANaOG8vBqFs+8DTjXQQ8JECGhziUO4FaPrZ8PMfa3TTW2GKJ9cp14nWFbYB3Iru9eh7itP7Jf7tx8s6DjS8956t2OG75aI51fuZ1w1Ye/GArD2zoj3ck7PTqdDdfXAelsbmDB7Lx40qkJxXHsCFNDujp3sewNcaf8s3Tp3GwZn2Odkd9iEAuCfh1ypZqXLesfa5xroVU/frrhPsZ9xT+jiaSL/96sbum0ev/xqKba4hriWuKa4trDFsS6fBl6bRL1J9vn+4xnfuk15XsfsN9ir8hjBE+6PRtGAeMqYu/j3qZ+CNsYAQrmNEWhvxbov1t97p7CIy5tyOb7P4Zr1fnIiACIiACIlCwBDQwERABEYgAATm3IzAJhWYCTk22GuDLYXxUMPuX4wirWLa0xrD5ss+XSL6k8mW1RmXshC+oOAX5goqTEKdbvNymqW8a7dHT4tT/MF7giUOAcyKoY2qq/0vl6EIv+umH/uiX/qsbp8hsjTnxcNQyzhRibq94HJulXbsZfbQ+f4iLCPNtcGS2ipUl4+IdlHyZh2fYsUj/OEzRi34eNHi9yY44mZkz2qATRwJOSC+fqj9kGDeM+NKPM4Yv/YkcBDgbkPcJWdpk4uDM1KnCegw72XGskyijztuSzWPzb59kfu3z8IbxseaIxOfXDOWhl9pumPyErbriv5yzOj7Kn3XI3FLu13C8U7ZF//9wD1TSmWfGyNrguiDPvLF+vIOXPugLO2uzm7WFc5xE3j/QQW98Ku2+u+PBQwecRBXLlsSLGOWsO8/O2xSWTaUnFUc6Y0yw3/TX19wDBI5hFsgoiUCuCHA/wCHKAzceOvK3Kpt9+b85HLmmK2J/Y8P3Cvrn2uLvGffnVH2n045+0MHR98d5Jgl7sIs2db3f+HbcB9GFTvSFU6L7aLg+nE/nPuTlU90/vUz8UeciIAIiIAIiIAIiIAIiIALZJyDndvaZSuM2At4Rte3UHRI5t1qcdJqr48spTkC+rLqCbR8VK5cbjlccUziocBIit3VbBCZiOLbYagFHKQ5TylIl9KAPBxcOTo7e0UX/6KcfLxd2Rsbr5YszzlLSsjOPN/YWbfn9gfFiNc79F2gc2PRBX/TphXAywgMHLPp9uT/iTMSpSCIfdiziuMSBwhd9HjCksh19ODrc+Psdb86W/Q50EYBhjvRBXyTy4f5wpjNu+BEBjE4/PhwN2JHIUYlcfNrWzlK1w5lCO47JnCqMv+n+PQ17GRMOWx4UhBNl1KErVwm28IfR1/vv5CLtcWrhYKJPHmpwZP3+a4/W5iPm2SvaryHmn7XFAwhkYc8cMDbO65PC11BYTyq7KzducKKsLebWndTywVzVImIVMYc38+/HyxYMnIdtTKQHG5JxjO+Tew0O9E1vv2Ec/TqLl9O5CGSbAH9nuJ/zq4vOk150v2LIZh/8bY3Xx72Ca4hriXsI11aye2a4bTrtEvUX1pFJPtv3G993qvuol4k/pnMf8m3C9yZfpqMIiIAIiIAIiIAIiEDGBNRABOpNIK+d23whwhlEIl9vGhkoIAKV6CvvcMqgadqi6KYP+kq7UYQEcerFzwtfBr3zNV1TK5YtM76Q4xTkCzpOQpyFfAGP10G0cbq8Ejm60Ifd6Kcf+qNfnJHxY0GWRGS4d5oS+Yzs8u+f6KJDqc800Q9rmv7b3XCHEUEeryOVYzFTxyfOSmyO7yN8nqo/L4eDli04OM/EQYC8T+m0S8epguO3yUEHu2hh71RiLsMJRxN1vu9cHHG88pCHBxesDb9OvGOdLQYoow4ZGLKGsYUHHNT5+ScynrWNg5froWJZzV8/0CbTBEucXxUxx3K4bUq7O3YOi2YtzwMJ7g3h64nxhx+yJOssFcdwGx4icX2sf/x3rtg/dHEn+hCBHBIgype/K2xLgtM1h11Vq+ZewTXFr3G4lkhsR1Rb/3VtV91xhpn63m9S3Q+T3UeTmZjJfSjZ/TOZbpWLQHYISIsIiIAIiIAIiIAIiEA8gbx2bscPRufRIEA0LFHROExx1IatwiGNcwnnY7g8Vb6kSxe37QJR2Xw594kvrb4djkHvBEx3e4ZEjq6UX7I7dfHdJT36sScViKuAR1xR9fYMOPlw2sXXZ/s8aNHScF7j1I+fr3T6wnkCe+Zg3YTxbsuVTBwE4T7q2i6sgzzzwPpgPsnjTPbrxh8pow75XCb3EOXv7xrOLZzpONXZ3zycxw4eZGBHkx77GFvj4IjnyBpg7fvrxjtk/dYBbFuCc6fV2Re4SHXk/LriVwjoTJa4Bpg3Lxd+oJbM7mS66lvOOiL6n18RsA7DtqTSnZRjjGN8Ozhzb9r0+kvWrG8/t893vIzORSAXBPy9bevC+e7BJ/ti+35K4t7V4K9HX1/XY/hewTXFQ1MS+bA9nHPd+X5StfMy2T7W9X5DOx7QcT+MHwf3z2T30XBdeCyZ3IdS3T/DOpUXAREQAREQAREQAREQARHILYGS3KrPTDvODL6IkHAA4bTwGvwXEerio5kTveyOtujAiYQO3z7+nPJwv2Hd1NFfbS+w833RH3n6C+v0Xyb54kWeVDZymNuiINyGdthHn9ixZdZ0ivIy4WjD4ca+y4ybQcCEKGi/FQdlJO8QxUlHZBtfVin3qaRjZ8MhxdYk8PXzwtHL4JxtetgRxlYORL4S4errkh2TObroHzvinZHJ9ITLnX1T33TOYhyr4bpw3n+B9mOiL/pEJuzogB18KM9Vwk62Z2CbBpwEjIF1yVpMp0+cqXzJZ16JPCZ6248PhwljYO5Z07XNS13bxdtJf1xH4TUSL9NQ5zineVDB1i1E47NW2b6F9ce+8KxXbKUeJzbyJN+GOq4bnN+0IeqSbQ2I5KaOI+eUU888IE9dbWNEPmwD2xb4yNKwDWG7a9OZSb2/1tDPuuGFbTwUY4uWsC2pdMaPIcwxUTv6pJw1z9onryQCuSbA9cnfJ9Y16z1o39E9yORXE6zhTK7bdG2lT65n+uSa4triGmPdU+ftYduSknbtq9VSl6xdtVCWM3W93/h2jDF+HL6OewL3Q+6L/j6azHzYwAhWMEMvLGDCPPFvEfTwNxIdye6f1CmJgAiIQFQJyC4REAEREAERKDQCkYncxumFkwaHDj/RBzQv1eNI3cpLL3DbM+yyaJ0169vPeBkfTjPqE73szn8JqXYeLpyPqPnoVKKniFi0pk1t458mu5f60S+OurBuGtX2AjvsxJHLlxz6xaHGFyKiWdHJlyTGhi4STsTWP/lv46fCtMOp68r/9lb1CxGpq1hdRnFeJr4I7vTqdGPsfEHki6VnEr/NANs2IEM9888X0vhB4wzEKYhTgC+qyeTaDL/KRXkTve0dpejlgULlpo3xai2Ro4v+0U8/9Ee/9L9D420F6Gd8JOQp5ssxX5LJJ0rUIUMdbXBgu/UYK2ANeUcHXMoXfOoiTFmzseqc/Mec4OjAOYA9tY05kRG0Z79xxkI94/PzDyPvIKAunJgDHPv0W1cHZ1hfY+ZZ9/zsH55hOzj3EeO8VI75p97L+zqizSknhdtQz7qknBRuR3+cU04Kt0Ofb0uf9E0ijyyJtuhAjhTuJ6zLt6MteRJ51itR8PSFPtp7PV43euLrwude3uvinIQu5GrT4+tpQ/K2+HLfP7rQiUy4jHIlEUhAIKtFrEvWHqnzky8aR9YjnbAeOSd5OV/HOdco6xnZcEKGNhwpR09YlnLqSVynXGPIkdBLOfLtR9/v3rXg+0jWzpdzREd8f5SFE/3Rr79fUPfPcnN90ZZznzjHHpKX5x5DnkTe68P2+HaJxhHWiV5vN0ceJnod4aPvA3kSsr6efiljTMjBi34pI4VlfRsdRUAEREAEskOgsrLSEqXsaI+elkRjpSx6lsoiEch/AlxbiVL+j6x4RhAZ57ZHjhMMZy9fHPgSQTk/N8XpTHQoX274kkMiTz11RLuSyPuf5OM0w3lcsWyp+TIcy1s/nmtElBKB0+yIb1mniX82+sS5hpMNneHE/pOcc/T6OCdhL1E8YccdPynGUYm9fPmhH+9Upw02YiuJvLfNt+NFgoyNyELko58SW8jYmUe+8PkU/uJHnnLmmSOJL6KJtMGDOUeG5OV8OXXkfZ/o5Jxy5Dk2P+HUGs4E+vE2eH2UkTinHYm26KI8nOK/1CJLYszYgSx2+HPfF0fqkKGONvRBHnnqwv13efndakcAdiBLIu91+HYc0UM59ciRyNMvfXHknHISefqkLfUkX04deRJ59KIfWd+Gc8qpR45EnjLq0EeiX9pwTHTuy9JtByOcCswDesOJOq8vXK68CIiACIiACBCEAAX+HnFUEgEREAEREAERyIRA+rLt2rWzVatWpd9AknlDgHllfvPGYBla0AQi49zGQUXkJ7RxGBMFy9YCnHvnL/lEiShTnGnxdewpSdnGF54xIrjbXXuri+rd/P7fDCc3zmq+4NAXzm6irIk8pU04sQdu+DxRnmhVIslJOLJxkuMsRzfObyJYeXEfbZPZS52SGZH6RBCzxUXr84e4lwKKiwiIgAiIgAiIgAhkgwBObf+QNhv6UupQpQiIgAiIgAgUMYGDDjrIZs+eXcQECnfozCvzW7gj1MjyiUBknNtA44sG0ZZs58E5W3ng6MQJHR8xTX1tyW9LsfHFZ80qK6358d9xeyGzDzRteWmSj5ZmC4VEDnLkUiV+1soWFjhi2VIBHWyzQeQ2znLGQyKClb2jU+miri7jpF0hJR50EJELN76AFtLYNJbkBFQjAiIgAiIgAiIgAiIgAiIgAiJQOAROPvlke/755wtnQBpJNQHmlfmtLsgwI3ERyCaByDi3fQQ1RxyaOI3ZsoOtO3BCM2i2J+HIi+54mU/FyuWcJk04mtnaY/OM98yCwEr36GGcW+x/7NuN8zvsOMc5jZM6Vp32f7RnGxGc2T56m+1QiNzmJYGZvJyPdrzQj3ESAU40edqGSFAEREAEREAEREAEREAERKDQCGg8IiACIpC3BAYPHmzjx4/X1iR5O4OJDWdLEuaV+U0soVIRaFgCkXFu49AmApqX+PmtPNrdcIex/y6RvOxp7bcr2fDMJHMvb+zYuVZaOMZxYrPvtdPVYx/XhuhqnN84pnGisw0GL61s1ruvewkizmUnmMYHerEVxzgO8vBY2JqEbUhSvZDQd+HbMU7sKWnX3lfpKAIiIAIiUCsBCYiACIiACIiACIiACIiACESFwP77728/+tGPbOTIkVExSXZkgQDzybwyv1lQJxUiUEcC25tFxrmNSf4lcGxHQcLZSzmJPGUktqzA4Y1zmpfXkcjjZGb7D7Y3oQ0JOeR9mdfjz30br5eX96GDci/LEV3Yhy50kshTRh0y6ODIOeWck7x92EieRJ4+6MvbEm6H7vaj73cvEqQv6pREQAREQAREQAREQAREnvEmtQAAEABJREFUQAREQAREICMCEhaBRiRwzz332Icffmi33HJLI1qhrrNFgHlkPpnXbOmUHhGoL4FIObfrOxi1z18CRMqvHHquEbVPIk9ZbSNiGxvkOcbL0h49JPLx9f6cOmRI5H25P7Lv+9p7bnOn9JOsPyeQ5IOtdEh+mxr0IIrub3r3MP/yVMrSTehz2/OsWOZewpmOnvr0F2+X10W/5OPr48+R8RzJ086POzyW+HbJzmFYl7lIpk/lIiACIgABJREQAREQAREQAREQgewSmDx5sv35z3+2IUOGaIuS7KJtMG2rVq1y88c8Mp8N1rE6EoE0CMi5nQYkiSQkkNVCtpopXzjfun281Lo8+6axxQtl9emE6Hii5Enk66ILZ/Sqn/7IKtasds2JzCcan6MrSPOD6HySj9bPtH1t3RDdT7Q/vxioTTZb9ewNzx7xJPKp9MZzbAx7U9mnOhEQAREQAREQAREQAREQAREQgaQE6lWx66672rRp06xVq1a255572ogRI+ytt96So7teVHPfGIc288R8MW/MH/PIfOa+d/UgAukTkHM7fVaSzCGBrfM/Mf8SThy/OJC9ozYc1UtkNRHWJPLepI2vvVgd9Y085dQjRyJPIk+0L8lHDSMbTrSnftMbL1vZLy5zdq391R1GW8qoI2qY5PO0j49GpswnX4c8Kb7vLbOmG5HM1NE/7by99Fs2cpgbn4/Upj6cvH6v17dFH8nr9G0S9UcdTmj6oA2JMVIen9DPC09bnHy6kchT5uXoDz3Yjp6VQwbV4Ljlg5luvN5e344jZbThyDk2cE5CJzZSriQCIiACIiAC0SQgq0RABERABERABBIRYCuL9957z1q0aGFXX321c3QHQWBBoBQE0WOAQ5t5Yr6YN+Yv0byqTAQam4Cc2409A+q/BgFeKOqdmjUq0jjBIc5LSXFE4xCNb7Jm7M3uZaE+OpwXd8bLbZr6ptEePc1PONXa33avNTv8SGvz05+biwBv3qJabZMDerq6rQvnuzIfvcxLTF3Btg+cvmvuusV4KSo2ogtbcEhvE7GK1WXWdepco18i1sN1m9+baq1/8t+uvnzJ17bxped8s6RH9FO5y6J1LhKeMYXHmqg/7MSZX9pjH6MdtvCS1bAt6CS5aO2YXS3+fYCRsJEy6nziYUXr84cYY+44fqJjxdgdx9g/Zpxc3MfWj+YYtiPHww36xgZswSZsw0ZsjWuqUxEQAREQAREQAREQAREQAREQgYgT4CWEo0aNcpHcZWVlVllZqRRRBswPkdrMF/NW76UlBSKQIwJybucIrNRmRqDN8Kuc85NWOJ0zjdBtcdJpNLUW/f/D6SGS2xVs+6hYudw2xxzXzfodb2wNEu+YRoytUFYM+q5zZONYpSxVQg/6iFommphjs779rHT3PWs0Y0sUHLolXbq6aGUczTUEYiel3Xc35JrEHMs4iSuWLYmVVv1X2rWblXTZySXyRLlX1ST+xBbG2vzbJzmdPhKeo2+RqD/6xUld3a7P0U48bIsriH2EHfneme/LYtXuPx4KwNmdpPGBM5yHGzBse9UNroXXSR/wwTa2r5Fz2+HRhwiIgAiIgAiIQIES0LBEQAREQAREQAREQATSIyDndnqcJJVjAjiKu7z0jnMs0xWOzrXjxpLNSqpYtsyIesaxzPYWX++/k9smI5GjOD5yOpUBONVxCG96+w3jiPMVJ2y4Dc5mnPXLB55mnSe96KKzw/Xkm+yzH4eEiWjleJ0JBbcVVixb6sa67TThIVF/FTGHOg5uHi7AaEm/g4zzrdsi070iHMthRz7OfBzSlFHn5ep65CHDlpnvu+bMDzZgCzZhG/NYERujE9CHCJiJgQiIgAiIgAiIgAiIgAiIgAiIgAiIQOETSDhCObcTYlFhYxHgpYtsG0LUb/lXX1g2nKWMpaRLFyPqme0u2CbDJ/qjnkSfvMyS/PonH+FQayIyGb3rH/+dkyXC2GVCH2y1gbOebUl4kWKoKifZki47ubHiGM6kAyLLcVSzBYjnw7HVOT+uoQbHMw5o0r/2aG0k8iTqaghncELf8Gce1k0Y7+YeJzzlbNmCLSRenNkQHDMwXaIiIAIiIAIiIAIiIAIiEDECMkcEREAEREAEioOAnNvFMc+RHqWPbOblg2FndvXWGfvs5yKRidYlipcI6fgBeWco+1HjSCaiOixT0rGzsYUI23XQH/tPEwnM0csRId30sCOs5fcHWrrR20Sco3fT6y9ZswRbkqDbO42JgKbv9THHLeW5St4mP1b2reZllbXtZY4TmTH4CGzkaUf7sK1s+YJs2OFMnjLqwrKZ5HlIwMOCVucPMe8o9w8L2J6EtcEaIZHPRLdkRUAERCAlAVWKgAiIgAiIgAiIgAiIgAiIgAjkJQE5t/Ny2hrP6Fz0jDO2w68edtt6EAXMliE4mv2+y+yjjeOTrSlW//Iqa7p/zx3MwBFOW7atIPI4vL+0F0YfetHP3s7J5NoMv8pFPhO9jW04r9nOhK1FKlaXeXXVR+9IT7QlCUJEGeMwxzb6Dtp3dNt9VCzbvq82ctlM4bHCjf7jI7Dj+2Prk/a33Wvsae1Zxkeb45zHaY4THGe210GeMuqQ8eX+uAPHspW+aocjtrYccI7xwAK92AA7bMI2bMTWHRqqQAREQAREQAREQAREQAREQAREIGsEpEgEREAE8oGAnNv5MEtFYCMOYLabYNsJEi9g9A5MHKPsx015p4l/NpKvx4lNOduLcCQlc+Kij3bIkLycL6eOvO8PnaDniDw24GgnT7/UkchT5vVRFp+8DuQ6P/micaSdH7dvS5mvwxZsIpFPZBc2UR6vB3naoYtE/9gULxfuj3p0oZM2JOop98nXo5s+fDl5ymiLDP35vJehDJ2UNzviW8Z8+3FTRzltvS70kccG2pG8DDp9OUfOlURABERABESgEQmoaxEQAREQAREQAREQAREQgUYgIOd2I0BXl7knwFYaRCyzvUXr84cYTtLc96oe0iMgKREQAREQAREQAREQAREQAREQAREQgcInoBGKQO4JyLmde8bqoREI+Ahlon0V2dsIE6AuRUAEREAEREAEREAEMiMgaREQAREQAREQAREQgYwJyLmdMTI1EAEREAERaGwCqfqfOHGiXXDBBdazZ09r06aNBUGgFGIAuyAQkyDYzoB1wnph3bB+YKQkAiIgAiIgAiIgAiIgAiIgAiLQ+ARqs0DO7doIqV4EREAERCAvCNx+++3WtWtXe/zxx61fv36Gk/Lrr7+2yspKJTFIuQZYJ6wX1g3rh3XEesqLhS8jRUAEREAERGA7AeVEQAREQAREoOgIyLlddFOuAYuACIhAYRGYOXOm9e3b1zi++uqr9vzzz9uQIUPskEMOcZHbhTVajSZ7BLZrInKb9cK6Yf2wjlhPfl1tl1ROBERABESgkAnceeed1rp1a7v33ntrDJPzVq1aGfU1KnQiAiIgAiIgAiLQ6ATk3G70KcgDA2SiCIiACESUwCuvvGLHHnus/eQnP7Enn3zSObQjaqrMyiMCOLpZT6wr1hfrLI/Ml6kiIAIiIAJ1JMBDzi1btthNN91k3bp1c1p23nlnd75161b38NwV6kMECpmAxiYCIiACeUZAzu08mzCZKwIiIAIiUEWAyNrvf//79thjj+nLZhUSfWaZAE4O1hfrjPWWZfVSVwAENAQREIHCItC2bVu78sorbc2aNfbNN98Y50uWLHHnlHNeWCPWaERABERABEQg/wnIuZ3/c6gRiEA+EJCNIpB1AhdffLHddddd9r3vfS/ruqVQBDwB1hfrjPXmy3QUAREQAREoXAK/+MUvrLS01A0QJzcZziknryQCIiACIlArAQmIQIMSkHO7QXGrMxEQAREQgWwQ4GV/e+21lyK2swFTOmolQAQ36411V6uwBERABEQgIwISjhoBorOvuOIKa9q0qTONI+eUuwJ9iIAIiIAIiIAIRIqAnNuRmg4ZIwIiIAIikJRAqIJI2muvvTZUoqwI5JYA6411l9tepF0EREAERCAKBIjSLimp+qrMkfMo2CUbREAEREAERKBoCGQw0Kq/2Bk0kKgIiIAIiIAINCaBiRMnWt++ffXyyMachCLsm5dMsu5Yf0U4fA1ZBERABIqKAFHaRGs3adLEOHIeZQCyTQREQAREQASKmUCkndsVFRVWXl5uHIt5kjR2ERABERCB7QReeukl+4//+I/tBcqJQPoE6iXJumP91UuJGouACIiACOQFAaK1zzzzTOOYFwbLSBEQAREQAREoUgIN4txet26dffjhh/b888/bAw88YDfccIPxYqYBAwbYCSecYIcddpjtu+++1q1bN2vfvr21bNnSeErOizvY44wj55RTjxzytKM9etCHXvTTD/3Rb5HOaxaGLRUiIAIiEE0C06dPt6OOOiqaxsmqgibAumP9FfQgNTgREAERyJDAxx9/bNdff70dffTR7rtcEAQWBPmf2rVrZ5MnTzaOQZD/4wmCwM0P88R8MW8ZTrXEC5qABicCIiAC+Usg687tefPm2WOPPWYjRoyw0047zXr06GGdO3e2gQMH2v33328zZ850juvevXvbueeeazfeeKP9/ve/t7/85S/2wQcf2JdffmllZWW2ZcsWq6ysdFHbHDmnnHrkkKcd7dGDPhzg6Kcf+qNf+scO7MEu7Mvf6ZLlIiACIiACn3/+ue29994CIQINToB1x/pr8I7VYbQIyBoREIFqApdffrnbKmzjxo12++23G/dIvrspVbrvslHjwPwwT8wXW20xf9WTqYwIiIAIiIAI5CmBeju3//73v9uYMWPcT8R32mkn+/d//3cXoY1j+b//+7/tjTfeMP54zpkzx1544QV78MEHqyO3f/CDH9hxxx1nvXr1co6Krl27GvuZNWvWzD3tDzMNgsAopx45vmDSjvbo8ZHb6Kcf+qNf+scO7CGiG/uwk58WYzf2h/tRXgREIHsEpEkEckGAX+W0adMmF6qlUwRSEmDdsf5SCqlSBERABIqAwOLFi12k9vr1651Dm+9VfC/r0KFDEYw+f4fI/DBPzBeObuaPSG7mM39HJctFQASiQkB2iEBjESipS8crV660u+++2z2lx7G8cOFCu+iii2z+/Pn26aef2qRJk+zqq6+2008/3fbaa6+6dJG1NvSPHdiDXdiHndiL3djPU2vGw7iy1rEUiYAIiIAIiIAIiIAIiIAIiMCOBPK+hG0hv/vd79r48eMNh2neD6gIB8C8MX/MI/NZhAg0ZBEQAREQgQIhkLFzmy0/evbsae+//77deeed7kn9uHHjjJdtsB9ZPnDBTuzFbp5YMw7Gw7gYXz6MQTaKgAiIQHEQ0ChFQAREQAREQASiRICtLA4++GC77rrromSWbKkjAeaR+WRe66hCzURABERABEQgSwTqpiYj5/bw4cPt0UcfdduOPPHEE3bsscfWrdeItWIcjIdtSxgf44yYiTJHBMHYr4wAABAASURBVERABERABERABERABERABBqVAC8hfPjhh2306NGNaoc6N7MsQmA+mVfmN4tqpUoEREAEREAEGoRA2s5ttu3gj920adOMlzc2iHUN3AnjYnyMk/E2cPfqTgREQAREQAREIAcEpFIEREAERCA7BB577DEbMmSItiLJDs7IaGGLEuaV+Y2MUTJEBERABERABNIkkLZz+4EHHrD/+Z//SVNtfosxTsab36Ook/VqJAIiIAIiIAIiIAIiIAIiIAIJCbz66qt2xhlnJKxTYX4TYF6Z3/wehazPkIDERUAERKAgCKTl3C4vL7dPPvnEjjjiiIIYdG2DYJyMtzY51YuACIiACIiACIiACBQDAY1RBEQAAnPnzrVevXqRVSowAswr81tgw9JwREAEREAEioBAWs7t0tJSh+LBBx90x0L/KJZxFvo8anyNREDdioAIiIAIiIAIiIAIFCSB1atXa0uSgpxZM7YmYX4LdHgalgiIQK4ISK8IRIBAWs5tbyf7UA8bNsyWLVvmiwrqyLgYH+MsqIFpMCIgAiIgAiIgAiIgAiIgAo1KQJ2LgAiIgAiIgAiIgAhkn0BGzu1XXnnF2rVrZwceeKB95zvfMfalXrRoUfatakCN2M84GA/jYnyMswFNUFciIAIiIAI1CehMBERABERABERABERABERABERABESg8AnUe4RpObfZc5uedt99d7v99ttt3rx5duGFF9r06dOdk7tjx4528skn25VXXmnjx4+3v/71r/avf/2LJpFJ2INd2Ied2IvdOLUZB+NhXIyPcUbGcBkiAiIgAiIgAiIgAiIgAiIgAiIgAiYEIiACIiACIiAC8QTScm7H77ndpUsXO+ecc+y3v/2tffTRR/bee+/ZpZdeal27drX333/frrvuOjv88MOtVatWLsr7lFNOcc7wq6++2u666y575JFH7E9/+pNNmTLFZs+ebfPnz3fO8FWrVtmGDRts69at8Xa6c8qpRw5nNe1ojx70oRf99IOzmn6JxsYO7MEu7MNO7MVu7GccjIdx0ZH23IaCkgiIgAiIgAjkMQGZLgIiIAIiIAIiIAIiIAIiIAIiUPAE0nJuewrsRc2e1OxN7cs4/tu//Zt973vfs5///Of2m9/8xkVuL1682L755hv7v//7P7vqqqvs+OOPdy+p+Oqrr+yNN95wcjibL7zwQjvttNPsiCOOsH322cc5yFu3bm1NmjSxkpISC4LAHTmnHMc0csjTjvbooV/0op+XYRwf649+6R87sIfIbeSwE3ux20L/Y1yMj3GGigs+qwGKgAiIgAiIgAiIgAiIgAiIgAiIgAgUPgGNUAREQAQKjUBJJgNiL2r2pCYamu082KuaPauT6Wjbtq317NnTTj311OrI7TvvvNN+//vf23PPPWdvvfWWzZw50z755BP78ssvbfny5bZmzRrbtGmTi96uqKiwyspK40jUNuXUI4c87WiPHvShF/0+cpt+6R87ktmI/YyD8TAuxsc4k8mrXAREQAREQAREQAREoCgIaJAiIAIiIAIiIAIiIAIiIAIRJ5CWc1t7bkd8FmWeCDQ6ARkgAiIgAiIgAiIgAiIgAiIgAiIgAiJQ+AQ0QhGIFoG0nNvacztakyZrREAEREAEREAEREAEREAE8oCATBQBERABERABERABEcgpgbSc294C9qJmT2r2pvZlHNm7mj2s2cuaPa3Z25o9rtnrmj2v2fuaPbA7dOhg7InN3tjIsVf2hRdqz20YKomACIhAsRPQ+EVABERABERABEQgnsDUqVPde5iCIHDH/v37u+0s4+Vycf7xxx/boEGDGqy/XIxBOkVABERABEQgigSyaVNGzm32omZPavamZo9q9qpmz+pkBrHXNXtes/c1Tmz2wmZPbPbGZo9s9spmz2z2zmYPbfbSZk9t9tZmj2322tae28noqlwEREAEREAEREAEREAEREAECpfA448/bsOHD7ePPvrIvYuJ74bnnXeeXXvttbZhwwbL9f/2339/mzhxonXu3DnXXaXSrzoREAEREAEREIEUBDJybu++++52++2327x589wLIqdPn244uTt27Ggnn3yyXXnllTZ+/Hgjcvtf//pXim4bvgp7sAv7sBN7sRv7GQfOd8bF+Bhnw1uoHkVABERABERABOpHQK1FQAREQAQKhQCBT48++qiNGzfOcDL7cfXv39/KysqMICsiqwmkIlH+7rvv1oi0Jup76NChzhHu8yNHjqwRAY6THBm+Jx566KGuDqc6/aE/HLmNjiCoiiCnDW1J5AcOHOjavv7668Y5suhgHOhAF4k89UFQpcfLIUu/QRAYdmDnqFGjKFYSAREQAREQARFIQSAj57bX06VLFzvnnHPst7/9rfEU/b333rNLL73Uunbtau+//76x3cjhhx9urVq1MqK8TznlFMN5fPXVV9tdd91ljzzyiP3pT3+yKVOm2OzZs23+/PmG83nVqlXuHx5Ebfu+wkfK+ccDcsjTjvboQR960U8/9Ee/9I8d2INd2Ied2Ivd2M84GA/jCvdX0HkNTgREQAREQAREQAREQAREQAQiSoDvaZh2wAEHcKhORFETTe0d3myFecMNN9hLL71kHTp0qJZLlHnwwQetV69eLgq8X79+dv/991eLPf300/baa6+577cTJkwwHNHVlbEM5zfffLOrX79+fazEbOzYse7IB79YJrL86KOP5jRpIqDq2GOPdTagDwc+33HRT7+MGzs++OCDpDpUIQIZE1ADERABEShgAnVybsfzKJQ9t+PHpXMREAEREAEREAEREIHiIqDRioAIRIdAjx49XMAUFuH8PfTQQ110dBAE5iOed955Z0s3SMlHeKPvrLPOsrlz59qKFSs4NbY7wXGO0/yYY44xft3rKrZ9cL7XXnvZHnvsYS1btnTyvE8KxzQie++9N4daE/b26dPHyZ144onuyAf66Zf+sQN7KFcSAREQAREQARFITSArzu1kXeTDntvJbFe5CIhArQQkIAIiIAIiIAIiIAIiIAI5I7Bw4ULzUdI4fWfNmuXOL7744uo+O3XqlLZzu0fIWV6tYFuGum3ZpAciv/lVcBAEhiMa+7xzO532KE5m72effUa1kgiIgAhElYDsEoHIEsipczuyo5ZhIiACIiACIiACIiACIiACIpATAlKaDQJ+OxK26airPpzP4bace2f5smXLbOXKldXV1HGCs5qIbPLxiW1E2HrEJ7ZCwVkdLxc+px8fHR4uj8+nG/kd307nIiACIiACIlDsBOTcLvYVoPGLgAiIQGMSiGjfvMCJFDaPc34Ozc+iw+V1zfPSqKHbXnJVVx38JBsdRLLx4im+kJMooy4TvcjTji/gHDlP1h4GvBCLl2TFy9CO9tgRX5foHDnkaYc+9KI/kazKREAEREAEioeA35pj+PDhNfa/Zm9sIqiTkWBPaxzi/H3h3UxhuZdfftntmU0ZL35k323vnEaWNryocsGCBea3DkGWxPnbb79dbQv/LuDvF22oj0/op4ztRtgXnHyqFNbP30P24k4lrzoREAEREAERyDsCOTJYzu0cgZVaERABERCBuhG48847bc2aNXVrnKNWfIElimvatGnGz6Jz1E3GavlS/sADDxhO99GjR7s9QDNWEteAfUTRie64qpycNnR/ORmElIqACIhAgRCI2t/gc88915588kk7++yzq/faxulLNHSiv1P8jR4xYoTbMoQXO/bu3bvGzAwcONDuu+8+p4u/61dddVV1fffu3d3+3kSM84JKdFVXxjKcU059EFTt+X3rrbfu8LeXv2tXXHGFTZ482fWzZMkSO/DAA2MaUv+H/vPPP9/Qz7jZHzx1C9WKgAiIgAiIgAhAoFGc20Rk8UU8CAL3Bz8IAuvfv7/xhBqjePrNU/AgqKonTxl1OBiCoKo8CKqORL9RpyQCIiACIpD/BK6//nq3dybHKDi5+RvDF+C7777bfYHl7xF/l4g0hjZ/u3y0MX/fyFMfBFV/o7wcsuSDIHDO6NmzZ1PkktcZBDXb1KYP24Kgqg1/V5F3CmMfc+bMcf0EQWDIxYpctFkq+5DxtmAr54yPv9FBUPNvNXUTJkxwf8fj+6aO5HXxt5tzdAZBlb0wop5Engi3a6+91iZNmuScGIzF1wVBVRvao4e60DicDb6OeiUREAEREIG6EeBvLy9n5BiFv8GMAqcvv1AKbwVCVLevmzhxovlzynAMI0ubIUOGGA9scThT1759e/vd735n1IfLqePljpSTvOOcvsP6KaeexJYk9ItudFGHHhLt6B85HN3ooIxEnnbI0Ya26ODc2/7MM8+4v9naqgQqSiIgAiIgAiKQmkCjOLcxibdE83Mx/uCT+MN+//33U2X81OzYY491/+jwe6JR5ipjH+G9ztDBl2u+6Maq9F9KAqoUAREQgegTuO2226xJkyZ21113WdeuXa0xv2DjFCZCLFFkVjKS/Bza/w3j7xXtcdLyd4qfVvOTZiLAV69eXa1i7NixRsQYfw+pRw55BJLpw5mLbqLXaDdgwAB76qmnaOLSjBkzjH7QN2bMGPclmYpk+qiLT9iNw5k5oI/zzjvP/N9q9DA/lNM3zn/kvQ7+fvOFnja0Zzzw4O82dcgxbo6k5s2bG5yJqiNKDwcA9ZlyQZeSCIiACIhA3QhE6W9w3UaQv634ux4EVQ9zeWklf/9wdufviGR54xOQBSIgAiJQHAQazbkdj5cn5UTG8cWYP+IkZHiKjZPA74FGWTjtsccettdeexlf7sPlyouACIiACOQngcsvv9xatGhhOEA3btxo/EQaJyoO0oaMIuOnx4MHD84YIg9v2TeThvxt40ji79RRRx1l/ESav204fSlnj2u+0HpZ6pFDnvpk+ngo7KPGkIuP7uJvJ/3w8+bwz6GT6UNHfGLf0bKyMvcTaer428w8kK9Nzx133GHYgJ3Is+cof6/5u41djN//3ac+PhExXhcu8Xp0LgJpEZCQCIiAIxCVv8HOmCx/8PcoHCXt1fM3iXLqfVljHOmfB8Y++b+3jWGL+hQBERABERCBfCIQGec2P0fmSzD/uIgH+Nlnn7mItkR18V+849vW5zwIqp6cB4GOQSAGQSAGQRCYktZBQ6wBHL4lJVV/onjoiZObPaX5eXF97uuZtGWvSxzMfNkkehk70mnPi6n4SXe87MKFC+OLapwfc8wxbnsNorV4UZaXT6YPe9jOw89HvCO+R48eNfT7k2T6fH34yPhXrlwZLqrOp9KD/fvuu6+x9Qp2+kaUMz5sZryMMVzv5cJH5JCnHe1pQ32q/qnPZcIe0o033ljdDXnKSOR9BXnKSOTrWn7TTTe59VFfPdiADhL52uzJdr/0l06/yGAjiTztSOQpI5GnjJQtO7OlB9uwkUQeG0nkKSORp4xEnjISecpI5CkjkaeMRJ4yEnnKSOQpI5GnjESeMhJ5ykjkKSORp4xEnjISecpI5CkjkaeMRJ5/RM2FAAAQAElEQVQyn+dI8uXUkaeMRJ4yEnnKSOQpI5GnjESeMhJ5ykjkKSORp4xEnjISecpI5CkjkaeMRJ4yEnnKSOQpI5GnjESeMhJ5ykjkKSORp4xEnjISecpI5CkjkaeMRJ4yEnnKSOQpI5GnjESeMhJ5ykjkKSORp4xEnjISecpIV155pbvPROFvMPYoiYAIiIAIND4BWSAC+UCgynPQCJZ+8803LhKMf1SRiN76wQ9+sIMlRG2Rhg0bVl1HNB1tSESkXXrppTX2WasWrGfGPzXXsdJtESMO4qA1oDXQUGuAvSgrKircXZwHm0Ryjxw50saPH+/KGuIDpzZ2+JdNhbfHCvePAxhHQLgsUT6ZsxnZjh07Gtt1hPkSJU1dsuTtIcKddo899lgy0TqX46THtkwVXHzxxUZkdtu2bd1WY74925Jgq09EnuOk9vXxR/rOlEu8jlyce/vDTiHyuSz/5S9/abnUn8z+bPdrsf/RV+zg/iOfjXFly85s6cnWuPJND5OKzRxJ5LMxv3mix/LdTn4pxXzxt6+x/wazfpREQAREQAREQAREIB0Cjebc5ufM4S+sfAn+/ve/X/1SSYzHqc2+o/fee28N53X4yzFf6tlzlH1RaaMkAiIgAiIQdQKp7bvnnnuMaF7v1CaSbMmSJTZq1CjDWZq6dfZrsYO9o9m3mr9Lvgd+cUSe7TZ4YEs+VeJh7MKFC429sBkff7uQx7l70EEHVe+Xzd7Uhx56qIX7Qi5VYgsPry+VXKZ1OLeJ3ObvNW35W0u0OJH0nNeWzjrrLHv++efd33a2amH/b8ZHO+YTXbDgPD7hXKkvl3idOhcBERABEUhNIGp/g1Nbq1oREAEREAEREIHoE8i9hY3m3I4fGl/6idAiAo46vkDzxfe1114zXipFWaKE04HtTNi6JFG9ykRABERABPKLwDXXXGNbtmyxxnZqh6nxd2jEiBHGFhk4p3F2T5482f18G8d7eE/rcLtwHmct+2eigy022Fu7Xbt2ToTocH7B5H+RRF9EjrvKJB/9+/c3nOXoIsr7kksuMXQkcxYnUZOyGJt5wMyDZmzDgc5LH4mkT9lwWyXczjjjDPcSSvL88oq/9+jCeY8u/o5vEzfG0r59ezv77LPdCzDrwsXr0lEEREAERCBzAtn6G8w9ngeYs2bNMn55xd8mEmXUZWIZ8rTjV1IcOU/WngeogwYNcg9Vk8nEl9elTbwOHjLzdzlsmy/DZsYe3ybheYpCry/cRwpxVYmACIiACIhA0RCIjHObqDCiw4gS4w82X6BxcPPFOtVs8A8FXjYZ/yKtVG1UJwIiIAIiEF0Ct9xyi/tSygPOxojUhgxOaBJ5n3Ag83NtnM44avnCzjmO7okTJ7oHsZST93+7kOUlVd6ByzltSOwfzj7i1JGQo5xEX/SbSh99sK0H8hzPPPNMQweR4BzpCx3IYRO6SOQpow4ZZOnf5+Pb08aPlX5oS1ltetBJH4zFs6QP7CV5XchhA3U+T3/04c+RJ6ELndQl6596JREQAREQgboRyNbfYO7p3Nv5JZL/W1c3i7a38n8T0L29NJo5HNH8zeLXyXDA9mhaKqtEQAREQAREIP8JNJpzm59w++gtIriICiM6jC/N/NT75ZdfNhzd1JHCT7yJ/KKMRJRX9+7djX885P905GQEUioCIiACeUWAiO3GcmrnFSgZKwIiIAIiIAJZJpCtv8EEKfFdjYSDm+hob+qcOXOMMuqQo5x6Iq75zkc5iYAn6nwiqIl6X44DmWhpZDly7mUnTJjgfl1FP+im3LdHnkTftLnsssts0qRJ7vsk58jTDpmwXvrlZdPUYQf60BufKOdF1Di2/XdUdDI+9COPLq+DPHUk+kQ/8sihCznK0UmZT8ggS128negiUYcMsr6djgVPQAMUAREQgaIj0CjObSKuiMoiCssnzilnBojw8uX+6J94J6qjjHZKIiACIiACIiACIiACIpAeAUmJgAjkggDOWn6Fy3aTfJcbMGBA9Xsl6I/tvaZNm2a8h4H3WXjH67x584ztJmnDO5bQgXOXNvGJcpy9fA9EHkfy/fff78TQ07VrV6Ocvu+++273Lo+nn37aCIqiHNv49S8NCLAaOHCg4ezmHGf3uHHjXHuixOmH/qgjQOvJJ590v5RKFI3N+6D4RRf9eMc27WpLONcvvfRSo/1RRx1VzWvs2LGuKeWMkQAwCnCSp7IzmT7aKomACIiACIhAoRFoFOd2oUHUeESg4AlogCIgAiIgAiIgAiIgAiKQBgEcwn7rKcTjt4/EgY1jmF/xht9ZsfPOOxsvH6bNiSeeyCFpWrRokZWVlRk6EMKRjKObfDp6+LUwwVMcaeMTW2WS93p5MTL94FymvFu3bu7XxeQTpe985zv24IMPJqpKWUZEOH3CBT4I41DnXRo4tSnnXR0XX3wxVVabnYn0uYb6EAEREIF0CEhGBPKMgJzbeTZhMlcEREAEREAEREAEREAERCAaBGTFjgRwyvqtNNgWY/DgwTWEevToUePcn/DOB7al9OepjkRe876mRDLJ9OAARx6bSESYcx6fiI7GDmRwOBMJTn/IYTvbYpJPlIg4RxbdPhI8kVx8WSK9ONQXLlwYL1p9Xh87q5UoIwIiIAIiIAIFQEDO7QKYRA1BBERABPKAgEwUAREQAREQAREoAgJs/8Ewcc6yBchjjz3GaVYTzueOHTtmrJPobmzCAX3fffeZ3xIlrIjoaG87suHtM8NyifJEnBMNzlYn7PudSD/tUjmtqSfhRMfpTT5Rqo+difSpTAREQAREQASySKBBVcm53aC41ZkIiIAIiIAIiIAIiIAIiIAIFAcB9oZm7+xsjxbnNpHbfnsOoqSJFt+4cWPSrkaNGlW9rzZC7du332GLESK1cTyzLzgy6O3fv78xDs7TTbxL6vzzzzf2xfZtiQDHXiLb/X7fVfoSf7IVCVuUwI822OS3PMmWnYl7VqkIiIAIiIAI5BcBObfza75krQiIgAiIgAgULwGNXAREQAREIPIEcAbjICbymK1ALrnkEmPvaBy02TLeR0cPHz7c2D4EB/Ctt95qLVq0SNrFsGHDDDnkcY6zlzV6yOMox1YaE3Xt9fLCS86Roy6T9IMf/MCIvEYvfYwYMcKOOeYYO/roo439s9PRhQ7kYInt6OAce7ArG3aiT0kEREAEREAE8plAvZ3b/NSKF1ZwDIPgPFF5WCac5x87PG1nf7JwOflwHU/cE8kgF06+Df94oU24rhjyGqMIiIAIiIAIiIAIiIAIiIAINDQBHK+8UJItPTieeeaZxssb2QubIy+cxCbkJk6caEQ5k8hTRh0yyBK97PPx7WnDliG+H9pSlkwP9diDPAm99OXLqSOPDq+XI+fIIe9t4jycaEd7ZHw5tiNPOfU4uekXnUOGDHFMkKENcuRpixzbp5CnjDracRw9erQhTx12oYs6jpxTTj2ytOU8rI9zpcIkoFGJgAiIQDETqLdze4899rC99trLpk+fXoMj55RTX6OiDif8YeYPNH+o+UPPsTY17JOGDPup0Ya8kgiIgAiIgAiIgAiIQFET0OBFQAREQAREQAREQAREQAQKiEC9nds4ntkLjH3DiJaGDUfOKaeeSGsiqElEZ1NPIj9w4ED3U7Jp06bRtDrR5tBDD3Uv+WCfMn7eRnuSj8QmOnzQoEHVe6DRBp387I0n1OxJdtJJJzkdyKKP9uhCZ3VnyoiACCQgoCIREAEREAEREAEREAEREAEREAEREIHCJ6ARikD+Eqi3c5uh9+nTxxYsWGCLFi3i1B3LysoMJzJO5Ztvvtl4eYaPph47dqyT46Nnz57GT6nYe4xzEk5q9hTD4U3k97XXXmvsiYYcet5++23nsEY2UeIna7z8A8f5k08+6V4Uwss8xo0b5/oi8hudONgTtVeZCIiACIiACIiACIiACIiACCQkoEIREAEREAEREAEREIHIEMiKcxsHNFuQsAUII2NLkoMOOsjYW4w8dcgQxY2Tmshq71jee++9aVKd5syZY/fdd5/xQhDkSWxJQiQ2QryMA+c1+XQTDnFkeas0x7POOstwvntnO2VKIiACIiAC2ScgjSIgAiIgAiIgAiIgAiIgAiIgAiIgAoVPoLFGmBXnNg5otiB5/fXX3RYhRF2feOKJ1WNie5BWrVq57UeOOeYYW7hwoXnndo8eParlyMyYMcN23313F+nNOYlIbrYTIeHcnjdvHsUZpZdfftlFcKMDJzc6vDM+I0USFgEREAEREAEREAEREAEREAEREIG6E1BLERABERABERCBLBHIinMbW3BS44RmyxDyvXv3ptgltiVhSxGfXnrpJUsWfU1k90UXXeSit9kXm8Qe2+ilPQ7pAw880OmN/8BpHl/mzy+++GIjUhsdpFmzZtn+++/vq3UUAREQAREQARGIJAEZJQIiIAIiIAIiIAIiIAIiIAIiIAKJCWTNuU00NF1873vfM6K4iebmnP24cUyz9zbnOKp56aOP3KYsPuF0ZlsTnODxdZQRde3LybPtCPp4iaUvDx+xDcc3UeGUsx93//79XZQ55wWTNBAREAEREAEREAEREAEREAEREAEREIHCJ6ARioAIiIAIOAJZc26zvzYvauzVq5fh0HbaYx84qm+44QbDwcyWIER3+/20Y9VJ/xs2bJg9//zzRqQ20dxsZ0L7devW2VFHHeXK0T1ixAijjhdShqPFw4qx7d5777Xhw4e7rVHGjBljnFMellNeBERABERABERABESg8AhoRCIgAiIgAiIgAiIgAiIgAoVJIGvObfBcf/31lmi7D5zebAVCIvIapzKR3bwokjraxp8jM3HiRLd1CC+TpC1pyJAhFm7n6+jX16Er3B79OMKRQQdHzilXEgERqEFAJyIgAiIgAiIgAiIgAiIgAiIgAiIgAoVPQCMUgYIgkJZzu6KioiAGq0GIgAiIgAiIgAiIgAiIgAiIQOYE1AIC7dq1s1WrVpFVKjACzCvzW2DD0nBEQAREQASKgEBazu2SkhLbb7/97P333y8CJObGyXiLYrAapAiIgAhkm4D0iYAIiIAIiIAIFCQB3os0e/bsghxbsQ+KeWV+i52Dxi8CIiACIpAhgQiIp+Xcxs6hQ4faNddcQ7bgE+NkvAU/UA1QBERABERABERABERABERABNIkcPLJJ7v3IqUpLrE4AlE+5X1XzG+UbZRtIiACIiACIpCIQNrO7SuuuMLtf82LG2fMmJFIV96XMS7Gx37cjDfvB6QBiIAIiIAIiEB+EpDVIiACIiACESQwePBgGz9+vLYmieDc1McktiRhXpnf+uhRWxEQAREQARFoDAJpO7cxbty4cXbeeefZGWecYeecc45NmTKF4rxPjIPxMC7GxzjzZ1CyVAREQAREQAREQAREQAREQARyT4AgoB/96Ec2cuTI3HemHhqMAPPJvDK/DdapOqojATUTAREQARGIJ5CRc5vGw4YN7HVh1AAAEABJREFUszlz5tgRRxxhV155pe255542fPhwe/bZZ2316tWWD//DTuzFbuxnHIyHcTG+fBiDbBQBERABERABERABEUhBQFUiIAI5IXDPPffYhx9+aLfccktO9EtpwxJgHplP5rVhe1ZvIiACIiACIpAdAhk7t+m2Y8eOxrYd7733nj399NPWo0cPe+ihh2yfffaxfffd1wYOHGi33367vfDCC7ZgwQKaNFqif+zAHuzCPuzEXuzGfsbBeBhXoxmqjkWgEQmoaxEQAREQAREQAREQARFIl8DkyZPtz3/+sw0ZMkRblKQLLWJybEXC/DGPzGfEzJM5IiACOSQg1SJQaATq5NwOQzj88MNtxIgR9txzz9nSpUvtT3/6k9u2ZPny5fbrX//aTjjhBGvRooX17NnTTj/9dLv44ovt5ptvtgcffNA5xt966y2bPXu2ffbZZ7ZkyRJbs2aNbd682SorK8PduHPKqUcOedrRHgc1+tCLfvqhP/qlf+zAHrYdwT7sxF7sxv4aHelEBERABEQg0gRat25ta9eujbSNMq4wCbDuWH+FOTqNSgREIAEBFSUhsOuuu9q0adOsVatW7pe8fK/iexkO0yRNVBwBAswP88R88Qtm5o95ZD4jYJ5MEAEREAEREIE6Eai3czu+1wMPPNB4EcWYMWPsxRdftIULFxqO5UmTJhlbfhx22GG2detW4+WNjz/+uN1444124YUX2ne+8x075JBDbPfdd7f27dtb06ZNLQgCKykpcUfOKd9tt92cHPK0oz160Ide9NMP/dEv/WMH9mAX9pn+JwIiIAIikGUCDaeOL2M84Gy4HtWTCFQRYN2x/qrOovt5/PHHu3878W8kbyX5IAhUHvt3ZxCIg9ZD1ZURRQ5VluXPJ1tZ8CtYgoquvvpq4x4ZBFXXWBDoGATRYsD8ME/MF/PG/OXPapOlIiACIiAC0SEQLUtKGsIcopwOPvhgF9E9dOjQ6shtfv70xhtv2MyZM+3TTz+1r7/+2v2sbcOGDc4BXl5eblu2bDGOOK4pLysrc3LI04726PGR2+gnQpv+6Lchxqc+REAEREAEGo5Anz597J133mm4DtWTCGwjwLpj/W07jewB5za/gMNx540kTxmJvMorTRwq3S8jxSE6HG666SZ/aebVkZcQjho1ykVy812N+0yhJCai3mOprFpjUdDD/BCpzXwxb4xPSQREQAREQATynUCDOLfrComo7dLSUhe9XVcdaicCIiACIlBYBPr37++2wiqsUWk0EIh6Yksz1l/U7Qw7K6Nuq+wTAREQAREQAREQAREQAREQgfoQKKlPY7VtNALqWAREQASKlsCgQYOMn9J+8MEHRctAA294Aqw31h3rr+F7V48iIALFQOCXv/xlMQxTYxQBEcicgFqIgAiIgAikICDndgo4qhIBERABEYgmgZ/97Gd26623RtM4WVWQBFhvrLt8GFxxR27nwwzJRhFITEDXbmIuKhUBERABERABERCBVATk3E5FR3UiUMgENDYRyGMCvAxpwYIFNn78+DwehUzPFwKsM9Yb6y4fbM7XfXvzga1sFAEREAEREAEREIG8JCCjRaCACci5XcCTq6GJgAiIQCET4EXCRNL+8Y9/LORhamyNTID1xTpjvTWyKepeBESggQg0VjeK3G4s8upXBERABERABEQgnwnIuZ3PsyfbRUAERKBxCTRq74cddpg988wzNnjwYEVwN+pMFG7nRGyzvlhnrLd8Gan27c2XmZKdIlCTgH51UZOHzkRABERABERABCJFILLGyLkd2amRYSIgAiIgArUROOWUU2zKlCn229/+1s4++2zjpX+1tVG9CNRGgHXEemJdsb5YZ7W1iVK9oj+jNBuyRQREoDgJaNQiIAIiIAIiIAINRUDO7YYirX5EQAREQARyQoCI2vfee884nnzyyXbGGWe4SG4clGvXrs1Jn1KaRQIRUMU6Yb0Qqc36YR2xnvy6ioCJMkEERKAICOhXF0UwyRqiCIiACIiACIhA1gnIuZ11pLlTKM0iIAIiIALJCfCyvyVLlti5555rU6dOtUGDBlm3bt0sCAIlMUi5BlgnrBfWDeuHdcR6Sr7aol2jyO1oz4+sE4FkBHTtJiOjchEoTgIatQiIgAiIQHoE5NxOj5OkREAEREAE8oQATspHHnnE5syZY0TkVlZWmpIYpFoDrBPWC+uG9ZMnSz2pmUW4b29SFqoQAREQAREQAREQAREQAREobAJybhf2/Gp0IhBHQKciIAIiIAIiIAIikB0Cd955p7Vu3druvffeGgo5b9WqlVFfo0InKQkocjslngapZM1qTTcIanUiAiLQIATUiQgUBwE5t4tjnjVKERABERABERCBIiGgfXuLZKIjMMwhQ4bYli1bjF8LsL0PJu28887ufOvWrUY9ZXmRImAkHCNgRlGbwJrVmi7qJaDBi4AIiIAI5CEBObfzcNJksgiIgAg0JgH1LQIiEG0Civ6M9vwUknVt27a1K6+80tasWWPffPONcc6e9ZxTznkhjVdjKXwCrFnWLmtYa7rw51sjFAEREAERqJ1APkjIuZ0PsyQbRUAEREAEREAEREAERCCCBH7xi19YaWmpswyHIBnOKSevlD4B/eoifVa5lGTtsobpI8M1TRMlERABERABERCBBiYg53YDA1d3IiACIiACIiACIpBLAorcziVd6Y4nQKTrFVdcYU2bNnVVHDmn3BXoI20CunbTRpVTQdYua5i1TEccOaeccyUREAEREAEREIFoEZBzO1rzsaM1KhEBERABERABERCBDAho394MYEk0KwSIdC0pqfpawZHzrCiWEhFoJAKsYdYy3XPknLySCOScgDoQAREQARHImEDVv0IzbqYGIiACIiACIiACIiACItB4BNRzdAgQ0Upka5MmTYwj59GxLn8sUeR2dOaKNcxa1pqOzpzIEhEQAREQARFIRkDO7WRkVC4ChUNAIxEBERABESgiAtq3t4gmO0JDJbL1zDPPNI4RMiuvTNGvLqI1XaxlrelozYmsEQERSIuAhESg6AjIuV10U64Bi4AIiIAIiIAIFDIBRX9Ge3Y//vhju/766+3oo4+29u3bWxAEBZHatWtnkydPNo5BkC9jSm0n88M8MV/MW7RXVuNZBxsYwQpmQZCaaxDkRz1rWWu68daVehYBERABERCBdAnIuZ0uKcmJgAiIQDET0NhFQAREQATqTeDyyy+3vn372saNG+3222+3zz//3CorK5UiyoD5YZ6YL+aN+av3IkihIB9/dQET2MAIVjDTmo7uNc38ME/MF/PG/KVYkqoSAREQAREoVgJ5Nm45t/NswmSuCIiACIiACIiACKQioMjtVHQap27x4sUuUnv9+vXOoT1mzBg77rjjrEOHDo1jkHpNiwDzwzwxXzgFmT+ik5nPtBRkKJRP1y4MYAET2MAIVjDLcNh5L55PA2B+mCfmi3lj/phH5jOfxiFbRUAEREAERCBMQM7tMA3lRUAEREAEREAEckVAehuIgPbtbSDQGXQzYMAA++53v2vjx4+XQzsDblESxSnI/DGPzGeUbGsMW2AAC5jApjFsUJ/1I8C8MX/MI/NZP21qLQIiIAIiIAKNR0DO7cZjn6JnVYmACIiACIiACIiACBQCAX72f/DBB9t1111XCMMp+jEwj8wn85ptGPkSuc3YYQCLbDOQvoYnwDwyn8xrw/euHqsI6FMEREAERKA+BOTcrg89tRUBERABERABERCBiBHIx31700aYZ4K8aO/hhx+20aNH55nlMjcVAeaTeWV+U8llWpcPv7pgzIwdBpmOT/LRJcB8Mq/Mb3StlGUiIAIiIAIikJiAnNuJuahUBPKegAYgAiIgAiJQnATyJfqzGGbnsccesyFDhmgrkgKbbLZzYF6Z3wIbWq3DYcyMHQa1Cksgbwgwn8wr85s3RstQERCBGgR0IgLFTEDO7WKefY1dBERABERABERABEQgZwReffVVO+OMM3KmX4rrRCArjZhX5jcryrYpyYdfXTBmxr7NZB0KiADzyvwW0JA0FBEQAREQgSIhIOd2kUy0hikCIiACmRNQCxEQgXwkoMjt6Mza3LlzrVevXtExSJZkjQDzyvxmTWFMUT5cu4yZscfM1X8FRoB5ZX4LbFgajgiIgAiIQNoE8ldQzu38nTtZLgIiIAIiIAIiIAI7EMiHfXt3MLpAC1avXq0tSQp0btnGgfkt0OElHRZjZuxJBYqlogDHybwyvwU4NA1JBERABESgwAnIuV3gE6zhiYAIiIAIiEBjElDfIiACIiAC6RHIh8jt9EYiKREQAREQAREQARFoOAJybjcc69p6Ur0IiIAIiIAIiIAI1JtAPuzbW+9BSoEIFCAB/eqiACdVQxKB5ARUIwIiIAIikCUCcm5nCaTUiIAIiIAIiIAIiEAUCBRe9GcUqMoGERABERABERABERABERCBKBKQczuKsyKbRKCuBNROBERABERABERABEQgLwnoVxd5OW0yWgREQAQaj4B6FgERcATk3HYY9CECIiACIiACIiAChUFAkduFMY8aRXYJ5IM2Xbv5MEuyUQREQAREQAREIGoE5NyO2ozIHhEQARFoXALqXQREIM8JaN/ePJ9AmS8CIiACIiACIiACIiACDUOgIHqRc7sgplGDEAEREAEREAEREAEREAERyGcCityO+uzJPhEQAREQAREQgSgSkHM7irMim0RABERABEQgnwnI9kYloH17GxW/OheBOhPQry7qjE4NRUAEREAEREAEipiAnNuNPPnqXgREQAREQAREQASySUDRn9mk2Ti6Hn/8cRs6dKht2LChhgHJymsI1ePk448/tkGDBtny5ct30DJ16tSENu0gmEEBOg899FCj3wyaZSRKH4lYwpZy6jNSKGFHYNSoURYEQY3E+nSVOf5gzpg75jDHXeVUPeveX2/hfH07hQt84FRfXWqffQLSKAIiIAIikH0Ccm5nn6k0ioAIiIAIiIAIiIAI1I9AUbfu06ePLViwwBYtWlTNAYfVlClT7Nhjj7WWLVtWl+drhvE8++yz9p3vfMemT5+er8PIqt359quLm2++2SorK1366KOPbMKECTl9UJFV2BFTtv/++9vEiROtc+fOEbNM5oiACIiACIhA9AnIuR39OZKFIlALAVWLgAiIgAiIwHYCitzeziJfc3vssYfttddeNZy+OLpxeOP4xjFMZGYQVEXO+ghNoj9PPfVUI/Xv399FYIcjbMl7JkRnIxMEgXHk3NfhpAyCwJJFVSNLmyCo6j+sF1uCYHs5dmKv1+2PjIf8OeecY88//7yz1WL/Q5Y26AyC7XpiVUZkcBBUlQVB1ZEy6sL9BkFgnFPuE47jINhxrL4+Csd8vnb9ml22bJlD6ecxCKrmyc9HojVKGWstCHacn3Ad6wK9roPYR/ycUodMorWDHh8lHWvq1geytME26khBUHPdh9c68sigC+R/UIMAABAASURBVB3hhB7qg2DH8dLm7rvvdlHujJP26L3sssts0qRJdu6559q7775b/asJ7EHXyJEjXRuuNcpoGwSBuw5836z/IKjqk3p0+zp/pIy6IKjJF53cK6ijP8bg2+goAiIQZQKyTQREIJ6AnNvxRHQuAiIgAiIgAiIgAnlMQPv25vHkbTOdyGwitInU9g4nopuPOeYYI8Jz7NixTnL9+vX29ttv2/Dhw6sjZr/55hu74YYb7KWXXjKiab/66itDjrRmzRonh85rr73Wrr/+ehd1e95559n999/vdM6bN8+6du3qygcMGGA45ZB3lbEP8rSlDVG79IENONBw2OFY5Jz+6DvWJOF/jKdXr17OgX7QQQc5W8OCtEUHuiZPnuzsxglInyScqAMHDjSc/fRNFDG2UPfYY4/Zo48+ahu2bevy4IMP2plnnuk49OjRo3qs4f6Urx8BHlaUlZXZAQcc4BSxRrt37+7WEXOYbI0ijJN33LhxTrZfv37G+mKdsZ5w+D/55JOuDn1PP/00TSzVnCZaO65Rig+czJdeeqlbI0cddZQ99dRTTprrAptYV1yTXB+uIu6D8VLk12x4vLRZu3atG8OIESPcNdWqVSu79957jTWMg7pDhw40r07x4+O6eu2119z1ztqGDc5p8lwL2Mf16u32ipBLxhcZ7hfwfeCBBwriFyGMSUkEREAERKD4CJQU35A1YhEQAREQgXgCOhcBERABEYgWAZy2OAtxluHow9F94oknun24cd7hXMYJ3rt3b8MZh7OYEey8887WpUsXsjUSsqNHj3bO8XhHJE5jHN00oD19k6c/juGEHhxhtKGcvjp16kTWOahxHmMTctjoKuI+GM/s2bOdY5oq+nn99dfJVicciejAWXrggQdWl5PBYUf/OCNx9pNefvllNzbqsYGjT0Snogd96PXlUTviyI2aTans4SFKEFRFDcOX+WBbDeYHxyvzSnvWA2sUJyznrDHWDXkeSHCkPcezzjrL/Lqnrn379kZUuMX+xxpl3mNZ9+sE2iSaU+aYcurj1w5tE6VEa4RxzJ0717CJNv3797dE+ljPtV2TYR2Mj2sQnclS2B6c+lxLsIVbx44dXTOc7jzEopyCvffem0ONBEMKYMERO+if+wrn3bp1S3i/oE5JBERABESgcAkU2sjk3C60GdV4REAEREAEREAEipoAP9UvagAFMngcejj2cE7NmDHDFi5caDiocEqR98PEiYfzy5/jaMYBxjnOLxx9RIkGwfbtDHAyrly5EpEdUrj9DpXbCnBcBkGVU5O+iEylKmwX58kSjr2//OUvbjxBEBgR6ejEmejbxDuofTmORCJ7cfYxPl9OZGsQVNmEPl/OEV0wIB/llG+/uiBanohhEuuSKGKikD1j5iEIAoM9kch+fcSvMR5MsI6CIHBrgvXEGvXyXl/4mGpOqQvLppOnDXaGZbFhxYoV4aKEecYetjXVNZlQQYLCRPbEi3EtDB061G1dEgSBDR48OF7EnSfjS2U6/SCnJAIiIAIiIAJRJiDndpRnR7aJgAiIgAiIQN4QkKFRIZBv0Z9R4RY1O7yDjIhmEs5cIjRxwOGQ8vbi4CJq1J/HH4l09c5Hor9xIuNI9NGf8fK1na9YscJwJLPVBHpxAPpo1rBdqfSwdQJbKNDeJxzVRKGmakcd2z/gsGdcnJMYEwlb0IdtlCs1HAHWK/Py2WefuU5ZXzyYYT58Cs+ZE9r2cfHFF7vtQLzcrFmzXBR+uutpm5qMDmFndLKGXCc44pPV+/LarkmuGdYm8hw5J1/f5LdowbkOO7bjSaQzGd9EsioTAREQAREQgXwkIOd2Y8ya+hQBERABERABERABERCBWgiwrQNbP7DntN8qBCcikdpEyeLYJqr7nXfeqd7iI6ySKFoc0b6sXbt2bgsCnHZEbuN8pA45IkA3btzIaUYJhzSRtjQishynITZhGzZSHk5EZ+OIZmzhcrZUwPlOu3B5OO/HksxJiiztE/VLXdRTPv/qAu7MH/PIQxj2UechBszZE/3QQw91L3HkPJzCa4Zy1iLbf7BOWKe8RJVIf+qYfxL5uiTWKWve21qbjvhxhNd6uG1t1yT7Wvttgzjyslh+mRHWUd88vBKt+1R869un2mdAQKIiIAIiIAI5JSDndk7xSrkIiIAIiIAIiIAINCyBfI7cblhS9e/tzjvvtDVr1tRfURINOKbYe5f9isPOsKuuusq1IGKUrR94GR/7TrvC0McPfvADI6o7CAK3NUSvXr1cRCxOO15mx0vvgiAwnGK33nqrtWjRItQ6cZZIVqLI6TcIAlu3bp3b85uIVPSyLzJ1Rx99tLHXcrwWnIuUMTaOPuG8x0lP1K4vCx9xvDMWnP1BULX9SBAELoqcfnr06OEc9/R72mmnVe/bHNYR9XwUrt1M1nR4LliLPHTxDx5Yo8xXEFRtNcKLFInOj58D1kx4LY4ZM8a9aJFy1jR9sFaCIHBrGb3xOtI5Rxc2pFqbifQMGzbMOeWDILAlS5Yk3HObdt4uONBH+Jrklw04/oNg+7WGQxznPQ+ZYLZq1SrUZJR4CMDDJPpExyWXXOIY4bz3iuCYjK+X0VEEREAEREAE8p2AnNv5PoOyv1gJaNwiIAIiIAIikJBAvu3bm3AQeVKIIxcHFcdcOLlxTBEtygsccYZ5LOQpYysCknca4sCbOHGi0Q7ZeDkcYJSTkMWRTHv6oA1l4fbopR/0hPPooR1pyJAhhgz16OVIObqJWMXhSXvqSNT7/jj3ib5pQ0R3WB92YROOecrRHU6wR7+vQ8eZZ55ptKEt/VGHDH1he7gN9ZQrVRGATTprGrnwPJCnrEqLGbzhTjkJ7tQxz35uOCdRxrwhx5FzyknMD+Uk9KGXMp9HBt30TR3l1FPO/NOX14cceujDr1vaIE878rRDDn3k0cF6pV3fvn0NZzR8qAsn2qIDORI6w/U8PKIcXeikjiPnpCOPPDLpmsUWbKINY2FMtCXR1utl3WMDD6A4ehtow5iR48g5uqhHDts5VxIBEYg0ARknAiKQgoCc2yngqEoEREAEREAEREAEREAEkhG47bbbrEmTJnbXXXdZ165dDSdULpzcyfqPWrnffiIIqiKridz1Ea0NZ2v+9hSFyG2t6e3rhwhotusJgqr1zC8diILGqbxdSjkREAEREAEREIHGJiDndmPPgPoXAREQgcYioH5FQAQKkkA+79ubbxNy+eWXu608eKEb22awpUMxO7mJCCUylAhRkqJCM1vRUfjVhdb09jkjopk1zFomsbZZ49slas8h7yOta5eWhAiIgAiIgAjkkEABq5Zzu4AnV0MTAREQAREQAREoPgJRiP6MGnWYBEFV9CV5bx/5IKhf+be//W0rLS11Kon0xMk9evRoY9sDV6gPEUiTwHHHHWesSS9OPgjqtz7RlakeHtCUlFR9TSzWNQ03JREQAREQAREQgfwgUPWvlvywVVaKgAiIgAiIgAhEi4CsEYG8IIBzj8hLEnlvNHnKSOTrUs6L4srLy11TIj15KePIkSNt/PjxrkwfIpAugTfffHMH5zZrk3TjjTdWqyFPGYm8ryBPGYl8XcuXLl1qFRUVrrnWtMOgDxEQAREQAREQgQgTkHO7wSZHHYmACIiACIiACIhA7gmEnVq57624e7jnnnuMyFbvALzyyittyZIlNmrUKGvbtm1xw9Ho85KA1nReTpuMjiQBGSUCIiACItBQBOTcbijS6kcEREAEREAEREAEGoBAFPbtzWiYDSCcK4f/NddcY1u2bLFcObU//vhjO/TQQy0IqramCIKq4+OPP94A1BquCx4G8OI+HhQk63X58uU2aNAggwlyyE+dOtWdU059srbx5bSjPXri64r9PNdruja+zE0QVK3zIAisf//+lmpuWQ/M/yeffGLMaVg2rKs2PbXZlY16b2vYxkz1cq0EQeDGqvWbKT3Ji4AIiIAIFCoBObcLdWY1roIkoEGJgAiIgAiIgAhkTiBXDv9bbrnFOd5wOOUqUnvnnXe2jz76yNhqgrRs2TJ7/vnnnVM3cxLRa4HD76uvvnKGLVq0yB1r+yBSnhf99evXrzZR1WdIoCHWdDKTeGgzfPjwGuv9vPPOs2uvvdb9QsIS/M+/sHG//fYz1kTnzp2dFA7k++67r1oXa+Wll15ydfn6gTN7zZo1bkyMlesgX8ciu0VABNIjICkREIH0CMi5nR4nSYmACIiACIiACIhAXhD45S9/mRd2FoKRRGznyqmdjE+rVq2sffv2hpMbGRyCQVAV6UqUN85iynHu9e/fvzrqGwc85dSfeuqpRqIeOcpoGwTJI2WRIUL27rvvdjqRpwydRMiijzKiZ3HCURYEVXb5MmTj0/Tp0+3YY4916amnnqquRjc6SaeccoqLjp80aZKdffbZNnv2bBe5Sh/bGlQfGKfvDx3YFATJx1XdUBlHoDHWNB2zDh999FEbN26c4bCmjMQaLSsrMx58MJ+sBxLltKEs0Rxzfey+++62xx57oMalHj16uCMfydqxpljnpCAI3C8nkKXcryvfHhlsYL1TFwRV6x1ZL4OtJOxdtWoVxdUp0bXrdXkd6Kcf1vwVV1xhY8aMsQMOOMB8fbUyZURABERABESgiAnIuV3Ek6+hi4AIFCMBjVkERKDQCeRqC4585lZIDn+cfAsWLLAuXbo4BxcOQRx5RHUPGDDAcBDjICPalahXyon8fvvtt6ujvb/55hu74YYbzEeyXnbZZc6piCwRrrRFR/ycz5s3z9auXWvIjRgxwnB0ezl0Pvnkky56FhuJwKXP9evXOzVjx451x/AHbXHa9enTx20/QQQ3zjwvg07sfOWVV+zOO++0gQMHGn0Qpetlwkcc23vvvbezgX7THVdYh/KNQ4A1Ss84bjn6RCT2xIkTqx3efk2E1y5rkTWZbO3inCbiuXfv3k4tayzV2uAhyqWXXmqsoaOOOspdU9jlnewo4aHMQQcdZNjH2u7evbu7LljzrH36RC5sb4cOHShyCed0omvXVSb44EW1XG8XX3yx0QdjTSCmIhEQAREQARGII1Acp3JuF8c8a5QiIAIiIAIiIAIiULQE8tnhj3MMx1oQVEWFksfhS3QrDi6cfDjYmFwcuxzZroBtC84991xOnSO8U6dOLs8HW53gHCcf71Q866yzDCcejj3qw4l21FNGJCpyOLI579atm+uHPM52nII4E7EFJzvOPJyK1Pvk2xJdyxhwEHp7kKE/byfnqdKECRNctR+z1wMvKrAbexONi3qlxidAZDW/TMASnMM+IjsIAvcgh/LwmmCddezY0ViL1DHHPPjx64oyEo5ofmHBWuQ86drY9iCGSGvWDfL8qoA22MUvJtDFQ5kpU6bYiSee6LYlYm2TR441f1TMIY5tnIft5dynZNeur9dRBERABERABEQgfQJybqfPSpIiIAIiIAIiIAJmJgjRJpDPjtxok20c63CO4Yx64g2nAAAQAElEQVQjMtUnHGNYg5Nt6NChbpuQIAhs8ODBFLuEwy0IqhziOIiJunYVsQ8c3ZTFsu6/l19+2TmmgyAwnHrIeuecE9j2Ed9uW7E7hB2TCxcudGX+g75wQvpzf8RRyDYLOA6DIHDR5K+//rqvtlT9VQvFMtgbO1h85He646KtUuMTYN34hw88vJk1a5aLniZa2VsXXhOs0ZUrV/oqt4apry7YluGBBw9+cIL7Byyp1kZ4LW9TYd7R/dlnn7ktUnhQwrXi64855hh3HbKWH3zwQWMs1GEP6598OKW6dsNyyouACIiACIiACNROQM7t2hnVR0JtRUAEREAEREAERKBBCeTq5YkNOogsd1aoDv+nn37akcIhiOP7sccec+c48Niig+0LKMcJeOCBB7q6RB84D70O5HEq4lyMl12xYkX1Xt/o5DxehnOcgxx9QjbshKQcG9mWwdtIv8jNnTu3evsU5NJJjO388893+3bff//91U3SHVd1A2UajYB3FPMgJ10jcBqHH5qwfpKtSRzc119/vXs55aZNm6wua4Ptc1if2Oi3JMFWbKCMNewT/VGXLCW7duPlU40pXlbnkSAgI0RABERABBqBgJzbjQBdXUafAHv7XXDBBdazZ09r06aNi8QIgqropyDQMQjEIAhqMmCdsF5YN6yf6K9yWSgCIiACjUmgYfsuBoe/dxYnIsvWJT66Ob4epyJRpjNmzHBVvOQuHOHqCrd9sEUK0dacctxrr71qvLCPchJOx3feecfQSYQqTmyizdl6hHoSzkCO9M+RRNSr3/qB80wTduN8ZEsL9KY7rkz7kXz2CbA22L4mvF81veAEJhKafHxinfHQhPVNHfvNx69J1h6/bmAdIkPiwU1d1gbb57A+v/e977ktSdCF3Ti66Ztz1h7bqfDLCc7TSYmuXf8LBq4zrrt09EhGBERABERABIqVgJzbxTrzGndCArfffrt17drV+GLHlzCclF9//bV7QYyPxGjwY2Wl+s8DBqwT1gvrhvXDOmI9JVxoKhQBERCBHBIopJcn5hBTQajGmYuTDqcwkaKXXHKJ25qDcxyFfquEdevWWXgf4PDgcc7de++9hlMxCAJjmxDOKQ/LkSdCmr2GgyAwnIa33nqr266BunDCeThu3Dijf2yh7qqrruJQnXDe8Tcz3I/f+gHdq1atqpYlgx4ci2effbZ98sknFO2Q0MWLAHnxHvKMI51x7aBIBY1CgDXMC0OZ4yCoCiJgLRC9zFqJN4r5Zo5Zs0FQtS93/JrkOmAvd9YDa+GKK64wzmnHeRCkXvPhPv369Hty+zrWNlviBEHVtj684DKRvV6eY7JrlzpsnDx5sguuWbJkiXHdUa4kAiJQJAQ0TBEQgYwJyLmdMTI1KEQCM2fOtL59+xrHV1991Z5//nkbMmSIHXLIIS5yuxDHrDFllwCR26wX1g3rh3XEevLrKru9SZsIiIAIJCdQqFtwJB9x7TX56vDHSczewBwTjRLnHlGrPHjneOaZZxovksQJh6OQchJ/myjH4YYuHsbS1uukjK1IkOXIua+LP+I8RI7+vA70op9+vTxlyJHi65BhiwgS+XDCbnQfeeSRFrYT3ejBvl69erlx0ge2huUoQw556pDHBo6c01dYhnOl6BBgjpgr5ozEWvDrjLrwXGM1ZV4+Xnb06NHu4QvrDF3IIR/fLlwevzZYj7SnDYnz/8/emQBIVVx7/9wZlmFfRRSBEfNE9EtAVNSMxjURjS98xqeCW0z0IS6JEhUxKgbRuKCoecEPyeoKJg+NW9QkahSJBgmLRhYjiigqI9uwDtvM178aq7nTdPdsPTO3u/841VW3lnNO/er2bfv0uXXDeqjjXOOcQweJPtSjK2xv+Jg5IYf+5OH3Lv2wiTYc3cigzuvBRuQriYAIiIAIiIAIVBGQc7uKg17zmMBf/vIXt0fjRRddZESL4KDMYxyaeoYIcB5xPnFeHX300cZ5liHREiMC2UJAdopAZAjI4R+ZpZAhIiACIiACIiACIiACIpBRAnJuZxRnfYVpXHMRILL2tNNOMx7ARFRTc9khvblLgPOK84vzjPMtd2eqmYmACESFgBy5UVmJ3LKDyFEiSIk4za2ZaTYiIAIi0NQEpE8EREAERCCTBOTcziRNyco6AhdffLFNmjTJeDBM1hkvg7OGAOcX5xnnW9YYLUNFQASylkBOPTwxQ6sgh3+GQEqMCIiACIiACIiACIiACESMgJzbEVsQmdN0BHjYH09UJ7K26bQ2niZJjjYBzjPON867aFsq60RABEQg9wjI4Z97a6oZiYAIiIAIiEA+E9DcRUAEdhGQc3sXC5XyjACRtNdff32ezVrTbU4CnG+cd81pg3SLgAjkPoFsfXhi7q+MZthMBKRWBERABERABERABEQghwnIuZ3Di6uppSbAnpFDhgwxHvqXupdaRCCzBDjfOO84/zIrOVPSJEcERCAXCGgLjt1XUQ7/3ZmoRgREQAREQAREQAREIJ8J5M7cI+3crqiosJ07dxp57iDXTKJA4IUXXrDvfOc7UTBFNuQZAc47zr88m7amKwIiIALNSkAO/2bFL+UikP0ENAMREAEREAEREIHIEmgS5/amTZvsnXfesWeffdamTJli48aNMx6sdvrpp9txxx1nBx98sH3lK1+xnj17WufOna1NmzbWokULKywstJYtW7qcY+o7derk+tGfcYxHDvKQi3z0oA+9kSUvw5qVwJw5c+yII45oVhukPD8JcN5x/uXn7DXrfCCgOTY/ATlym38NZIEIiIAIiIAIiIAIiIAIiEDTEMi4c3vRokX2yCOP2DXXXGMnn3yyFRcXW7du3Wz48OF2//3327x585zjevDgwXbOOecYX8B+97vf2Z///Gd7++237eOPP7aysjLbvn27VVZWuqhtco6p/+STT1w/+jOO8chBHg5w5KMHfehFP3ZgD3ZhX9OgrVGLOjQjgY8++sj69evXjBZIdb4S4Lzj/MvX+WveIiACjU9AD0/cnTH/v7h7rWpEQAREQAREoMkISJEIiIAIiEAjEWiwc/uf//ynTZw40W3xsMcee9h//ud/ughtHMs//OEP7ZVXXrHy8nJ799137U9/+pM98MAD8cjt7373u3bMMcfYwIEDnaOxR48e1qFDB2vVqpUFQVBtykEQuHra6YeDiHGMR46P3EY+etCHXvRjB/YQ0Y192MnWANiN/dUU6SAvCBDV3759+7yYqyYZLQKcd5x/0bJK1oiACIhAlAhk3pbmcvh37NjR1q1bl/kJSWKzE2BdWd9mN6SJDWDOzL2J1UpdExBgXVnfJlAlFSIgAiIgAiKQUQIF9ZG2du1au+eee4wHo+FYXrZsmV144YW2dOlSe//992369Ok2duxYO+WUU2zfffetj4qMjUE/dmAPdmEfdmIvdmM/82A+zCtjiiVIBJqCgHSIgAiIgAiIQAIBPTwxAUgzHh544IG2YMGCZrRAqhuLAOvK+jaW/KjKZc7MPar2ya76E2BdWd/6S9BIERCBRicgBSIgAkkJ1Nm5zZYfBx10kL311lt29913G7fXT5482YYNG2bZ8ksvdmIvdmM/82A+zIv5JSWlShEQAREQAREQARHIAgLagmP3RWouh/+JJ57o7mjc3SLVNDaBxpbPHaGsb2PriZp85szco2aX7Gk4AdaV9W24JEkQAREQAREQgaYlUCfn9mWXXWYPP/yw+5/0xx57zI4++uimtbaRtDEP5sMHOvNjno2kSmJFQAREIGoEZI8IiIAI5DyB5nL4n3vuuTZ16lRtTZJjZ9i6devcurK+OTa1GqfDnHVO14gp6zrk8zmddYslg0VABESgYQRycnStndts27FkyRJ74403bPDgwTkJg3kxP+bJfHNykpqUCIiACIiACIhAThNoLkduTkOt5+T69+9v3//+923MmDH1lKBhUSTAerKurG8U7WtMm5gzc4dBY+qJhuz8sYL1ZF1Z3/yZtWYqAiIgAiKQKwRq7dyeMmWK3Xbbbbky77TzYJ7MN20nNYqACIiACIiACFQR0GukCDTXwxMjBSHBmOZ0+N977732zjvv2C233JJglQ6zkQDryHqyrtlofyZsZu4wgEUm5ElG8xJgHVlP1rV5LZF2ERABERABEagfgVo5t3fu3GnvvfeeHXbYYfXTkmWjmCfzbQyzJVMEREAEREAEREAERKBpCTS3w3/GjBn23HPP2ciRI7VFSdMufca0sW0D68c6sp4ZE5ylgmAAC5jAJkunkddms26sH+vIeuY1jEacvESLgAiIgAg0PoFaObcLCwudJQ888IDLc/0lX+aZ6+uo+YmACIiACIhAPhJorocnNpB1Tg/fe++93dZ+bdu2tb59+9o111xjr776qhzdEV91nH+sE+vFurF+bGHIekbc9EY3DwawgAlsYAQrmDW6cimoNwHWh3VivVg31o91ZD3rLVQDRUAEREAERKCZCdTKue1tZB/qSy+91FatWuWrcipnXsyPeebUxDSZHCOg6eQCgSAILAgC++lPfxqfDuUgUL04VJ0S4iAOnANVFMwoB0Htrg/09eOUVxGIisOf2/5nz55tRUVFNnbsWOfoDoKqdQ0C5UEQLQY4/1gn1ot1Y/2qzii9egIwgQ2MYAWzIIjWOgaB7AmCKgasD+vEerFurJ9fS+UiIAJRJSC7REAEaiJQJ+f2X/7yF+vYsaMNGDDAvvWtbxn7Ui9fvrwmHZFux37mwXyYF/NjnpE2WsaJgAhkPYHKykojhZ1QlKkjUfaTpEwdibLqK52jTxzEgfcESe+L3a8n/v2hvIpA+Bypqmm+Vx7YNmHCBBfJXVZW5j4LOI9zIUG1Wefx5WdrpmxgfYhqZb1YN+antDsB2MAIVjDLFP8oyGG2UbAjUzawPqwT68W6MT8lERABERABEch2ArVybrPnNhPt3bu33X777bZo0SK74IILbM6cOc7J3aVLFzvxxBPtqquusqlTp9prr71mn332GUMik7AHu7APO7EXu3FqMw/mw7yYH/OMjOEyRAREQAQagYBEioAIiIAIiIAIiIAIiIAIiIAIiIAI5D6BXJ9hrZzbiXtud+/e3c4++2z71a9+ZYsXLzZuabr88sutR48e9tZbb9kNN9xghxxyiLGHF9HQ3/zmN50zfOzYsTZp0iR78MEH7ZlnnrGZM2faggULbOnSpc4Zzh5gW7ZssR07diTlTj3t9MNZzTjGIwd5yEU+enBWoxf92IE92IV92Im92I39zIP5MC8Ua89tKCiJgAiIgAiIgAiIQG4QiFLkdm4Q1SxEIGcJaGIiIAIiIAIiIAJZRqBWzm0/J/aiZk9q9qb2deT/8R//Yf/3//5fu/baa+2Xv/yli9z+9NNPbeXKlfa///u/dvXVV9uxxx5rnTt3thUrVtgrr7zi+uFsvuCCC+zkk0+2ww47zPbbbz/nIG/Xrp21aNHCCgoK3J605BxTj2OafvRnYphr9AAAEABJREFUHOORg17kIh89x8b0oRf92IE9RG7TDzuxF7ux3yfmxfyYp69TLgIiIAIiIAIikIyA6kQgewiMHz8+e4yVpSIgAiIgAiIgAiIgAiIgArUmUFDrnrGO7EXNntREQ7OdB3tVs2d1rCnpX4cOHeyggw6yk046KR65fffdd9vvfvc7e/rpp91T4ufNm2fvvfeeffLJJ7Z69WrbsGGDbd261UVvV1RUuH0IyYnapp52+tGfcYx/9dVXnTzkIt9HbqMX/diR1MBYJfYzD+bDvJgf84w1Ze5PkkRABERABERABERABERABERABERABHKfgGYoAiIgAiLQpARq5dzWnttNuiZSJgIiIAIiIAIiIAJ5QaCpJnnTTTc1lSrpEQEREAEREAEREAEREAERaEICtXJua8/tJlwRqRKB5ARUKwIiIAIiIAIiUE8C2nO7nuA0TAREQAREQAREoDkISKcIiEAdCNTKue3lsRc1e1KzN7WvI2fvavawZi9r9rRmb2v2uGava/a8Zu9r9sDurD23waUkAiIgAiIgAiIgAiIgAiKQEQISIgIiIAIiIAIiIAIikM8E6uTcZi9q9qRmb2r2qGavavasTgWQva7Z85q9ry+44AJjL2z2xGZvbO25nYqa6kVABESgkQhIrAiIgAjkKQFFbufpwmvaIiACIiACIiACIpCvBPJo3nVybvfu3dtuv/12W7RokeGsnjNnjuHk7tKli5144ol21VVX2dSpU43I7c8++yxSGLEHu7APO7EXu7GfeTAf5sX8mGekjJcxIiACIiACIiACIiAC9SYwfvz4eo/VQBEQgdwnoBmKgAiIgAiIgAhkL4E6Obf9NLt3725nn322/epXv7LFixfb7Nmz7fLLL7cePXrYW2+9ZTfccIMdcsgh1rZtWyPK+5vf/KZzho8dO9YmTZpkDz74oD3zzDM2c+ZMW7BggS1dutRwPq9bt862bNliO3bs8Kqq5dTTTj/6M47xyEEecpGPHpzV6EU/dmAPdmEfdmIvdmM/82A+zKuaQh2IgAiIgAiIgAiECagsAiIgAiIgAiIgAiIgAiIgAiIgApEhUC/ndqL1ubLnduK8Gnas0SIgAiIgAiIgAiIgAlEgcNNNN0XBDNkgAiIgAiKQswQ0MREQAREQgeYikBHndirjs2HP7VS2q14EREAEREAEREAERKARCDSDSO253QzQpVIEREAEREAEREAEREAEmoBAozq3m8B+qRCBnCagyYmACIiACIiACIiACIiACIiACIiACOQ+Ac1QBESgfgTk3K4fN43KcQKrV6+2oUOHWhAE1dKsWbNqNfMJEybYo48+Wqu+UejEvJgv86Y8atQot/99Y9q2ZMkSGzRoUDW+QRA47tiRrJ3+1Hu7UnFmPPMJgvxYP89DuQiIgAiIQHICitxOziWLa2W6CIiACIiACIiACIiACDgCcm47DHrJNQJ33323bdiwocHTev31162ystIlHj562WWXGc7fBguWAEdgzz33NLh6xuQvvPCCdevWLWn75MmT7ayzzrKwg9t1TPGi9QOMkgiIgAiIwPjx4wVBBERABERABERABERABHKcQH5OT87t/Fz3nJ/1jTfeaN27dzfyTDi5Ada/f3+75ppr7OGHH3ZRzVu2bDEinIOgKjqYMnVEbI8bN87OPffcePQ2DvEgqN6Pvowh+jgIqtooo4sUHkM9fRlD/UknneSinql7+eWXnR20MQ799OeYdspBsLt8HMREQgdBYMhgbGJKjIBGlu+DHUGwSy660El7uC1cT1tDUklJiZ1++un2+9//vs5iEtcPAbAKgqo5wAIm1GVi/ZCvJAIiIAIiIAIiIAIiEFECMksEREAEREAERCAnCGTEuR12ZAVBlaMoCAIX4YqzCKdREOyqDzu7aMdRR56MKLJxNpEHwS4ZQRBY2NFGnyCoah86dKjhlPPyEsdy7NuU5yaBn/3sZ9aiRQubNGmS9ejRI2NO7kMPPdTKysps8+bNdtddd1mvXr1cVPeqVats2bJlNnfuXDvnnHPs5ptvtkceecSVObc5JkKZcRBnLDlpxYoVTh5RxjNmzHBRyZy/nN/UMYY+9PVp5cqV9vjjj9uUKVOsdevWvjppzlhkICss/4orrnDOeqKlkw3EUX399dfbeeed5+aI/chgPunsoz3dfJPpqkvd8ccfb8wJ++oyjr7h9eM6wA8VrB0MvNM8E+uHLiURyCUCmosIZDuBm266KdunIPtFQAREQAREQAREQAREQASSEMiIcxu5OKi9kwhHEYkoS9oStx7AITh69GgX/Up7qoQDjYjS7373u65LWAe6Fi5c6ByBONOeffZZo87rxSmH8wunN05C30bOMY4tJzSzL5IWEQJXXnmlFRUVOadxeXm5sU1JJp3cTJOocBLltm3bWnFxMcXd0pw5c2zfffe1Pn36WJs2bZyzOOycPfroo139AQccYAMGDHDjcSQjb/Dgwa4NB7Nr+PKlZ8+eLjL9y8O0WTL5vA+6dOni9rdm8JlnnmkcU/YJW3Ge4+yljkj4rl27UrR09tU0Xyfgyxec9Mw7CKp+mAqC6j9afdmtUTKuT+EtUPr165dUT03zScY3qSBVioAIiIAINBsB7bndbOilWAREQARymYDmJgIiIAIiEAECGXNu12Uul156qYt+Xb58edphOJ6I0sTJlq4j2w1MmzYtvk8vY+iPc3vmzJkuatfv4UuOwxtHHX3SpSDY5XALApWDILsYrFmzxgoKqk5xzgWc3HfeeaeNHDky3bKnbcMpvHbtWteHH1UGDRrkHoiIc/uBBx5w9cleaKNPEAR21FFHGVHe2ETf4uJismqJ9moVCQeMQV5CddJD+iY2hOeR2BY+5kegIKhad94zixYtcs012ZdsvkSPu8Ghl8Qfvvhxyv9gEOpWrViT7mqdEw7C84Y/d5EEQdX82EYmoXv8MNl8GE+HZHypVxKBKBN49atftUXXXhtlE2VbzhHQhERABERABERABERABERABEQg8wSqPH8ZkPviiy+6SNIgqHIU4fTD+ZdMNE65Tp06uUjrZO3U4ThasGCBk8kxKawDR9vll19uOLZpCyeivYmm/OKLL+zDDz+sJoN+OLiTjaMtnHC0KVU9TDEbObDOFRUVbkn5gYRI7jFjxtjUqVNdXX1ecKzizAyCwO655574th44bi+++OKUItmmI8yQH258FPRug2IV6Ihl9fr74IMPahzH+ycxUjtxED8OcJcDW5FgO45hH1lek33J5st6JOqozzHz4+4P1rSu4/36cQ164okn3HDWjvmxjYyrSPKSbD7p1i+JCFWJQGQIvHPJKCv8+ANbPvkX9tkf/hAZu2SICDQmAUVuNyZdyRYBERABERABEag3AQ0UARFoMIGMObfDW4bgKJo/f35Sx3NtLcbhtH79+mqO6bAOHG043ogsDcskKptjtlLAgScHFDTyL917771u2xscoDi1r7rqKistLXX7tHfo0KFeQPixZuLEiW5bEeSGhbDXNtG94TpfZp9nHMSMp47zlohhfsDhOFliq45lX+7hTT/2hk7Wz9e9+eabxp0QbOWT+J7wfcI5W6TwAxNOdup5QKOPSOc4WaKvj9xOZ1995ptMX7I65sa+4Wyjkqw9XR38U60f3FIxbsz5pLNXbSLQGAQ+euABK53+mO3bYrMVx9K8c86x9bHP68bQJZkiECUC48ePj5I5sqWeBDRMBERABERABERABERABBIJFCRWNMUxjmseyofzub76iAJlz1wcgF4GTkPKflsDojNx4OEIp94nHGQ1ORd9X+XZSeC6666z7du3W0Od2mwhEgRVdyPg0J08ebJx3uHcZh9strIIgsC4W4DoXn8+sn8zbfzYwl0C48aNM8YHQdWDVm+99Va3l3YqupzfnMfoP/LII429t1P1xR4ehoh8ftThR6BUfX099rPvPc7eIAisffv2u+0Zzg9DzBEbgiCwTZs22RFHHOHuuEhnX13mm2zP7fBdH4ntl112mXuQJjr8XNLl3vYgCBx/v36MGTp0qNsehusE3C655JL4gyobun7Ib+Yk9SKwG4G1f/+7/evSS62vbbDYW8I6tDTbp2iHzT3jv2xn7P292wBViIAIiIAIiIAIiIAIiIAIiIAIRJ1A3tvXLM7t+++/33A6Ez2aagVwOHXs2NE50pL1IdISJ7XfHgHHNntt46Ty/XHgsT0JbfSnnpxjnHa0U6eUewRuueUW82tdn0htnLdEKnMXQjjhSPa0KPs2HNEkf/6R00ZO/3Bf5CKf848HNtJGH+rYO947bqlHBndB4OT1W3FQzzjGM46EbvoiG6c1x7TTj/70SZSPHmQzjjH0pQ/9KTMe+2knsVc59bQjj5x6ZITtC7fRjk3IpT6cwvrp5xPyaCNR9vXkHFPv5TBPbPTHPkcfehkTTticrA99hw0bZswvPG8vm3FeDn2RTz/604ZM6sLrR52SCESFwPayMps3Yrj1bVdpbVvssqp769jx6hU276wzd1WqJAI5SOCmm27KwVlpSiIgAnUnoBEiIAIiIAIiIAK5RiBjzu3wfthBUBXpihMZYDi+iCoNgqr6FStWuP2KcQ7RnizRNnDgQJszZ068OayDqG+cSiSc3ETGhqM0fWQ2zikc2fQPgsDIcYgxLi5YhZwjQMR2fZzaUQHBFhpEMAfBrvfM1VdfHRXzLOr2RQaUDBGBiBCYf/YI67C+1LrGnNmJJu1TWG5b3phpi8eMqd6kIxHIIQLaczuHFlNTEQEREAEREAEREAEREIEQgYw4t3EU+6jGcI4TmShLoi3D9UQ74rzGDtpxWpNzHE5sG8DD49hzOJkO5NM/WVtYBw7usH76My5TSXJEINMEeD+E3zfh8znTuuojL+r21WdOGiMCuUrgvRtvtPI3X7deLbamnGJxsME+mTrFlv/2tyn7qEEEREAEREAEREAERMBMDERABERABKJFICPO7caaErf5s/ftE0880VgqJFcEREAEREAEcpbAp3/4gy279x7rYxvSzrEwMOsbc3AvuPBCWzNrVtq+ahSBOhCITFdFbkdmKWSICIiACIiACIiACIiACGSUQKSd28yUqGsSZSURyF0CmpkIiIAIZJbAxkWLbP7551vfwk3Wshaf9u1amBW3N5t35pm2tbQ0s8ZImgg0M4Hx48c3swVSLwIiIAIiIAIiIAKegHIREIFMEqjF191MqpMsERABERABERCBpiAwb/hw27vVduvQsvbaurWutM5bVscc3GfUfpB6ioAIiEBjEpBsERABERABERABERABEUhDQM7tNHDUJAIiIALZREC2ioAnQMR2q0+WWo9WO31VrfO9Crfazn/NswUXXFDrMeooAlEncNNNN0XdxJyw75hjjrEgCJQSGBx77LE5sb61nQTzDYLcOA84p2s7b/UTAREQAREQgaYkIF27CMi5vYuFSiIgAiIgAiKQ9QQ+vPdeW/fc0179jbAAABAASURBVNa7YFO95rKzMjZs+3bb8M7bsYL+RCA3CGjP7aZZx7/97W9WWVmplMDg1VdfbZoFiIgW5hux86De5yTndESwygwREAEREAEREIEUBOTcTgFG1SIgAiIgAiKQbQRWvfSSLR471npXltXL9LJtZou2tLGuF15iR/1zrumfCIiACIiACIiACIiACIiACIiACESZQIOd27NmzbKhQ4fa6tWrq83z0UcftQkTJlSrS3WQTgZyfEo13tdv2bLFRo0a5W6FZIyvD+foStUW7ldjWR1EQAREQAREIEIEKsrLbdGVV1ivllutTWHdDft0a6F9XNDJvvbYNBswaVLdBWiECESYwE9/+tMIWyfTREAEREAEIk9ABoqACIiACESWQIOd24MHD7bi4mJbvHhxfJI4uh9++GE7/vjj43X1KZxzzjkWTjXJWL58uZWVldmqVavcuGT9S0pKrLS01JYsWZKsWXUiIAIiIAIikJUECoqKbI9Tvm3rC9vWyf6tO82W7mxvFUccZ8csWmw9hw2r03h1FoFEAlE8Hj9+fBTNkk0iIAIiIAIiIAIiIAIiIAINJFDQwPHWpk0bO/roo+3ll1+Oi/KO7gMOOMA5kQcNGuSiqYd+GeGN83vEiBE2ZswYF/WNQ9oPJqqa/jifSZSDoOqBJLT56GzKjCESm2jtFStW2BVXXGHTp0+366+/3uhH5HgQ7BprX/475ZRT7E9/+tOXR6mzV7/6VVt07bWpO6hFBBpGQKNFQAREIKMEDrjjDms5cLB9trV2odtrtgW2eEtr63nVtTbkz3+x1j17ZtQeCRMBERABERABERABERABEXAE9CICItBIBBrs3MauQw891BYuXBjfmgRH93nnnUeTcRvo448/7h7iQd3999/v6teuXWsDBw60F154wTp16uTqXn/9dZs5c6a98cYb1r9/f+egpswDSXwbTmvXOeGla9eudt9999nw4cPt1ltvtSeeeML1YCyR3M8++6zhLKeye/furoyTneNk6bJYZeHHH9jyyb+wz/7wh9iR/kRABERABEQg+gQGPjrNVgVtrWxbels/3lFkKzv1ssP+9Lz9x/U3pO+sVhHIcgI33XRTls8g38zXfEVABERABERABERABESgdgQy4tzu06ePc1DjqMZhjKMbhzdO5UWLFhkR3EEQ2LnnnmtEWq9Zs8ZZV1xc7HJeXnzxReOLx+jRo100OHVEbbPVCPlRRx1FVa3TBx98YOPGjXMR4zizp0+fbnPmzHHj27Ztax07dnTbl7iKhJePHnjAvllotm+LzVYcS/POOcfWz5+f0EuHIiACIhABAjJBBBIIFO2zjw186GFbvqPItlckNIYON+8MrNfwEdb9uONCtSqKQG4SINgiN2emWYmACIiACIiACIiACOQNAU00KYGCpLV1rPRbk8ycOdPmzp3rHN04vBEzYMAA50QmgpqEA5woa9rC6aSTTjL2Q7znnntcxDZtbCvCViMvvfSSEblNXV3SI488Yuj0if27axq/9u9/t39deqkd1MFijnGzDi3N9inaYXPP+C/buWmT6Z8IiIAIiIAIRJ1Az2HDrPhHV9rHO1Pvv92v5Rb7eMr9tmL69KhPR/aJgAiIgAiIQJ0JaIAIiIAIiIAIiEB+EMiIcxtU7KfN3tl33XWXsf0IDm8iptl+BIc2fdgne9SoUVZeXs7hbono7F69esW3FKEDsrp16xbf0xu59CEym3a2QCFPTP369TMeakkkOQn7iBqn3+bNm239+vWGfRz7tL2szOaNGG5921Va2xa+1qx769jx6hU276wzd1WqJAIiIAIiIAIRJtD/ttusxcBD7NMU+2+3jP0fQJ+CTTb//PNs/YIFEZ6JTBOBhhNQ5HbDGUqCCIiACIiACIiACIiACESRQOyrbWbMwgF94IEHWhAEbhsSpFLHPtgTJ0509Tib2Q+7qKiI5qTpzDPPtIceesjtiX388ce7rUyCILA999zTcJ7jmKbebzmSVEiskijtkpISw4FNwknOcazJeOAlDnLs49in+WePsA7rS61rzJnt63y+T2G5bXljpi0eM8ZXKRcBERCBehMIgsBdF8MOF8pBoHpxqDqtMsFh0LTp9un2Fin33+bupL1b77C/nniCVWzb5hRnQi+CJAcKZuJQnQNHMCEnUQ6Cxr/u/e1vf0OdkgiIgAiIgAjUgYC6ioAIiIAIZAOBjDm3meyNN95oRGmHncY8GHL+/PluexDfRjtl72wm55h6+rP/Njn1fkuRkSNH2rRp04w+4Xp0Tpkyxe3TzRjfx9vjx+Pspo40e/ZsOzPmRKfs03sx28vffN16tdjqq3bLi4MN9snUKbb8t7/drU0VIiACIlAXAv7a9NOf/jQ+jLLqzcSh6pTIBIegoMA67rOPba5I/XG/Z+z35n0qy21e7AdeNGdCr+Tk4fuaRY+lms6fWBf3Hicn1dSfayJ96EuiTB2JMnUkytSRKFNHokydnNvQUBIBERABERABERABERCB3COQ+ttuaK4VFWmeSBXqlw1FtibZuHGj4Qj39n76hz/YsnvvsT62wVclzQsDs74xB/eCCy+0NbNmJe2jShGoiYDaRUAERKApCKx/+237++FDrMMXy22vovSf4/sEm6zsLy/avydMaArTpEMEREAEREAEREAEREAE8oKAJikCItD4BGrl3C4oKLD999/f3nrrrca3qJE1EPVNtLdXs3HRIpt//vnWt3CTsf+or0+Vt2thVtzebN6ZZ9rW0tJU3VQvAiIgAiIgAs1GYNVLL9nfS0qs69pPbK+W22u049PyAtsW83+3O+CAGvuqgwiIgAg0EgGJFQEREAEREAEREAEREIE6E6iVcxupo0aNsuuuu45iTqV5w4fb3q22G/uO1nZi3VpXWuctq2MO7jNqO0T9REAERCCDBCRKBFITWDFtmr3xzW9a72Cj7RH7vErd06x8p9m/t7axnYcfY8e+92/b+wx9rqXjpTYREAEREAEREAEREAEREAERaFoC0lYTgVo7t0ePHu228jjyyCNt7ty5NcnNinYitlt9stR6tIp9u6+jxXsVbrWd/5pnCy64oI4j1V0EREAEREAEGofAB/fcY+9cdKH171hpXVqn17Gq3GzRhkLr9ZNxdvhfX7aivfZKP0CtIiACIiACIhB1ArJPBERABERABEQg7wjU2rkNmcmTJ9t5551np556qp199tk2c+ZMqrMyfXjvvbbuuaetd8Gmetm/szI2bPt22/DO27GC/kRABERABESg+Ql88ptfW/eCbda+ZWpbKmKfXx+Vt7Q1e/azr782074ydmzqzmoRAREQAREQAREQAREQAREQAREQgQgTqJNzm3lceuml9u6779phhx1mV111lfXt29cuu+wye+qpp2z9+vWWDf+WP/OMLRwzxnpXltXG3N36lG0zW7SljXW98BI76p+5EcVu+icCIiACIpD1BA7941NW1mlPW7W9MOlcNu0we3dDS2t3xrl27PtLrcuRR5r+iYAIiIAIiIAIiIAIxAmoIAIiIAIikGUE6uzcZn5dunQxtimZPXu2PfHEE1ZcXGy//vWvbb/99rOvfOUrNnz4cLv99tvtT3/6k3344YcMabaEfuzAHuwaELPxxdNPs96tt1ub5N/909r66dZC+7igk33tsWk2YNKktH3VKAIiIAIiIAJNSaBt7DPu8L/81UqLutkX23b/iOfByZUtCq3j4MFNaZZ05SwBTUwEREAEREAEREAEREAEREAEmpfA7t9862jPIYccYtdcc409/fTT9sUXX9gzzzzjti1ZvXq1/c///I8dd9xxVlRUZAcddJCdcsopdvHFF9vNN99sDzzwgHOMv/rqq7ZgwQL74IMPrLS01DZs2GDbtm2zysrKapZwTD3t9KM/4xiPgx15yEU+etCHXvRjB/awncoTzz5rR4++ytYXtq0mv6aDrTvNlu5sbxVHHGfHLFpsPYcNq2mI2iNMoF27drZx48ams1CaROBLApx3nH9fHioTgYwTaD9ggA158c+2skUnW729+sd8q9jh/q3LbcnYa+3j3/0u47olUAREQAREQAREQAREQATynoAAiIAINCmB2NfczOobEPtSfe6559rEiRPt+eeft2XLlhmO5enTpxtbmhx88MG2Y8cO91DKRx991H7605/aBRdcYN/61rfsa1/7mvXu3ds6depkLVu2tCAIrKCgwOUcU7/PPvu4fvRnHOORw0MukYt89KAPvejHDuzBLuw74I47rOXAwfbZ1tqFbq/ZFtjiLa2t51XX2pA//8Va9+xp+pfdBNhOhx9IsnsWsj4bCXDecf5lo+2yOXsIdBw40Ia88KKtqGxnaxIc3EWxj75+LTfbvy4ZZZ/+4Q/ZMylZKgIikJMENCkREAEREAEREAEREAERaAiBgoYMru1YohS/+tWvuojuUaNGxSO3Z8yYYa+88orNmzfP3n//ffv8889t3bp1tmXLFucA37lzp23fvt3IcVxTX1ZW5vrRn3GMR46P3EY+EdroQ28qGwc+Os1WBW2N/bNT9aH+4x1FtrJTLzvsT8/bf1x/A1VKOUDg0EMPtTfffDMHZqIpZBsBzjvOv3rYrSEiUCcCnQ87zIbEPruWb21l67YH1ca2a2HWr/VWmzt8uJXGfoiu1qgDERABERABERABERABERABERCB5iQg3XUg0CTO7TrYU61rQUGBFRYWuujtag0ZOCjaZx8b+NDDtjzmvN5ekVrg5p2B9Ro+wrofd1zqTmrJOgJDhw51W+lkneEyOOsJsIUT51/WT0QTyAoCXUtKrH2/frZ5x+7mdmhp1rVNYP++UT/c7k5HNSIgAiJQfwJ33323EWRz3333VRPCcdu2bY32ag1ZfsB8mne+WQ5Q5ouACIiACIiACDSIQEGDRmf5YPbNLv7RlfbxztT7b/drucU+nnK/rZg+PctnK/PDBEaMGGE8EPXtt98OV6ssAo1KgPON847zr1EVSbgIfEngX5deYoUfL7W923z5HIsv69lua+GOjtbqhFPsaw8+9GWtMhEQAREQgUwQGDlypLv7dPz48dbzy+0M99xzT+OYu1Fpz4SeqMhgPtxty/zyYb5R4S47REAEREAEREAEqgjktXMbBP1vu81aDDzEPk3Yf5s2UssYoT4Fm2z++efZ+gULqFLKEQI//vGP7dZbb82R2Wga2UCA843zLhtslY3ZT2D51Km28uGHrG+rrfHJbNxu9n5lJ1tb/H/sa49Nt0Ofeto6HHRQvF0FERABERCBhhPo0KGDXXXVVbZhwwZbuXKlcVxaWuqOqee44VqiI4H5MK98mW90yMuSTBKQLBEQAREQgewlEHPdZq/xmbJ80LTptqagfcr9t7l1u3ebCpt31plWsW1bptRKTjMTGDt2rH344Yc2NeYAamZTpD4PCHCecb5x3uXBdDXFZiawZtYse/uSS6xPi81WEJhtqzBbXtHOlhV0sb6bWWxLAAAQAElEQVS33G5HL3jbepx8cjNbKfVZSkBmi4AI1ILAT37yE7e9Il1x+pKz3SL1lHMtMS/mx7zyYb7MU0kEREAEREAERCAaBOTcjq1DUFBgrfbobpsrUuPo3qrC2qxaYfPOHhEbob9cIcCDSImk/eMf/9gIU5JIEagiwPnFecb5VlWjVxFoPALbVq+2eWf8l/VtV2E8OPKz7S3tX+sKrPNFl9oJn35qfUeNajzlkiwCIiACIuAIEM08evRoa9mypTsm55h6V5FjL8yL+TFPpkbOMfUcK4mACIhA7hPQDEVABJqLQGpvbnNZ1MR617/9tv398CHW4YvltldRRVrt+wSbrOwvL9q/J0xI20+N2UPg4IMPtieffNLOPfdcRXBnz7JllaVEbHN+cZ5xvmWV8TI2Kwng2O604QsLYv8t3Nbe7IRT7dhFi+yAO+60wqKirJyTjBYBEcgxAnkyHaKZCwqqvm6Rc5zLU2d+zJM5knNMWUkEREAEREAEREAEGpNA1f9tNaaGCMte9dJL9veSEuu69hPbq+X2Gi39tLzAtu2stPYHHFBjX3XIHgLf/OY3bebMmfarX/3KzjrrLOOhf9ljvSyNKgHOI84nzivOL86z+tiqMSJQFwLvjr7SNs9+wza1amdlXxlog2Y8aYfMeMLa779/XcSorwiIgAiIQAYIELVM9HKLFi2MnOMMiI2sCObHPPNlvpFdCBkmAiIgAiKQtQRkeP0I5K1ze8W0afZGzKnZO9hoe7SuTEuvfKfZ+9vaWMXhx9hx/37f9jrjjLT91Zh9BIionT17tpGfeOKJduqpp7pIbhyUGzduzL4JyeImJ8B5wvlCpDbnD+cR55M/r5rcICnMOwJLJ060j+7/f7ajqJ3te8fdVjJ3nnWPXc/yDoQmLAIiIAIRIkD08rBhw4w8QmY1minMs4nm22hzkGAREAEREAEREIHsIpCXzu0P7rnH3rnoQuvfsdK6tE6/YKvLzRZtKLS9x95oQ/76srXea6/0A9Sa1QTGjh1rpaWlds4559isWbNsxIgR1rNnTwuCQEkM0p4DnCecL5w3nD+cR5xPWf2GkPFZReDzp/5oe48YbieuLLU+F10Usl1FERABERCBVASWLFliN954ox155JHWqVOntJ/1QVD3/x/s2LGjzZgxw8iDoO7jgyC7xjDPxpov68M6sV6sW6o1Vb0IiEC0CfD+5X3M+5n3dRBk13UuCPLHXtaHdWK9WLdon1myLp8J5KVz+5Pf/Nq6F2yz9lXPd9m1/qFSRaXZR+UtbfWe/ezrr820r1x3XahVxVwngJPywQcftHfffdeIyK2srDQlMUh3DnCecL5w3nD+5Pp7RPOLHgE+qwb97kELCgujZ5wsEgEREIEIErjyyittyJAhVl5ebrfffrt99NFH+v+9CP8/L+vDOrFerBvrF8HTSiZlEwHZ2uQEeN/y/uV9zPuZ93W671hqa97v4KwP68R6sW6sX5OfNFIoArUgkJfO7UP/+JSVddrTVm1P7gDYtMPs3Q0trd0Z59qx7y+1LkceafonAiIgAiIgAlEmEHz50LIo2yjbspeALBeBXCLw6aefukjtzZs3O4f2xIkT7ZhjjrHOnTvn0jRzbi6sD+vEeuFwYf2IKGQ9c26ympAI5BgB3qe8X3nf8v7lfcz7mfd1jk01p6bD+rBOrBfrxvqxjqxnTk1Uk8l6Annp3G673352+F/+aqVF3eyLbbsjaBmrqmxRaB0HD876BdYEmpyAFIqACIiACIiACIiACESYwOmnn27f/va33fNV+OIeYVNlWgoCrBvPOWEdWc8U3VQtAiIQEQK8T3m/8r7l/RsRszJhRt7IYN1YP9aR9cybiWuiWUEg5sbNCjszbmT7AQNsyIt/tpUtOtnq7dUxtIod7t+63JaMvdY+/t3vMq5bAkVABERABERABERABEQgvwhEY7bcUv3Vr37VbrjhhmgYJCsaRIB1ZD1Z1wYJ0mAREIFGI8D7k/cp79dGUyLBTUaAdWQ9WdcmUypFIlADgZgbt4YeOdzcceBAG/LCi7aist1uDu6iQrN+LTfbvy4ZZZ/+4Q85TEFTEwERiBwBGSQCIiACIiACIpBxAjwM67e//a3deeedGZctgc1HgPVkXVnf5rNCmkVABJIR4H3J+5P3abJ21WUnAdaTdWV9s3MGEbNa5jSYQF47t6HX+bDDbMifnrePt7aytdsDquKpXYuYg7v1Vps7fLiVPv98vF4FERABERABERABERABERCB7CLwyCOP2MiRI7W3dnYtWzVrkx1wqzzryvoma1edCIhA8xHgfcn7k/dp81khzZkmwHqyrqxvpmVLngjUh0DeO7eB1rWkxNr362dbdnBUPXVoada1TWD/vlG3LlYnoyMREAEREIEIE5BpIiACIiACCQT++te/2qmnnppQq8NcIMC6sr65MBfNQQRyiQDvS96fuTQnzaWKAOvK+lYd6VUEmpeAnNtm9q9LL7HCj5fa3m0qq63Gmm2BLdzR0VqdcIp97cGHqrXpQAREQAREQAREQAREQAREIHsILFy40AYOHJg9BsvSWhNgXVnfWg9QxzwmoKk3JQHel7w/m1KndDUNAdaV9W0abdIiAukJ5L1ze/nUqbby4Yesb6utcVIbt5u9X9nJ1hb/H/vaY9Pt0Keetg4HHRRvV0EEREAEREAEREAEcp6AJigCOUZg/fr12pIkx9bUT4db5Flff6xcBEQgGgR4X/L+jIY1siKTBFhX1jeTMiVLBOpLIK+d22tmzbK3L7nE+rTYbAWB2bYKs+UV7WxZQRfre8vtdvSCt63HySfXl63G5REBTVUEREAEREAEREAEREAEREAEREAERCD3CWiGIiAC0SKQt87tbatX27wz/sv6tqswHhz52faW9q91Bdb5okvthE8/tb6jRkVrpWSNCIiACIhAsxGoWLPKVg09wtZPGBu3IbFu299ftU/3CIw83ilFgT6bH/tNitb01YytrZ5kkiq3bLa1o85xiXKyPrWp2/HeIls5uNjNGXt8wr7ajt94789q01V9REAEspeALBcBERABERABERABERCBRiWQt85tHNudNnxhQey/hdvam51wqh27aJEdcMedVlhU1KjQJVwEREAEdiegmmwn0Orrx9jeX1Qaebq54BRee/n30nVJ24b82uhJKySDjZ3v+7WbNzZRXjXs2Bod/PwwsO5H37eKDeszaIlEiYAIiIAIiIAIiIAIiIAIiEA2EJCNmSSQl87td0dfaZtnv2GbWrWzsq8MtEEznrRDZjxh7fffP5NsJUsEREAERCCPCBCxTPQyOdMmMptjElHfOHRJOHV3fvyRrbviwngkOA7vcBS0l+Hry8Zc6qKkibje+sqLLlra90mmB/0k+qCfhHzkUU+qLFtna39whpPl7aOeFJaJztpGeLc5bbi1Of1s2/TQVGMM+tCLfhJyqS/7yRW27Z//sI0/vyMeQR62NWyPr9/0y587Bl4OdiqJgAiIgAjkAQFNUQREQAREQAREQATSEMg75/bSiRPto/v/n+0oamf73nG3lcydZ91PPDENIjWJgAiIgAiIQN0I4NTdcNfNRiRzzyVfuMEbJ99lBV27W+ef/9YKe/d1bR1vvN3ou3r4ydbh6nEuApoxRHZT7wbGXirWl1mPWQuty5RHLWi96+4i+oT1xLoaeshpQ073p/5mey3fZK2GlNiGSbc4pzPt25e8ax3H3+Xk7iz93MpfeJpqF3WN451x2L5z2VJDh2us4SVo09YKe/U2xlSsXe30dfnFg25e7X90rZODY7/Tz+6zVoccbtQxJ+qwlblja2HxfoYDHEe4V7nz809tz7nL3JjNMec5PxT4NuUiIAIiIAIiIAIiIAIiIAIiIAL5SSDvnNufP/VH23vEcDtxZan1ueii/Fx1zVoEREAERKBeBIg0JnKY9Hn/PVz0cTpBOIlxGnd/4U3DkZ2s77Y5b7jqVoce6fKiod+xwh49bfPjD7pjXlp/4wTDcUw5WUqmB7nIaXHAQW4sTmSSl0NbQfc9jER5x9L3nOjyl553jmfG4YxvVXKs7Vzxcdwp7jrV4iUoauOc8QXde7iIa9ilGoattMEA+5gvDvKwc7vFfvvTxchxxlesqvrRwFXqRQREQAREQAREQARSE1CLCIhAPhKYP9/sttvM/vM/zfbbz6xtW7MgqMo5pp72+fNN/7KbQL2d20SEhW815os+iduHa4OE8c3xIKmvvzbTBv3uQQsKC5OayRdpbsEmUWY+4XmF7SZqjFun6UOiTJ0XTB23YPvjpsjRGba3KXRKhwiIgAjkCwEijdlbmkRUM9HHyebeYv8BxhYdtOF45rqc6vMApzLOZZzM9K9LSqcHuelkER2NIznch889HNlsGYLzHrtxSic6msNjUpUr1q5xD+EkKr3b9OddpHqqvthK9HZpyYFumxSYJTqwWxTH/oc0lQDVZ5CARImACIiACIiACIiACIhAFhOYNs3sqKPMTj/drLTU7Ac/MHvxRbPVq80qK6tyjqmnnX70Z1wWTzufTa+3c9tD4xZivuSTKEf9QVJBQd2mHH5wF45r9kr1D8Aioo1oPPqQKFMHG5zg3GJNuSkTdrAW5E2pNy91adIiIAIikIYAkdpcj9neg25s7cFnA+Vwamgkcio99ZGLs5ttRXDa47zHflL48y1se2LZO8dxnO9c/qGLbGdbEpzwiX3Dx9jKVi1svYI+EluQ1DQuLENlERABERABERABERABEWg0AhIcfQLz55ux7fD995tddZXZ0qVm99xjdtppZl/5ilmbNlVzIOeYetrpR3/GMX7+/Kp+es0aAnXz9NYwLaLUmvpBUj5Smegy/8AtouP4gk30NYkyjmkiq9dPGBufBWXGkWijT7zxy4KXzwO82P+TaDai2LxcdDGeRCQ7jgvk4AQnCo3oM/R8Kc5l9KEvkevoZazvg63IJlFGFn18u7eH4/A4Jzj24tvJ0+mJddWfCIiACIhAIxHgGsw1mpwfG4n4ThWdzVYcmOG35mAbE6KW2571ParTJuSn0pMol88NPk/YCzud0KITTnZO6R2L37XEz6B042jbPu8t2zLjMWt3/kgr7NXH7S2+Y9lSJ4d9sumTLIVt5bOPz0AS5WT9VScCIhBtAvlo3axZsywIgnh69NFHa4VhyZIlNmLECFu9erWFy7UaHOuE3lGjRtmWLVtiR9H/mzBhgmOUTTZHn6osFIHsIsD1imsA14PaWs61LggCGzRokL3wwgvx62Ztx9elH7pG1fG6ylxIYT3hazrXeK711IX71KWMjKFDhxr21WVc3vT97W/NDj7YnCN75syqvC6Tx9HtxyEHeXUZr77NSiCjzu2giR8kxZfu9Tdf6x4uRZRXy0GHGg7l2hDFIcCt1zy4ikgxHAn+IVzJxvMAr2QPwCp/ZoYR3UbCccHDuuCQ+MCwZDK3xxwH3Z582d2qveXJ6e6hYsn6kp2mvgAAEABJREFUpapjzkTspWr39Q3V4+UoFwERyDgBCcxRAji0/d1MOJ/5UbTjuDuMu3uIUObhjvz4iQOX427Tn3cPW6QvEd4c1yZqOZ0exhM1jR7k8jnDZ1NBl25pqYdlsjVJYfF+1uHqcSnHePno4O4tItWRgX5+9KYdOUGnLu4zumJVqePAXt5wweHOlize1s/6tHMPpOQzl8/TlIrVIAIiIAIRIYAjG6fGqlWrrLKy0jZv3mwzY1+QqauLif3797dp06ZZt27pr9NhmSUlJTZlyhRrQxRauCGCZRxaGzZssMWLF2eNzRHEKJNEIOsJzJ07181hxYoV7oc9d1DDy7Jly+yRRx6x+fPn27777ltD74Y1Z9N1tWEzzaHRRF/fcovZP/5hdtll1Sf23HO2+fzzray42LYXFVnsF1aXc0y9xdot/I/xyEEecsNtDS9LQiMRyKhzO2xjUzxIiqgyIqmJMkM3kV84CSjXlPjizYO1cCKwx2dtneJhuXxx7zrtOSPKji/u2BJur6nMrd9B7AcB9hFFP1/4axrj2/2c/XG6vCF60slVmwiIgAjkCwGc0mzNEf5BMbGOzxV+dCSHS9uzf2Ac++True7z+UM9Ocd8nrANB3XkHCODnGNkcUxCDv3IOaaNY598PW2UfT1ykIc+9JIoJ86DcWGZvh/14YQsZHr5Pken7wcvX9/t8ecdD9/u2+CKDdT7vr4OOb6enGNsQy/6OVYSAREQgeYkQCTds88+a/fdd1/cKY2j+dZbb7WFCxe6aGwi9YjYuyf2JTkIqiIPqWPsFVdcYdOnT7dzzjkn9p38H/FoxFmzZtmoUaNszJgxse/hgQ0dWhWtN2jQIHeMQ515+344jkmMCYKqCHLa6IOuk046yUjIQS91Xpavoy9jsJUUBLtspS0xYUMQVOlCFjK9DcihP7qQtWDBAhs9erRNnDjRDjjggFpEHjJaSQREIBcJvPzyy3beeedZr169jChsP0euG6Ni1z2uI9RxjeFHQvJzzz3XSNddd50lXje5tpH8tQw5QVB1bQqCoNr1BllBUHVt4/qKfHSFE+OxY82aNe46TJ8gqJJHOdw3U2V0BkGVDnR7BuQcB0Fg119/fTV1XHO59gZB1WcE11s6IAsetDEWGdSTGMM1OfHziDYSY4Oguh2MR87w4cPd5w996BuZRIT1L35Rtaf2kCG7zPr9751De2Hs3Lnh4YfthI8+sm5bt1oQ60HO8fWxetpxdFusf6yp6g857MmNXORX1eo1wgQazbndFA+S4lbnMFsiv4ieDtelKvvtRGgn6pr9RSnXJRH9TaTa1tdeMmSwJUtdxrPHaF3617dvU+mpr30aJwIiIAIi0AACGioCIiACItBsBIhC7tSpk/Xp08fC/9q2bWvUz5kzx1UvWrTINm7c6CK7r7nmGsOxQB+c4jgMcLh07tzZ9fUvDzzwgA0bNsxFghcXFxtOlZdeeslef/11ezj2hdw7Mnz/u+66yzmLiB6nz2WXXeac67SvXLnSxo0bZ96RhHNo8uTJzh6iFHGa4MCgL872yy+/3Ok94ogjYt/3f091tYRzAxt8tPrpp5+etJ8fVFRU5OZ88cUXO/vR6duUi4AI5A8BrltEbPMj15lnnmn88OWvPako8OMfUds333yz3Xbbbe7HxPB1M3x945pEP67NXAsZx7UKHTh2H3roIaONa+nbb7+dSmW1euzljhyuqzNmzIhfV6t1asABdnG9Rj56EMX1PJxTzw8CL+JwjTXAMd11HCaPP/540rtkkn0eeT6eHfpiaszbQfmggw6Kf2ZwHIk0f765h0VOm2ZuT+0vjSIie9nIkXZuzKF90Lp1dk+s/p+xtCGW+CPn+N7YAe30oz/jYlVVf+zJjVweOjl/flWdXiNLIKPObfbGZKuPwuL9rCkeJEXEc5hsxaovjO1FwnXhsi9jJw5pnNHpbrX2/VPl5S89bzjFdet0KkKqFwEREAEREAEREAEREIH8I0D0NlGJfuZ77rmn4cjheOjQoVZWVmbLly/nMGUi8g4HkJeFY4MtS7p3725dunSpNo4IQxzOxx9/vKsfPHiw4ZjG0UMF+hlHGccOObLJsQt7vDMjrPfoo4+my24J5zSOcuyhsV+/fmRKIhApAjImegS4/nBt5NrhfxSs6VpY0yzC1ze2d8IBTM644tgPg+Qkfmw86qijjDb0c02lvqbEdZDrMNfMAQMG1NS9zu1cp7lec91GD3ZxPcepTuKYetr5gRAFcCTHJvLE63jPnj3NX/NpDyd40Z+68OcRfNjyhXVBH3rRj+ObvpG8zl99tRnR1URaY2QslcU+B1948knbN/Y5+2zsuDZ/9KM/4xgfH4Nc5KMnXqlCFAlk1Lnd1A+SanHAQc65jJMZuJsff9DY3oMyt1oX9urt9u3Eme23MEnWxrYidd1SBDlERONMx6nu5059Q1I6uxsiV2NFQAREQAREQAREIAUBVYuACDQyga5du6Z0NKRSjVOG6O5U7cnqcdwEQWCMI/J72bJlrluifpw/OD6CIDCcI0Ty4WChc2304uwYNWqUBUHgEtsFMFZJBERABNIRYEsS7iIJgqrrFFsV4VRNN6amtsTrG3e5BEHVtYlroh//wQcf+GKdcq6JdRpQx87+Ou2HcW3mB0x+cExs833I63sdT+SFLJ/43ODzIwgCgx36ud7T3tgc0FGnRFT11q3V9tgm8vqlt96y0zdurJMo35lxjEeOr3N7eKMHffFKFaJGoMHObR4UxdYcpKZ+kBR7dPKALh5Ihf7KDestvOd227O+5yK52Q9700NTnSPcL0C4jX23Ww0eYkSd4wj3fRJz9LUqOdbQxwOwWh1+lLENCnt2r738e+ZkLFtqyMCO8APDqEuUl+o4bFui3anGqL6pCEiPCIiACIiACIiACIiACFQRwDFM1HNi5CG3jLPn9qGHHuo6ElntncfkHLuGDL7gDCGaj1vxfeJ2/mQqiP7DceL78ZA2ohmT9U1W98QTT7hqL4Nb/11FwktjzTVBjQ5FQASygADbb7D1Rvg6RZnnFnDNTJxCfZzRRDyTuPZwfUOfl1u/yGM/On2eTDY2rF27Nv3AWGui09iPw8mc2BbrHv+r73Wczx90IIicY8oktiWBm0/coYMznLbIpcmTzX78411m/f73Vvr00/V2bHtBOLiRYzF5vs7pQV+8QoWoEai3c5sHOfFAJ//wJ5/7Bz4xUf+wKNoa60FS6EM+qd1FP0RtPIVt5IFYPKAKm+gQbmMe3V/8h9EHBzY5iShqL5+ccYxHF7KI3Cbn2MvgGBmMRQZt5BwznuR181AsjpFNP3KOfTt1jEUmemmjD/XkHCcm6n27l5NKT+JYHYuACIiACGSGwPoJY41UsWaV8WMoz2jIjOTkUpDPsySSt+6q5YdWbxfltaPOMRLlXb3Sl+jLGH5UXjm42Ha8t8ilVScd7nLsoJ1+6SWpVQREIKcI5OlkuLX91FNPdQ84884ZotzYw/rAAw90t7+Dhv1PfXQiub/1m7ZMJJwP6Pv9l1/GcSINGjSo2oPUvB4c8kTjzZ0711Wx3ze3pnv7XWUdXhjHnrbhIURncsxcmTtlJREQgfwmwPUg8dpHlDIOYJzc0HnzzTfdlk1cV3BSU1ffxLU4fG3ix0ac3VwfkR9uq68OP664uNjC+3F73SUlJcbnhO+XLIcB8+aaHB7H9i1siYKd1NNOZDUyGnId55rMWiCH3K9JmA9tRMBzhw66OY5Umj/f7LPPzE47LW5W2Zgx9sOysvhxQwrIQV5cBnrQN39+vEqFaBGot3M7WtOQNSIgAiKQPQRkae4T4AdJEj928gMlPzw21qxxLnP3UG3kc6fStll/c1350ZUfUEmUXWUtXtj+a9vsWdb+R9caP+zyQyqJH4nJ+UG1rjJroVZdREAERCCyBIiOvvHGG922I0FQdas9DgnqvNHs0zpz5ky3hQeOiltvvdXY0xSnBo4dZKxbt853r1d+9dVXG/ujBkHVViM8uBLHSqIwHC08yJIHmAVBYGwLwDH1iX1THeMMx0FOZCG2X3LJJU43/UePHu2cPEEQWGlpqTF36pVEQARyj8Ddd99tGzZsqHFiOEi5BnJt5NrnB3Dd4TrFdZE9pU8//XS3VRLXFfb/9/3CebrrJjJwNNPnyCOPtJNPPtm4u4a7TLg75fzzz69RflhXbcvMgYf04nQOgqrPAZzT4c+BVLKwi7FsA8I1lX5cz8m/+93vkrmtpmDEdZ0KuHHdrs91nGsyaxEEgXs4sf88wg62jPFz4McF34bOpkw1nlfPP2/2ne/sMum552xFzLHN3tm7KutfQg7yLCY3LgV96I1X1L6gno1PIKec23yp5os2X6wbH500iIAIiIAIZCsBHMJEHZeNudTIfaQxUcdEJJN8HRHIlNeM+LaRaGMMMpg/UdPUERHtc9rowzEJufQlUaaORFQ30d3Uk8Jt6EQ3iTIJe8PjGLvuR993z5tgmzBsQA45/UheB7LZVotnTHxx4qG2/e15LmobucghJ6HPy/BjOSbRz+tDFv23vvKioQcO9EEPc4cBiTJ2k9Pfy6evb994789chDtysJ02EvqwgXqS1+HHoYt+1IfbU42jr5IIiIAINAYBHBv+Nm5yHDOJenAS0MZt3jgmaCfnmHT44YfbtGnTXJQf8qZMmeIc4PTDQeJl4oBI1g+HEWPQQUrWH1kkZMyfP9/oR84x9Yl6kYFu2sLJ2814bB82bJihGxuQhUzacHRjK3W00QcdYVmhsooiIAJZRuCGG25wP+xxnUjn5Pbvf64piVNkLNcG+lDm2sF1hesHx/RnnC/76w99wtdN+iEDWcjgOsS1iWsQY2hHDm1PPvmkEcGdbDsRrlHI4I4Yco4ZiwxkcT3jODHRD9k+eXvpV5ex6GQejCPnGJnkd955p6GHNuxgjrSRc0w97fRlLMfJUrLPI/oxFnkk+GI3cpBHG32aItV4Xv3972bf+EbclM2PP26/XLcufpyJwq/WrTPkxmWhD73xChWiRCCnnNtRAitbREAEREAEok+gYn2Z9Zi10G1LxYOBcRB3f+pv1nPJF+6BxEQ6+1lsX/KudRx/l2vjeQsbJt3inrHg28nZFqrD1eOMti6/eNA4JsIZOThkSZQ73/drJ4cxGyffRWY4aNPpJ1qa7bewd2fp51b+wtNGZHjnn//WPW8CmUSLI4dnSOy1fJOb287Szw0d/PCLLa0OOdz2+Osca/Ef/Z1eXoI2ba31N05wc8b5jHOYCO9WJcc6HfQhhfUhy0Voty6iKW0Kc0ZXYufti9+1bk++bMxhy5PT3fYm2FH2kyussHg/Yy60EaEOw8Tx4eP6jgvLUFkEREAEREAEREAERKBmArfddpu1aNHCJk2aZD169DAcuumc3DVLbLweRCIHQeDuoCFCmshqnN2Np1GS60ugxvNq4UKzr341Ln77a6/ZzPhRZgqvxcQgN5ZV/QToBzkAABAASURBVKEPvVVHeo0Ygdx3bkcMuMwRAREQARGIDgEcut7ZWv7S84bjt8UBBzmHLo5dnMQ4S7G41ZAS50TGwdv2/JGGs5ktOmgjFZ1wMpkhD6dvQfceLiqcCGfXEHrBiY1zmi1LcEjTVJN+HOoF3fcwEuUdS99j2G6JLVDQjxO9tORAF9W9W6ckFa0OPdJwhO+IOZpJRHj7OSXpXqeqMOdkAwt79XbcWsQc2TCtWFXq7IaxH4t9jKWNPFVifH3GpZKnehEQARFoKAGi6Yj2IwKuobI0XgREoAYCam5SAldeeaUVFRUZ236Ul5cb20lE1cldUlLi7lYhKpmEI75JYUVAWbZ8HtV4XrH/da9ecaJtP//ckn8zinepcwF5yI0PRB964xUqRIlARpzbRHhx23D4VmLK3CJM7idMmX7093V1yXEwICPVeNrQGU6Jt0DXRV+4L5Fi3DYdrqtLGduxhUQ5cSy2N4RNojyOid6DBTnHSiIgAiIgAskJcF3GkY1D9/P+e7htNnBK71y21CrLtyQflKKWzyiu56uHn2zdpj9vRBz7rmyf1ea04e4QBzfXaLbWqI1+IphxnLvBaV6Qh1y6EIGOw55yTamwd19rFXPg42QnMQ5Hf03jMtHOA5oT5eDExlHtOXlH/Y7YmiT2DR/Xd1xYRr6UNU8REAERyDUCQVAVlRkEyoNADIKg6RjwXgqCptMXBNHRtWbNGisoqHItsbd2eczJzfYZI0eOBItSjhMIgsY5F9OeV1ti38/atImTbbl1q9W883u8e60KyENuvDP60BuvUCFKBKquQA20iC/bfOnGMcAXdBJlxHJbM1/0fR396E9bXRNRaMhLN44v43yZ51ZwchwT60b/9263jqeTkdiG/ewxWrFhfWKTjvODgGYpAiKQ4wT4XCJ6OPwZwucIkdUFXbrVafY+6pltSXBmJw4mUtvJfqrqwY58tuHEzYR+Pmu3vvaStTn9bGN7lETd6Y5hQJQ024Jse/0Va5WwJUm6sY3RRuQ7Dnd+HICXT23P/kFadfUdl1aoGkVABERABLKCANGYSpXVolPFo2l48AbJV9bsTV1RUQECY39mIrnHjBljU6dOdXVZ+CKT60Cgsc77tOdVgqN5e+vW1qEONtemK/KQG++LYxu98QoVokQgc87tXr3jt2jzJZ1bgpkotzhXrPpit9uLiSYmsoxEhBsOZPqTc0w9iQg06smJoiOqjgdhEUlNfbrEreMdx91hW2Y8ZuylSt9UesOR0zgHiLAmYQ97fqIX/dTRjj3YR8Je+iGfhCzqSb4/9aTKsnW29gdnuKjAxHG0+xSWz0O4/HyRzTiiyJEfbmNseByRd9QpiYAIiIAI1EyALTi41uOc5prOtZZrrh/pP0to2/zQVGs1pGqbEt/uc+9cJcLY9/Vt/jOInO1D2LeaLUbYaqQm/V5Gujxo09ZwkvPDLp9VbH3CnNKNCbf5rT+2zZ1t2BNuS1UOzxedONdT9a1LPY5tGCMPuXy++c88eMHNb80S/rxLN64u+tVXBESgNgTURwREQAREIJ8J3HvvvUaktndqX3XVVVZaWmoTJkywDh1wD+YzHc29vgRqPK/22stsxYq4+M09e9r+8aPMFJCH3Lg09KE3XqFClAhkxLnNhPgSjFO7YlWpbZvzBlXW5de/dznH1NPOfpo4ankoFNFYPCSKaG4cyHx55aFXDCLqmnYi2uhPpBZOAKLq3IOw9h9AtxpT+Es3clLpTSUIR0Gnn93n9mFFP/uYMg/swj7sZKy3my/fRJdTz0O/cPITBUcfkn8gGW04/nE8UB9O2Fn+zAz3sDHk8AWeh5PBh344KvjC79s2P/4g1e4BXNiFnUS4uUq9iIAIRIOArIg8AZzNXNdXDTvW2JqEz6Zw9DPR0Fv++LhrYzJ8NvAZQTmciNZm6xG200BO0KmL+4GXz8GwDn6g5EdTfoTlx9hwG+MS9Yd1hMvemYs+flBtM+wst3c2MvhMaDV4iHE3FZ8hfFbzGULbtjd3f+yKl8VnbW23JAnPl61DCjp2CptX7zJsYYyj/rM+7Yz5+Wh4eLHvOfzgGFaSbly4n8oiIAIi0JwEVq9ebUOHDnUPNguCIJ7jEGpOu5YsWWIjRoww7GtOO6RbBEQgOwhcd911tn37dstlpzbXxUGDBtmoUaOMbVf8ylCmjjb6+PpkOQ+zpC9bbZBznKyf6qoI1HheHXig2TvvVHWOvbb8xjfsG7E8k39Hx4QhN5ZV/aEPvVVHNb+qR5MSyJhzu5oTeel71mpIibUafLjhmCWyaseypVUP4ureI+78JkKML6HcBs2XV754M3u+eK85+1QrGvod23PuMuOLM/UNTTjZkZFKL211SXzRxjnNbevcZo79RJj5W7mxG/txzHu58CDijEQZNr7N54zrOu05Q7ZzQPzzH77J5Tgf4A07nB/eaeHn1/as77l+ODFcQS8iIAIiIALVCHCdTbw+04HrNT8Okvgxk+ss9T51HH+X0cZ1Hwcr9TilqSPnmMRnAnWkbo8/78b49rAO2n0948JtXj82UCZRRi/60cEY6mhDFnnLrx3sPjs5Zo7dX/yHUU8/dFFPan3cSa7et4VlIR891CUmz87rp50yMtHX6c77nX76kahjXvRLTInt3j5y+mIDtiCb5OtpQyZ1JK/ft6cbx1glERABEYgKgddffz2+hQQPZFuxYoXNmjUrKuY1iR1SIgIikL0EbrnlFvdjGD/M5XKk9p577mnr1q2z5cuXxxeLMnW0xStTFEpKSmzKlClGhHuKLqoOEajxvPr6181eey0+ou1ZZ9lFnTvHjzNR+O/OnQ25cVnoQ2+8QoUoEcigc3sP58jGuUvkMrdFF+7Tx+3ZyTH1OLxxzOLQJfqZCC8irnASE8VcseqL2MnzPecEx8GNY5fbwrmtOxPQ0umti3y+jBOVxxhsZw5EbOPcxklPfaqEMzpo0zZVs6vndnVkwozobKIFXcOXLzjFC7rv8eWRMhEQAREQgTwhoGmKgAiIgAjkMAGcHr169bJly5YZUYAnnXSSkYjwJpKaOiIEgyAwXwcOnOGjRo0y9rgNguptjKNvEFRFh+OAYgwp3EYfjqkPJ/ojmwhFykGwu5xwf5VFQATyiwAR27ns1Paryf7Phx9+uM2ZM8dXuTJ1tPlKrsdBUHWdDIIg/mMl9f5a6vsqT02gxvPq5JPNnn56l4Bvf9t6depkp+6qaVAJOcizmNy4IPShN16hQpQIZM653bW7c2SzJymOaR813GK//Y1j6nF449ilDic3W3MQcUUisgunMYky25Xg1GWs3/IjDA6HN45vnMB+D85d7btKFatK3e3gLYr3s3R6d42oXclHiXUPPxDsk48N57WPpK6dpN17sXcot4RzOza8du+RuoYfDZhz6h5qEQEREAERqAsBrsNEN5Mo12Ws+oqACIiACIhAbQngXMYBUlxc7IasXLnSxo0bZy+88II7vuKKK2zy5Mku0psowOuvvz5+i/wDDzxgAwcOjLfdf//9ro0+5513nqtfvHixESmOkxxnNW033nija6MPYyz0D2d2v379XLTh3LlzjahyostJGzZscA74UHcVRaAZCUi1CDQ+Aa6HM2fOdNdWrqELFiywIUOGxBVzbb355puNay0PWXzkkUfs4Ycfdv3jnVTIDIFBg8zY//rJJ+PyOt15p/1PzMEdr2hAATnIi4tAD/oGDYpXqRAtAgWZNAfnMfJwXLNtBmW2AOGYsm+njmO20SDamT1CSTisyUm0d/jxDS6K24+jzqfwLcc4w3GK+zafI3vTQ1MNJ3nLgw+zVHrphw4fPY6DmL2yvZzE3EdWk3MLNHtcE01duE9vY4sVxiKD+eCADz+QLFFWsuOwLTwIkx8GkvVLrGN+sMY5TpvPKSuJgAiIgAiIgAiIgAmBCIhApAgcddRR8f22u3fvbjiZcVxjJLe6U0cZZwn5AQccQGZnnnmmlZWVGY5mKnyEN2XaFi5c6Nq4Df6cc86h2pDlIwy5nZ7xXh59cHS7jrGXhx56KPZqRr0rhF6IML8z5kTo379/qFZFERABEchtAgMGDHDXXa6fJGbbt29fMpe4Jr744otGTkVxcTGZUmMRuOwys0mTdkmPfS72+M53bEb79rvq6lFiPHJiH7S7RqMHfbtqVIoYgcw6t4v3c9NrNaTEOaU5YPsM5/jt3TfuXMYRzUOh2NKDh0SxlQdRyjisyTmmnm1LkOW3ACEanEhutivBsYz8xOTbiehGBu2d7/mlEW2XSi9t7O+Nnehcf9PV1rL/QQx1CbtalRxrPLgKZzUP2fIPHUMP9f6BYOwBir3IwU4iucMPJHMCa3gJ28IDMFvxMLBlSw0nfLqhfn7Yg13p+qqtZgLqIQIiIAIiIAIiIAIiIAKNSYBIaiL8fAo7k3FE45D2+nGacBwEgeGUXrRoka1atco140Rp23b3rQ+JBA+CqlvkGcsYBjBu7dq1FHdLvg+R2kST06GkpMSOPvpoQ0cQBPboo49SrSQCIiACOUOgpol069bNDjzwQHfdZXsStmPhx77wOO54CYKqay4/XobbVM4wgREjzFq3Nps8OS64beyH2RMOO6zeDm4c24xHTlwo8tGDvnilClEjkFHnNlHMbDESvnUbxzAPg0qMrvZ96U87/YBDzjH1pLCs8BjK9A8nv1UI43wKj6cv43wbetBHPTnHtPEwR1J4rJdNH/rixKavT8hFDsn3pc3LwIFOmUQZGciirx/DMfUkyoyHGw8D45h6+vsycpBHoowc7GAcib7k1NGmJAIiIAIiIAIiIAIiIAINJKDhzUTg4osvdtHY3hE+f/78eIQg+3T7KG7vuF6zZo3haPEOdOqJPMR8HN1dunShuFuiz/nnn++c2eGtSnC8oxs93JqP43y3waoQAREQgRwmcPzxx9tTTz1lXAMph6fKNZHEtZZrJdfecLvKjUDgrrvMLr/cbPbsuPBOL79sQ087zT7sVPs9uNljm/6MY3xcGHKRj554pQpRJJBR53YUJyibREAERKD5CEizCDSMwObHfmPciUNK93wJr4U7fNjai0TZ12c65+4pbPKprttvZdoeyRMBERCBXCdApDYObPa+Zq5ETg8dOtR8ZDVR3X7rkpdjX+yJtCbym74+sXe3j8rGuU3kth+DvFGjRll5ebnv7h5ayfYm7CNLO45y39ixY0e3zYk/Vi4CIiAC+UCAa+ef//xn9+Bfrsup5sye3Oy3napd9RkiMGiQ2W9+Y0ZU9fvvx4USeV08dao90revvdu5s11pZofEUodY4o+c49GxA9rpR3/Gxaqq/pCHXOQPGlRVV+OrOjQXATm3m4u89IqACIiACIhAGgI73ltkG+662Xhwcc8lXxhbZ22YdEvaLaq4i4e7eUiU04ivdxOO7VXDjjW25+LuoB6zFtqWJ6ebHNz1RqqBIiACIlAjAW6Hv+++++yyyy5ze3RPnDjROKbQ2nVPAAAOjUlEQVSewcOHD7df/OIXro3tRK6++mqjjT28uTU+CALbtGmTHXHEEe6WetoY7+XhhLn11lutqKgIcS7R5/LLL7d77rnHTj75ZPdAySAI3NYkPLzS7yvrOtf1Rf1FQAREIAsJ9OnTx11H+QGRa2R4CoMHD7bi4mL3w9+RRx7prps824C7XcL9VM4wge9/vyp6+6STqkVws2d2p2XL7MBHHrFbzzvPXoo5ule3bm2VMfXkHN8Sq6edfvSPNVX9EbGNvNhnoCG/qlavESZQEGHbZJoIiIAIiIAI5C2BilWlxsOJy1963tiWii2pwk5rnMk+cprnQVSsWeUc30Rtk3zkdrhfuB6wqdpwYCN70y9/bkSMUyaKnDFsdYVTm+25OC7kmRpDSmznio+dfuqUREAEREAE0hPAKUIkNQ6SZD1xHE+bNs05qH07dWxFwu3u5Bz7tk6dOtlvfvMbo42HSPp9YP1WItSPHDnSaPM6GY8c2rAFm6gL66UvY4gCJ6cvCblet3IREAERyGUC4esi11auhf4BvFw3uWbSx7dxjeTaOmzYMKONPonXUo5zmVmTz230aLMbbjA7/PBqe3A7O779bSMiGwd2S+5Oqqw0co6pt1i76+df2GMbOchDrq9XHmkCueTcjjRoGScCIiACIiAC9SGw8ed3WKJTGuczzuS9lm8yIqd3ln5uGyfftZt4+jGe6G/6bZs9y0VZ0xHH9rZZf7OeS75waeeypS5SnDafdn7+qfHsh/Y/utY2PzTVcKD7NnIc6OtG/7dtmfGYtTt/pDVWtDi6lERABERABERABEQgREBFERABEdhFgAjrefPMnnzS7Oijq/JdrTWXwuOQg7yaR6lHRAjIuR2RhZAZIiACIiACIhAmQIQ0TmXqcB5/1qed4azmmDaiuNm2pLTkQBfhTX2qxDYiRILjqG579g+ckxrHdquSY11UOJHhbWPOabYXYTsUL6fFfvu7IjkO9IpVX7hjXnB0rz7teOfYxnmOTdQrRZGAbBIBEchlAiUlJS4im6jBXJ6n5iYCIiACIiACaQkMGmT217+aXXqp2d13m+23nxnR1ziu2UN7y5aq4eQcU087/ejPOMYPGlTVT69ZQ0DO7VosFZFpRM2RKNdiiLpkKwHZLQIiIAIRItDxxtvdntvepPU3X+sc02wRwlYh1BN53eqQwynulloefJi1Of1sV4+DmzE4yHFS46zGae0aU7y0KI79D2GKNi+Dvbfl2E4BSdUiIAIiIAIiIAIiIALRJSDLcpPAiBFmr79uNmOGWY8eZr/5jRl7aHfrZhYEZuQcU087/ejPONO/bCQg53Y2rppsFgEREAERyBsCOI7Z45oobhzSOz/52La+9pJzWne4elxaDmwTQoQ343FC0xkHuRUWugdU7lj6HlX1Si32H+C2LCESvF4CNEgERCCrCMhYERABERABERABEcgqAoMGmV13ndkzz5gtXWq2ebNZZWVVzjH1tA8alFXTkrG7EyjYvSo7arht2j/kiohqHqbF/qHeeh/VRpQa7T7iur7jkFtZts7W/uAMQya6kUU9KZk+dKKbVDbmUjcOO7mVmzFKIiACOUlAkxKBjBDgMy3xs6awR08r3Ke3FfbqbeyRzedM+QtP27Z//iOpTj6bvIw2pw13DvHC4v2scO99rFXJscbWJHwmkdhTmz44rZMKS6gkApzPQ3QkNOlQBERABERABERABERABERABPKBgOYYAQJZ6dzmy/yGSbe4qDNux+YhVuEv9nzhXnfFhe5WbtpxALAvaX3H+XXavuRd6zj+LvfgLRwM2IDMVPr8OB7g1e6iH8Yf+oUjwrcpFwEREAEREIFkBIjKbjWkxNhTGycy+2F3/vlv3R7Zbc/6nhHF/Xn/PdxDIFsNHmI8YJLPpLAsoqpxWCPD7dk9e5Z1+PEN7sGPbHmCgxsZJMrUhcerLAIiIAIiIAKZIyBJIiACIiACIiACIpB5Alnp3N758UeGw5gv4jwEq8UBB1l4v9Hyl553x9TTTj++9O/495J6jfPOApwMhb37VjkWzh/pZGFLKn1+HI7wgu57GIlyQ24Dz/wpIIkiIAIiIAKRIxAzKLylCNuK7Dl3mfmoanKOfX33F/9hbD/CZx45ifExMYbDmn4kxjCWelK4jTJ1JL8VCjnHOMkTx9KGTNrooyQCIiACIiACIiACIiACIiACIiACTU0gK53bHhIPwvJln+NQxpFNJDeRaES7bfz5HVW3b2/d4rrVeVx51Tg3OOGlsrzcRcsl1fflOG4B906GhOE6FAEREAEREAEREAEREAEREAEREAERqAUBdREBERABERCBRAJZ7dxOFgGNE5m9SInkZksSospI3V940wo6dXHzr/O4Lt3cuGQvQVGRpdSXZlwyWaoTAREQAREQAREQgQwRkBgREAEREAEREAEREAEREAERyHkCWencZmsQtgjxD8JiD2sip/1qFZ1wsnu41o7F7xoPyeIhjjyYq77jvNwtMx6z7fPecjJ58BY2IDOVPj9OedQJyD4REAEREAEREAEREIFcJ9CxY0dbt25drk8zL+fHurK+eTl5TVoEIkyA9yXvz2iZKGsyQYB1ZX0zIUsyRKChBLLSuU10Ng/E8g/T2vraS26PbQ+DfUA73/drWzXsWGNrErYF4cFc9R3n5RadeIpt/J87nUzqOv3sPvdQrlT66KMkAiIgAiIgAiIgAiIgAllJIMeMPvDAA23BggU5NitNBwKsK+tLWUkERCA6BHhf8v6MjkWyJFMEWFfWN1PyJEcEGkIgK53b7Ku9YdIt1mpIie21fJN5R3d4L20ecMV2JCT/YK36jsMpjoyu054zEjLdNiddu8fZJ9PnxzGWMg/6Ylz4oV1xASqIgAhkNQEZLwIiIAIiIAIiEG0CJ554oj377LPRNlLW1YsA68r61muwBomACDQaAd6XvD8bTYEENxsB1pX1bTYDmlmx1EeLQFY6t3EUtzt/pLFNyGd92llpyYHWKubobnPa8LR06zsurVA1ioAIiIAIiIAIiIAIiIAIRJ7Aueeea1OnTtXWJE27Uo2ujVvjWVfWt9GVSYEIiECdCPC+5P3J+7ROA9U50gRYT9aV9Y20oTIubwhkpXOb1WErECKoffLR0bSlS/Udl06m2kRABERABESg4QQkQQREQAREoDEJ9O/f377//e/bmDFjGlONZDcxAdaTdWV9m1i11ImACNRAgPcl70/epzV0VXMWEWA9WVfWN4vMlqk5TCA7nds5vCCamgiIgAiIgAiIgAiIgAiIQOMQuPfee+2dd96xW265pXEUSGqTEmAdWU/WtUkVS1nTEpC2rCbA+5P3Ke/XrJ6IjHcEWEfWk3V1FXoRgQgQkHM7AosgE0RABERABERABEQgEwQkQwREoGYCM2bMsOeee85GjhypLUpqxhXJHtwSz/qxjqxnJI2UUSIgAnECvE95v/K+5f0bb1Ahawiwbqwf68h6Zo3hMjQvCMi5nRfLrEkmIaAqERABERABERABERCBPCSw99572xtvvGFt27a1vn372jXXXGOvvvqqHN0RPxdwrLBOrBfrxvqxjqxnxE2XeSKQ9wR4n/J+5X3L+5f3Me9n3tdNBEdq6kGA9WGdWC/WjfVjHVnPeojTEBFoNAJybjcaWgkWAREQAREQAREQAREQgWwjkD/2ckv17NmzraioyMaOHesc3UEQWBAoBUH0GOBYYZ1YL9aN9cufs1UzFYHcIMD7lvcv72Pez7yvgyB615sgkE1BELjPRdaJ9WLdWL/cOBM1i1wjIOd2rq2o5iMCItB0BKRJBERABERABEQgqwnwMKwJEya4SO6ysjKrrKxUiigD1oeIQdaLdcvqE0/Gi0AeE+D9y/uY9zPva113o/u5w/qwTqwX65bHp23V1PUaWQJybkd2aWSYCIiACIiACIiACIiACIiACGQfAVksAiIgAiIgAiIgAk1FQM7tpiItPSIgAiIgAiKwOwHViIAIiIAIiIAIiIAIiIAIiIAIiIAI1JNAFjm36zlDDRMBERABERABERABERABERABERABEcgiAjJVBERABERABGpHQM7t2nFSLxEQAREQAREQARGIJgFZJQIiIAIiIAIiIAIiIAIiIAJ5SkDO7Txd+HydtuYtAiIgAiIgAiIgAiIgAiIgAiIgAiKQ+wQ0QxEQgfwgIOd2fqyzZikCIiACIiACIiACIiACqQioXgREQAREQAREQAREQASykoCc21m5bDJaBESg+QhIswiIgAiIgAiIgAiIgAiIgAiIgAiIQO4T0AyzgYCc29mwSrJRBERABERABERABERABERABKJMQLaJgAiIgAiIgAiIQDMQkHO7GaBLpQiIgAiIQH4T0OxFQAREQAREQAREQAREQAREQAREQAQaTiDqzu2Gz1ASREAEREAEREAEREAEREAEREAEREAEok5A9omACIiACIhAnQnIuV1nZBogAiIgAiIgAiIgAs1NQPpFQAREQAREQAREQAREQAREQATk3NY5kPsENEMREAEREAEREAEREAEREAEREAEREIHcJ6AZioAI5B0BObfzbsk1YREQAREQAREQAREQAREwEwMREAEREAEREAEREAERyHYCcm5n+wrKfhEQgaYgIB0iIAIiIAIiIAIiIAIiIAIiIAIiIAK5T0AzzDICcm5n2YLJXBEQAREQAREQAREQAREQARGIBgFZIQIiIAIiIAIiIALNS0DO7eblL+0iIAIiIAL5QkDzFAEREAEREAEREAEREAEREAEREAERyCiBSDq3MzpDCRMBERABERABERABERABERABERABEYgkARklAiIgAiIgAg0hIOd2Q+hprAiIgAiIgAiIgAg0HQFpEgEREAEREAEREAEREAEREAERCBGQczsEQ8VcIqC5iIAIiIAIiIAIRI3AMcccY0EQKImBzgGdAzoHdA7k1DnA51vUPnPzyx7NVgREIJ8J/H8AAAD//8QnQ/wAAAAGSURBVAMA5gv/iDlkbAsAAAAASUVORK5CYII=&quot;&gt;&lt;/b&gt;" style="text;whiteSpace=wrap;html=1;" vertex="1" parent="1">
          <mxGeometry x="770" y="50" width="560" height="450" as="geometry" />
        </mxCell>
        <mxCell id="k6odBhkB7ekg_1NBam7G-6" value="DB2/ERP-System" style="swimlane;whiteSpace=wrap;html=1;" vertex="1" parent="1">
          <mxGeometry x="-50" y="80" width="325" height="590" as="geometry" />
        </mxCell>
        <mxCell id="k6odBhkB7ekg_1NBam7G-13" style="edgeStyle=orthogonalEdgeStyle;rounded=0;orthogonalLoop=1;jettySize=auto;html=1;exitX=0;exitY=0;exitDx=0;exitDy=52.5;exitPerimeter=0;entryX=1;entryY=0.5;entryDx=0;entryDy=0;" edge="1" parent="k6odBhkB7ekg_1NBam7G-6" source="k6odBhkB7ekg_1NBam7G-2" target="k6odBhkB7ekg_1NBam7G-8">
          <mxGeometry relative="1" as="geometry">
            <Array as="points">
              <mxPoint x="160" y="93" />
              <mxPoint x="160" y="260" />
            </Array>
          </mxGeometry>
        </mxCell>
        <mxCell id="k6odBhkB7ekg_1NBam7G-25" style="edgeStyle=orthogonalEdgeStyle;rounded=0;orthogonalLoop=1;jettySize=auto;html=1;exitX=0;exitY=0;exitDx=0;exitDy=52.5;exitPerimeter=0;entryX=1;entryY=0.25;entryDx=0;entryDy=0;" edge="1" parent="k6odBhkB7ekg_1NBam7G-6" source="k6odBhkB7ekg_1NBam7G-2" target="k6odBhkB7ekg_1NBam7G-24">
          <mxGeometry relative="1" as="geometry">
            <Array as="points">
              <mxPoint x="180" y="93" />
              <mxPoint x="180" y="335" />
            </Array>
          </mxGeometry>
        </mxCell>
        <mxCell id="k6odBhkB7ekg_1NBam7G-2" value="Artikel-&lt;div&gt;stammdaten&lt;/div&gt;" style="shape=cylinder3;whiteSpace=wrap;html=1;boundedLbl=1;backgroundOutline=1;size=15;" vertex="1" parent="k6odBhkB7ekg_1NBam7G-6">
          <mxGeometry x="220" y="40" width="90" height="80" as="geometry" />
        </mxCell>
        <mxCell id="k6odBhkB7ekg_1NBam7G-12" style="edgeStyle=orthogonalEdgeStyle;rounded=0;orthogonalLoop=1;jettySize=auto;html=1;exitX=0;exitY=0;exitDx=0;exitDy=52.5;exitPerimeter=0;entryX=1;entryY=0.5;entryDx=0;entryDy=0;" edge="1" parent="k6odBhkB7ekg_1NBam7G-6" source="k6odBhkB7ekg_1NBam7G-3" target="k6odBhkB7ekg_1NBam7G-8">
          <mxGeometry relative="1" as="geometry">
            <Array as="points">
              <mxPoint x="160" y="183" />
              <mxPoint x="160" y="260" />
            </Array>
          </mxGeometry>
        </mxCell>
        <mxCell id="k6odBhkB7ekg_1NBam7G-26" style="edgeStyle=orthogonalEdgeStyle;rounded=0;orthogonalLoop=1;jettySize=auto;html=1;exitX=0;exitY=0;exitDx=0;exitDy=27.5;exitPerimeter=0;entryX=1;entryY=0.25;entryDx=0;entryDy=0;" edge="1" parent="k6odBhkB7ekg_1NBam7G-6" source="k6odBhkB7ekg_1NBam7G-3" target="k6odBhkB7ekg_1NBam7G-24">
          <mxGeometry relative="1" as="geometry">
            <Array as="points">
              <mxPoint x="180" y="157" />
              <mxPoint x="180" y="335" />
            </Array>
          </mxGeometry>
        </mxCell>
        <mxCell id="k6odBhkB7ekg_1NBam7G-3" value="Kunden- Stammdaten" style="shape=cylinder3;whiteSpace=wrap;html=1;boundedLbl=1;backgroundOutline=1;size=15;" vertex="1" parent="k6odBhkB7ekg_1NBam7G-6">
          <mxGeometry x="220" y="130" width="90" height="80" as="geometry" />
        </mxCell>
        <mxCell id="k6odBhkB7ekg_1NBam7G-7" value="Auftrags-Stammdaten" style="shape=cylinder3;whiteSpace=wrap;html=1;boundedLbl=1;backgroundOutline=1;size=15;" vertex="1" parent="k6odBhkB7ekg_1NBam7G-6">
          <mxGeometry x="220" y="220" width="90" height="80" as="geometry" />
        </mxCell>
        <mxCell id="k6odBhkB7ekg_1NBam7G-8" value="Auftragsverwaltung" style="rounded=1;whiteSpace=wrap;html=1;" vertex="1" parent="k6odBhkB7ekg_1NBam7G-6">
          <mxGeometry x="30" y="230" width="120" height="60" as="geometry" />
        </mxCell>
        <mxCell id="k6odBhkB7ekg_1NBam7G-11" style="edgeStyle=orthogonalEdgeStyle;rounded=0;orthogonalLoop=1;jettySize=auto;html=1;exitX=1;exitY=0.75;exitDx=0;exitDy=0;entryX=0;entryY=0;entryDx=0;entryDy=27.5;entryPerimeter=0;" edge="1" parent="k6odBhkB7ekg_1NBam7G-6" source="k6odBhkB7ekg_1NBam7G-8" target="k6odBhkB7ekg_1NBam7G-7">
          <mxGeometry relative="1" as="geometry">
            <Array as="points">
              <mxPoint x="185" y="275" />
              <mxPoint x="185" y="248" />
            </Array>
          </mxGeometry>
        </mxCell>
        <mxCell id="k6odBhkB7ekg_1NBam7G-14" value="Artikelverwaltung" style="rounded=1;whiteSpace=wrap;html=1;" vertex="1" parent="k6odBhkB7ekg_1NBam7G-6">
          <mxGeometry x="30" y="50" width="120" height="60" as="geometry" />
        </mxCell>
        <mxCell id="k6odBhkB7ekg_1NBam7G-15" style="edgeStyle=orthogonalEdgeStyle;rounded=0;orthogonalLoop=1;jettySize=auto;html=1;exitX=1;exitY=0.5;exitDx=0;exitDy=0;entryX=0;entryY=0.5;entryDx=0;entryDy=0;entryPerimeter=0;" edge="1" parent="k6odBhkB7ekg_1NBam7G-6" source="k6odBhkB7ekg_1NBam7G-14" target="k6odBhkB7ekg_1NBam7G-2">
          <mxGeometry relative="1" as="geometry">
            <Array as="points">
              <mxPoint x="150" y="70" />
              <mxPoint x="190" y="70" />
            </Array>
          </mxGeometry>
        </mxCell>
        <mxCell id="k6odBhkB7ekg_1NBam7G-4" value="EDI-Daten" style="shape=cylinder3;whiteSpace=wrap;html=1;boundedLbl=1;backgroundOutline=1;size=15;" vertex="1" parent="k6odBhkB7ekg_1NBam7G-6">
          <mxGeometry x="220" y="460" width="90" height="80" as="geometry" />
        </mxCell>
        <mxCell id="k6odBhkB7ekg_1NBam7G-9" value="EDI-Endpoints" style="rounded=1;whiteSpace=wrap;html=1;" vertex="1" parent="k6odBhkB7ekg_1NBam7G-6">
          <mxGeometry x="30" y="470" width="120" height="60" as="geometry" />
        </mxCell>
        <mxCell id="k6odBhkB7ekg_1NBam7G-10" style="edgeStyle=orthogonalEdgeStyle;rounded=0;orthogonalLoop=1;jettySize=auto;html=1;exitX=1;exitY=0.5;exitDx=0;exitDy=0;entryX=0;entryY=0.5;entryDx=0;entryDy=0;entryPerimeter=0;" edge="1" parent="k6odBhkB7ekg_1NBam7G-6" source="k6odBhkB7ekg_1NBam7G-9" target="k6odBhkB7ekg_1NBam7G-4">
          <mxGeometry relative="1" as="geometry" />
        </mxCell>
        <mxCell id="k6odBhkB7ekg_1NBam7G-24" value="API-Endpoints" style="rounded=1;whiteSpace=wrap;html=1;" vertex="1" parent="k6odBhkB7ekg_1NBam7G-6">
          <mxGeometry x="30" y="320" width="120" height="60" as="geometry" />
        </mxCell>
        <mxCell id="k6odBhkB7ekg_1NBam7G-27" style="edgeStyle=orthogonalEdgeStyle;rounded=0;orthogonalLoop=1;jettySize=auto;html=1;exitX=1;exitY=0.5;exitDx=0;exitDy=0;entryX=0;entryY=0;entryDx=0;entryDy=52.5;entryPerimeter=0;" edge="1" parent="k6odBhkB7ekg_1NBam7G-6" source="k6odBhkB7ekg_1NBam7G-24" target="k6odBhkB7ekg_1NBam7G-7">
          <mxGeometry relative="1" as="geometry">
            <Array as="points">
              <mxPoint x="200" y="350" />
              <mxPoint x="200" y="273" />
            </Array>
          </mxGeometry>
        </mxCell>
        <mxCell id="k6odBhkB7ekg_1NBam7G-23" value="Daten komplett Saisonal, keine historischen Daten" style="text;html=1;whiteSpace=wrap;strokeColor=none;fillColor=none;align=center;verticalAlign=middle;rounded=0;fontColor=#FF0000;" vertex="1" parent="k6odBhkB7ekg_1NBam7G-6">
          <mxGeometry x="30" y="120" width="120" height="30" as="geometry" />
        </mxCell>
        <mxCell id="k6odBhkB7ekg_1NBam7G-32" value="Keine Beziehungen zwischen Datenbanktabellen" style="text;html=1;whiteSpace=wrap;strokeColor=none;fillColor=none;align=center;verticalAlign=middle;rounded=0;fontColor=#FF0000;" vertex="1" parent="k6odBhkB7ekg_1NBam7G-6">
          <mxGeometry x="205" y="310" width="120" height="30" as="geometry" />
        </mxCell>
        <mxCell id="k6odBhkB7ekg_1NBam7G-33" value="Teilweise Big Data, Nutzung dadurch komplex" style="text;html=1;whiteSpace=wrap;strokeColor=none;fillColor=none;align=center;verticalAlign=middle;rounded=0;fontColor=#FF0000;" vertex="1" parent="k6odBhkB7ekg_1NBam7G-6">
          <mxGeometry x="205" y="550" width="120" height="30" as="geometry" />
        </mxCell>
        <mxCell id="k6odBhkB7ekg_1NBam7G-36" value="Messbare LUG/AVQ aber aktuell keine Auswertung" style="text;html=1;whiteSpace=wrap;strokeColor=none;fillColor=none;align=center;verticalAlign=middle;rounded=0;fontColor=#FF0000;" vertex="1" parent="k6odBhkB7ekg_1NBam7G-6">
          <mxGeometry x="30" y="540" width="120" height="30" as="geometry" />
        </mxCell>
        <mxCell id="k6odBhkB7ekg_1NBam7G-19" style="edgeStyle=orthogonalEdgeStyle;rounded=0;orthogonalLoop=1;jettySize=auto;html=1;exitX=0.5;exitY=0.5;exitDx=0;exitDy=0;exitPerimeter=0;entryX=0;entryY=0.5;entryDx=0;entryDy=0;" edge="1" parent="1" source="k6odBhkB7ekg_1NBam7G-17" target="k6odBhkB7ekg_1NBam7G-14">
          <mxGeometry relative="1" as="geometry" />
        </mxCell>
        <mxCell id="k6odBhkB7ekg_1NBam7G-20" style="edgeStyle=orthogonalEdgeStyle;rounded=0;orthogonalLoop=1;jettySize=auto;html=1;exitX=0.5;exitY=0.5;exitDx=0;exitDy=0;exitPerimeter=0;entryX=0;entryY=0.5;entryDx=0;entryDy=0;" edge="1" parent="1" source="k6odBhkB7ekg_1NBam7G-17" target="k6odBhkB7ekg_1NBam7G-8">
          <mxGeometry relative="1" as="geometry" />
        </mxCell>
        <mxCell id="k6odBhkB7ekg_1NBam7G-17" value="Mitarbeiter" style="shape=umlActor;verticalLabelPosition=bottom;verticalAlign=top;html=1;outlineConnect=0;" vertex="1" parent="1">
          <mxGeometry x="-150" y="220" width="30" height="60" as="geometry" />
        </mxCell>
        <mxCell id="k6odBhkB7ekg_1NBam7G-29" style="edgeStyle=orthogonalEdgeStyle;rounded=0;orthogonalLoop=1;jettySize=auto;html=1;exitX=1;exitY=0.5;exitDx=0;exitDy=0;entryX=0;entryY=0.5;entryDx=0;entryDy=0;" edge="1" parent="1" source="k6odBhkB7ekg_1NBam7G-28" target="k6odBhkB7ekg_1NBam7G-24">
          <mxGeometry relative="1" as="geometry" />
        </mxCell>
        <mxCell id="k6odBhkB7ekg_1NBam7G-28" value="B2B-Shop" style="rounded=0;whiteSpace=wrap;html=1;" vertex="1" parent="1">
          <mxGeometry x="-220" y="405" width="120" height="60" as="geometry" />
        </mxCell>
        <mxCell id="k6odBhkB7ekg_1NBam7G-30" style="edgeStyle=orthogonalEdgeStyle;rounded=0;orthogonalLoop=1;jettySize=auto;html=1;exitX=0.5;exitY=0.5;exitDx=0;exitDy=0;exitPerimeter=0;entryX=0.5;entryY=1;entryDx=0;entryDy=0;" edge="1" parent="1" source="k6odBhkB7ekg_1NBam7G-16" target="k6odBhkB7ekg_1NBam7G-28">
          <mxGeometry relative="1" as="geometry">
            <Array as="points">
              <mxPoint x="-160" y="555" />
            </Array>
          </mxGeometry>
        </mxCell>
        <mxCell id="k6odBhkB7ekg_1NBam7G-16" value="Kund:in" style="shape=umlActor;verticalLabelPosition=bottom;verticalAlign=top;html=1;outlineConnect=0;" vertex="1" parent="1">
          <mxGeometry x="-200" y="525" width="30" height="60" as="geometry" />
        </mxCell>
        <mxCell id="k6odBhkB7ekg_1NBam7G-18" style="edgeStyle=orthogonalEdgeStyle;rounded=0;orthogonalLoop=1;jettySize=auto;html=1;exitX=0.5;exitY=0.5;exitDx=0;exitDy=0;exitPerimeter=0;entryX=0;entryY=0.5;entryDx=0;entryDy=0;" edge="1" parent="1" source="k6odBhkB7ekg_1NBam7G-16" target="k6odBhkB7ekg_1NBam7G-9">
          <mxGeometry relative="1" as="geometry" />
        </mxCell>
        <mxCell id="k6odBhkB7ekg_1NBam7G-34" value="Unübersichtlicher Produktkatalog (jedes Jahr 100% Rotation)" style="text;html=1;whiteSpace=wrap;strokeColor=none;fillColor=none;align=center;verticalAlign=middle;rounded=0;fontColor=#FF0000;" vertex="1" parent="1">
          <mxGeometry x="-290" y="480" width="120" height="30" as="geometry" />
        </mxCell>
        <mxCell id="k6odBhkB7ekg_1NBam7G-35" value="Mitarbeiter notwendig für Aufträge da Durchläufer-/Nachfolger-Artikel schlecht erkennbar" style="text;html=1;whiteSpace=wrap;strokeColor=none;fillColor=none;align=center;verticalAlign=middle;rounded=0;fontColor=#FF0000;" vertex="1" parent="1">
          <mxGeometry x="-190" y="330" width="120" height="30" as="geometry" />
        </mxCell>
        <mxCell id="k6odBhkB7ekg_1NBam7G-37" value="Datenbank eignet sich nicht für&amp;nbsp;" style="text;html=1;whiteSpace=wrap;strokeColor=none;fillColor=none;align=center;verticalAlign=middle;rounded=0;fontColor=#FF0000;" vertex="1" parent="1">
          <mxGeometry x="360" y="430" width="120" height="30" as="geometry" />
        </mxCell>
      </root>
    </mxGraphModel>
  </diagram>
</mxfile>
